<svg width="14" height="14" viewBox="0 0 14 14" fill="none" xmlns="http://www.w3.org/2000/svg">
<g clip-path="url(#clip0)">
<path d="M11.8992 1.40001H11.1992V0.700005C11.1992 0.313403 10.8858 0 10.4992 0C10.1126 0 9.79923 0.313403 9.79923 0.700005V1.40001H4.19923V0.700005C4.19923 0.313403 3.88582 0 3.49922 0C3.11262 0 2.79922 0.313403 2.79922 0.700005V1.40001H2.09923C1.32574 1.40001 0.706241 2.0265 0.706241 2.80002L0.699219 12.6C0.699219 13.3735 1.32571 14 2.09923 14H11.8992C12.6727 14 13.2992 13.3735 13.2992 12.6V2.79999C13.2992 2.0265 12.6727 1.40001 11.8992 1.40001ZM11.8992 12.6H2.09923V4.89999H11.8992V12.6Z" fill="#434242" fill-opacity="0.5"/>
</g>
<defs>
<clipPath id="clip0">
<rect width="14" height="14" fill="white"/>
</clipPath>
</defs>
</svg>
