<svg width="17" height="17" viewBox="0 0 17 17" fill="none" xmlns="http://www.w3.org/2000/svg">
<path d="M15.2818 9.79158H9.79216V15.2812C9.79216 15.9943 9.21365 16.5728 8.50057 16.5728C7.78749 16.5728 7.20899 15.9943 7.20899 15.2812V9.79158H1.71932C1.00624 9.79158 0.427734 9.21307 0.427734 8.49999C0.427734 7.78691 1.00624 7.2084 1.71932 7.2084H7.20899V1.71874C7.20899 1.00566 7.78749 0.427155 8.50057 0.427155C9.21365 0.427155 9.79216 1.00566 9.79216 1.71874V7.2084H15.2818C15.9949 7.2084 16.5734 7.78691 16.5734 8.49999C16.5734 9.21307 15.9949 9.79158 15.2818 9.79158Z" fill="#FAFAFA"/>
</svg>
