<svg width="20" height="20" viewBox="0 0 20 20" fill="none" xmlns="http://www.w3.org/2000/svg">
<path d="M0.122057 18.6996L5.93192 12.8897C4.82996 11.5293 4.16664 9.79975 4.16664 7.9167C4.16664 3.55145 7.71809 0 12.0833 0C16.4486 0 20 3.55145 20 7.9167C20 12.2819 16.4485 15.8334 12.0833 15.8334C10.2002 15.8334 8.47071 15.17 7.11028 14.0681L1.30042 19.878C1.13764 20.0407 0.873894 20.0407 0.711121 19.878L0.122017 19.2888C-0.040678 19.1261 -0.040678 18.8623 0.122057 18.6996ZM12.0833 14.1667C15.5298 14.1667 18.3333 11.3632 18.3333 7.9167C18.3333 4.47025 15.5298 1.66668 12.0833 1.66668C8.63684 1.66668 5.83328 4.47025 5.83328 7.9167C5.83328 11.3632 8.63684 14.1667 12.0833 14.1667Z" fill="#434242" fill-opacity="0.2"/>
</svg>
