<svg width="18" height="18" viewBox="0 0 18 18" fill="none" xmlns="http://www.w3.org/2000/svg">
<path d="M9.03516 0C4.09184 0 0 4.02152 0 8.96484C0 13.9082 4.09184 18 9.03516 18C13.9785 18 18 13.9082 18 8.96484C18 4.02152 13.9785 0 9.03516 0ZM10.0898 13.7812C10.0898 14.3627 9.61629 14.8359 9.03516 14.8359C8.45367 14.8359 7.98047 14.3627 7.98047 13.7812V8.4375C7.98047 7.85602 8.45367 7.38281 9.03516 7.38281C9.61629 7.38281 10.0898 7.85602 10.0898 8.4375V13.7812ZM9.03516 5.27344C8.45367 5.27344 7.98047 4.80023 7.98047 4.21875C7.98047 3.63727 8.45367 3.16406 9.03516 3.16406C9.61629 3.16406 10.0898 3.63727 10.0898 4.21875C10.0898 4.80023 9.61629 5.27344 9.03516 5.27344Z" fill="#FECC00"/>
</svg>
