<svg width="258" height="228" viewBox="0 0 258 228" fill="none" xmlns="http://www.w3.org/2000/svg">
<path d="M255.72 202.699L143.888 8.93888C137.406 -2.28826 121.174 -2.28826 114.692 8.93888L2.85959 202.699C-3.62267 213.927 4.49333 228 17.4578 228H241.122C254.087 228 262.203 213.927 255.72 202.699ZM129.448 68.6062C136.615 68.6062 142.413 74.5623 142.202 81.7308L140.094 155.313C139.936 161.112 135.193 165.697 129.395 165.697C123.598 165.697 118.855 161.059 118.697 155.313L116.642 81.7308C116.484 74.5623 122.228 68.6062 129.448 68.6062ZM129.29 201.698C121.965 201.698 116.009 195.742 116.009 188.415C116.009 181.088 121.965 175.132 129.29 175.132C136.615 175.132 142.571 181.088 142.571 188.415C142.571 195.742 136.615 201.698 129.29 201.698Z" fill="#E9EFFF"/>
</svg>
