<svg width="87" height="53" viewBox="0 0 87 53" fill="none" xmlns="http://www.w3.org/2000/svg">
<path d="M0 0V49.4495C0 51.0144 1.34131 52.2662 3.04029 52.2662H83.608C85.2623 52.2662 86.6483 51.0144 86.6483 49.4495V0L78.1087 0.0894191L43.3689 27.1391L10.2833 0H0Z" fill="white"/>
<path d="M78.107 0.0894191L43.3671 27.1391L10.3263 0H0.0429688V49.4495C0.0429688 51.0144 1.38428 52.2662 3.08326 52.2662H83.651C85.3053 52.2662 86.6913 51.0144 86.6913 49.4495V0L78.107 0.0894191ZM84.9029 48.5553C84.9029 50.0307 83.6063 51.2379 81.9967 51.2379H4.64812C3.03855 51.2379 1.74196 50.0307 1.74196 48.5553V1.07305H9.29798L43.3671 29.1958L78.6435 1.16246L84.9029 1.11776V48.5553Z" fill="white"/>
<path d="M0.134766 0.133789C0.134766 0.133789 35.1876 39.9706 43.1907 39.9706C50.389 39.9706 86.4701 0.178502 86.4701 0.178502C86.4701 0.178502 85.0841 1.07271 83.564 1.07271C68.7202 1.07271 19.9414 1.07271 2.59383 1.07271C1.47607 1.028 0.134766 0.133789 0.134766 0.133789Z" fill="#2FC089"/>
<path d="M51.9535 20.4326L54.0549 18.823L83.0718 47.4375L48.7344 22.1763L51.9535 20.4326Z" fill="#2FC089"/>
<path d="M35.1878 20.3877L32.6393 18.3311L3.89062 48.0633L37.9598 22.1761L35.1878 20.3877Z" fill="#2FC089"/>
<path d="M0.714844 51.2382C0.714844 51.2382 35.2758 15.7383 43.3237 15.7383C50.522 15.7383 85.9325 51.2382 85.9325 51.2382C85.9325 51.2382 85.083 52.2665 83.6075 52.2665C68.7638 52.2665 19.9849 52.2665 2.63738 52.2665C1.51963 52.2665 0.714844 51.2382 0.714844 51.2382Z" fill="white"/>
<path d="M84.0101 49.3152C83.6525 49.494 83.2054 49.6729 82.6241 49.6729C68.138 49.6729 20.5664 49.6729 3.66593 49.6729C3.26354 49.6729 2.90586 49.5387 2.63759 49.3599C1.43042 50.5671 0.759766 51.2824 0.759766 51.2824C0.759766 51.2824 1.56455 52.3108 2.6823 52.3108C20.0299 52.3108 68.8087 52.3108 83.6525 52.3108C85.1726 52.3108 85.9774 51.2824 85.9774 51.2824C85.9774 51.2824 85.262 50.5224 84.0101 49.3152Z" fill="white"/>
<path d="M85.8446 51.3275C85.8446 51.3275 50.4341 15.8276 43.2358 15.8276C35.1879 15.8276 0.626953 51.3275 0.626953 51.3275C0.626953 51.3275 35.1879 16.6771 43.2358 16.6771C50.4341 16.6771 85.8446 51.3275 85.8446 51.3275Z" fill="white"/>
<path d="M0 0C0 0 35.3211 36.6176 43.3689 36.6176C50.5672 36.6176 86.6036 0 86.6036 0C86.6036 0 85.1729 0.0447095 83.6975 0.0447095C68.8537 0.0447095 20.0749 0.0447095 2.72732 0.0447095C1.56486 0.0447095 0 0 0 0Z" fill="white"/>
<path d="M86.6485 0C86.6485 0 85.173 0.0447095 83.6529 0.0447095C68.8091 0.0447095 20.0303 0.0447095 2.68271 0.0447095C1.52025 0.0447095 0.000101379 0 0.000101379 0C0.000101379 0 -0.0446081 0 1.7438 1.78841C19.1808 1.78841 70.061 1.7437 84.8601 1.7437C84.9048 1.7437 86.6485 0 86.6485 0Z" fill="white"/>
<path d="M85.9323 0.759878C85.9323 0.759878 50.5218 36.528 43.3235 36.528C35.2757 36.528 0.267578 0.268066 0.267578 0.268066C0.267578 0.268066 35.3204 33.9795 43.3682 33.9795C50.5665 33.9795 85.9323 0.759878 85.9323 0.759878Z" fill="white"/>
<path d="M18.1074 17.929C27.6307 27.4969 38.6741 37.6462 42.8769 37.6462C46.0066 37.6462 54.4568 31.1185 62.3258 23.3836C54.2333 30.5819 45.8277 36.3496 42.8769 36.3496C38.853 36.3048 27.9884 27.0945 18.1074 17.929Z" fill="#22AF7A"/>
</svg>
