<svg width="84" height="76" viewBox="0 0 84 76" fill="none" xmlns="http://www.w3.org/2000/svg">
<path d="M84 33.9907C84 15.2372 71.107 0 54.4633 0H0V23.52" fill="#039960"/>
<path d="M0 22.5042V43.9925C0 62.746 12.893 75.0139 29.5367 75.0139H84V33.5218" fill="#039960"/>
<path d="M41.1442 28.8905C40.7451 28.8542 41.5722 28.9128 41.1442 28.8905ZM41.1442 28.8905C31.4117 28.3827 13.5613 31.621 16.3339 49.0489C18.9391 65.4246 31.2308 64.0465 38.8124 60.5924C39.8717 60.1098 41.1442 60.8505 41.1442 62.0146V62.0146C41.1442 62.8468 41.8189 63.5214 42.6511 63.5214H54.6507C55.7553 63.5214 56.6507 62.626 56.6507 61.5214V55.7007C56.6507 54.5961 57.5461 53.7007 58.6507 53.7007H64.4715C65.576 53.7007 66.4715 52.8053 66.4715 51.7007V40.7111C66.4715 39.6066 65.576 38.7111 64.4715 38.7111H58.7839C57.6287 38.7111 56.7141 37.7369 56.7401 36.582C56.8699 30.8178 56.2632 21.7217 53.5494 18.0359C50.4697 13.8529 42.2169 12.4464 38.2247 12.3087C33.2282 12.1364 23.0534 12.4535 23.0534 14.9346C23.0534 16.8185 23.0534 21.0071 23.0534 24.1965C23.0534 25.518 24.3124 26.483 25.6088 26.2272C31.3986 25.085 40.2912 24.5687 41.1442 28.8905Z" stroke="white" stroke-width="5.3" stroke-linecap="round" stroke-linejoin="round"/>
<path d="M38.8124 60.5534C31.2308 64.0075 18.9391 65.3856 16.3339 49.0099C13.5613 31.5819 31.4117 28.3437 41.1442 28.8515C40.2912 24.5296 31.3986 25.0459 25.6088 26.1882C24.3124 26.444 23.0534 25.479 23.0534 24.1575V14.8956C23.0534 12.4145 33.0465 12.1388 38.043 12.3111C41.8334 12.6557 50.2414 14.2753 53.5494 17.9968C56.4673 21.2794 56.9187 30.7013 56.7481 36.5436C56.7144 37.6984 57.6287 38.6721 58.7839 38.6721H64.4715C65.576 38.6721 66.4715 39.5675 66.4715 40.6721V51.6617C66.4715 52.7662 65.576 53.6617 64.4715 53.6617H58.6507C57.5462 53.6617 56.6507 54.5571 56.6507 55.6617V61.4824C56.6507 62.587 55.7553 63.4824 54.6507 63.4824H42.6511C41.8189 63.4824 41.1442 62.8078 41.1442 61.9755C41.1442 60.8115 39.8717 60.0708 38.8124 60.5534Z" fill="#FEFEFE"/>
<path d="M38.8124 60.5534C31.2308 64.0075 18.9391 65.3856 16.3339 49.0099C13.5613 31.5819 31.4117 28.3437 41.1442 28.8515C40.2912 24.5296 31.3986 25.0459 25.6088 26.1882C24.3124 26.444 23.0534 25.479 23.0534 24.1575V14.8956C23.0534 12.4145 33.0465 12.1388 38.043 12.3111C41.8334 12.6557 50.2414 14.2753 53.5494 17.9968C56.4673 21.2794 56.9187 30.7013 56.7481 36.5436C56.7144 37.6984 57.6287 38.6721 58.7839 38.6721H64.4715C65.576 38.6721 66.4715 39.5675 66.4715 40.6721V51.6617C66.4715 52.7662 65.576 53.6617 64.4715 53.6617H58.6507C57.5462 53.6617 56.6507 54.5571 56.6507 55.6617V61.4824C56.6507 62.587 55.7553 63.4824 54.6507 63.4824H42.6511C41.8189 63.4824 41.1442 62.8078 41.1442 61.9755C41.1442 60.8115 39.8717 60.0708 38.8124 60.5534Z" fill="#FEFEFE"/>
<path d="M41.1442 28.8515C40.7451 28.8152 41.5722 28.8738 41.1442 28.8515ZM41.1442 28.8515C31.4117 28.3437 13.5613 31.5819 16.3339 49.0099C18.9391 65.3856 31.2308 64.0075 38.8124 60.5534C39.8717 60.0708 41.1442 60.8115 41.1442 61.9755V61.9755C41.1442 62.8078 41.8189 63.4824 42.6511 63.4824H54.6507C55.7553 63.4824 56.6507 62.587 56.6507 61.4824V55.6617C56.6507 54.5571 57.5461 53.6617 58.6507 53.6617H64.4715C65.576 53.6617 66.4715 52.7662 66.4715 51.6617V40.6721C66.4715 39.5675 65.576 38.6721 64.4715 38.6721H58.7839C57.6287 38.6721 56.7144 37.6984 56.7481 36.5436C56.9187 30.7013 56.4673 21.2794 53.5494 17.9968C50.2414 14.2753 41.8334 12.6557 38.043 12.3111C33.0465 12.1388 23.0534 12.4145 23.0534 14.8956C23.0534 16.7795 23.0534 20.9681 23.0534 24.1575C23.0534 25.479 24.3124 26.444 25.6088 26.1882C31.3986 25.0459 40.2912 24.5296 41.1442 28.8515Z" stroke="#EB1F25" stroke-width="2.2" stroke-linecap="round" stroke-linejoin="round"/>
<path d="M53.9394 34.292H45.7236V42.1506H37.5078V49.5469H45.7236V57.8678H53.9394V49.5469H62.1553V42.1506H53.9394V34.292Z" fill="#039960"/>
</svg>
