<?xml version="1.0" standalone="no"?>
<!DOCTYPE svg PUBLIC "-//W3C//DTD SVG 20010904//EN"
 "http://www.w3.org/TR/2001/REC-SVG-20010904/DTD/svg10.dtd">
<svg version="1.0" xmlns="http://www.w3.org/2000/svg"
 width="260.000000pt" height="260.000000pt" viewBox="0 0 260.000000 260.000000"
 preserveAspectRatio="xMidYMid meet">
<metadata>
Created by potrace 1.11, written by Peter Selinger 2001-2013
</metadata>
<g transform="translate(0.000000,260.000000) scale(0.100000,-0.100000)"
fill="#000000" stroke="none">
<path d="M3 1693 c4 -833 2 -806 68 -987 41 -113 100 -207 187 -298 127 -133
276 -215 462 -255 79 -17 153 -18 980 -18 l895 0 0 705 c0 644 -2 712 -18 790
-49 226 -134 395 -276 544 -118 123 -252 205 -408 248 -77 22 -85 23 -986 26
l-908 3 4 -758z m1337 401 c161 -29 302 -101 357 -183 58 -86 91 -239 100
-463 l6 -148 124 0 c118 0 125 -1 148 -25 l25 -24 0 -227 c0 -291 11 -274
-172 -274 l-128 0 0 -126 c0 -125 0 -126 -29 -155 l-29 -29 -222 0 c-263 0
-290 8 -290 82 0 15 -4 18 -17 13 -124 -52 -158 -59 -288 -59 -128 -1 -132 0
-197 32 -169 83 -269 278 -271 527 0 89 4 122 22 174 28 82 80 160 140 212 98
85 296 159 471 176 59 6 69 8 45 14 -56 12 -179 9 -297 -8 l-117 -17 -26 24
-25 23 0 192 c0 186 1 192 23 212 51 47 115 63 287 72 159 8 253 4 360 -15z"/>
<path d="M908 2080 c-91 -11 -155 -26 -185 -46 -23 -14 -23 -18 -23 -204 0
-230 -2 -226 113 -202 39 8 131 15 202 16 117 1 135 -1 178 -22 26 -13 47 -27
47 -31 0 -4 -55 -12 -123 -19 -468 -44 -695 -287 -623 -664 40 -208 144 -348
292 -394 105 -33 272 -16 401 41 30 14 59 22 64 19 5 -3 9 -23 9 -44 0 -29 5
-42 19 -50 25 -13 450 -13 471 0 12 7 16 40 20 152 l5 143 140 3 c96 2 142 6
147 15 4 7 8 112 8 233 0 171 -3 224 -13 232 -8 7 -69 13 -148 14 l-134 3 -6
185 c-12 351 -57 454 -235 536 -117 55 -257 84 -414 89 -74 2 -170 0 -212 -5z
m469 -63 c293 -83 346 -168 360 -574 4 -121 10 -186 18 -193 6 -5 72 -11 146
-12 l134 -3 3 -212 2 -213 -130 0 c-72 0 -140 -5 -151 -10 -17 -10 -19 -23
-19 -150 l0 -140 -225 0 -225 0 0 34 c0 36 -21 66 -46 66 -8 0 -41 -11 -74
-25 -296 -124 -534 -35 -618 230 -133 425 97 699 608 724 104 5 125 9 128 22
4 23 -44 77 -87 96 -55 24 -244 29 -359 9 -50 -9 -97 -16 -102 -16 -6 0 -10
65 -10 176 l0 175 35 15 c63 26 138 33 330 30 169 -3 200 -6 282 -29z"/>
<path d="M1420 1270 l0 -119 -127 -3 -128 -3 -3 -112 -3 -113 131 0 130 0 0
-130 0 -131 123 3 122 3 3 128 3 127 124 0 125 0 0 115 0 115 -125 0 -125 0 0
120 0 120 -125 0 -125 0 0 -120z"/>
</g>
</svg>
