<svg xmlns="http://www.w3.org/2000/svg" xmlns:xlink="http://www.w3.org/1999/xlink"><defs>
<clipPath id="clip0">
<rect width="90" height="90" fill="white"/>
</clipPath>

<clipPath id="clip0">
<rect width="90" height="90" fill="white"/>
</clipPath>

<clipPath id="clip0">
<rect width="92" height="92" fill="white"/>
</clipPath>
</defs><symbol id="icon-adv-1" viewBox="0 0 90 90">
<path d="M88.5 27H87V10.5C87 9.67163 86.3284 9 85.5 9H60V1.5C60 0.671631 59.3284 0 58.5 0H31.5C30.6716 0 30 0.671631 30 1.5V9H4.5C3.67163 9 3 9.67163 3 10.5V27H1.5C0.671631 27 0 27.6716 0 28.5V34.5C0 35.3284 0.671631 36 1.5 36H3V88.5C3 89.3284 3.67163 90 4.5 90H85.5C86.3284 90 87 89.3284 87 88.5V36H88.5C89.3284 36 90 35.3284 90 34.5V28.5C90 27.6716 89.3284 27 88.5 27ZM60 12H84V27H60V12ZM33 3H57V27H33V3ZM6 12H30V27H6V12ZM73.5 87H54V75H73.5V87ZM73.5 72H54V57H73.5V72ZM73.5 54H54V46.5H73.5V54ZM84 87H76.5V45C76.5 44.1716 75.8284 43.5 75 43.5H52.5C51.6716 43.5 51 44.1716 51 45V87H6V36H84V87ZM87 33H3V30H87V33Z" fill="currentColor"/>
<path d="M15 76.5H42C42.8284 76.5 43.5 75.8284 43.5 75V67.5C43.5 66.6716 42.8284 66 42 66H40.5V45C40.5 44.1716 39.8284 43.5 39 43.5H18C17.1716 43.5 16.5 44.1716 16.5 45V66H15C14.1716 66 13.5 66.6716 13.5 67.5V75C13.5 75.8284 14.1716 76.5 15 76.5ZM19.5 46.5H37.5V66H19.5V46.5ZM16.5 69H40.5V73.5H16.5V69Z" fill="currentColor"/>
<path d="M69 66C69.8284 66 70.5 65.3284 70.5 64.5V63C70.5 62.1716 69.8284 61.5 69 61.5C68.1716 61.5 67.5 62.1716 67.5 63V64.5C67.5 65.3284 68.1716 66 69 66Z" fill="currentColor"/>
<path d="M52.5 10.5H49.5V7.5C49.5 6.67163 48.8284 6 48 6H42C41.1716 6 40.5 6.67163 40.5 7.5V10.5H37.5C36.6716 10.5 36 11.1716 36 12V18C36 18.8284 36.6716 19.5 37.5 19.5H40.5V22.5C40.5 23.3284 41.1716 24 42 24H48C48.8284 24 49.5 23.3284 49.5 22.5V19.5H52.5C53.3284 19.5 54 18.8284 54 18V12C54 11.1716 53.3284 10.5 52.5 10.5ZM51 16.5H48C47.1716 16.5 46.5 17.1716 46.5 18V21H43.5V18C43.5 17.1716 42.8284 16.5 42 16.5H39V13.5H42C42.8284 13.5 43.5 12.8284 43.5 12V9H46.5V12C46.5 12.8284 47.1716 13.5 48 13.5H51V16.5Z" fill="currentColor"/>
</symbol><symbol id="icon-adv-2" viewBox="0 0 90 90">
<g clip-path="url(#clip0)">
<path d="M75.2033 41.6654V34.4705H77.5183C79.36 34.4705 80.8581 32.9723 80.8581 31.1307V17.4026C80.8581 15.5609 79.36 14.0628 77.5183 14.0628H66.5594C68.8312 11.8344 70.2441 8.73352 70.2441 5.30759C70.2441 4.33677 69.4571 3.54981 68.4863 3.54981C67.5155 3.54981 66.7285 4.33677 66.7285 5.30759C66.7285 8.59166 64.9101 11.4576 62.2281 12.9555C62.8988 11.7149 63.2803 10.296 63.2803 8.78941C63.2803 3.9432 59.3376 0.000488281 54.4913 0.000488281C50.5186 0.000488281 47.1547 2.6507 46.0707 6.2756C44.543 4.9933 42.5751 4.21917 40.4291 4.21917C38.283 4.21917 36.3151 4.9933 34.7874 6.2756C33.7034 2.6507 30.3395 0.000488281 26.3668 0.000488281C21.5206 0.000488281 17.5779 3.9432 17.5779 8.78941C17.5779 10.296 17.9593 11.7151 18.6301 12.9555C15.948 11.4576 14.1296 8.59149 14.1296 5.30742C14.1296 4.33659 13.3426 3.54963 12.3718 3.54963C11.401 3.54963 10.614 4.33659 10.614 5.30742C10.614 8.73334 12.0269 11.8342 14.2987 14.0626H3.33979C1.49816 14.0626 0 15.5608 0 17.4024V31.1305C0 32.9721 1.49816 34.4703 3.33979 34.4703H5.65479V77.6944C5.65479 80.6021 8.02042 82.9678 10.9281 82.9678H47.1983C51.7464 87.3207 57.9101 89.9989 64.6879 89.9989C78.6451 89.9989 90 78.644 90 64.6868C90 54.4797 83.926 45.6656 75.2033 41.6654ZM49.218 13.0081V8.78941C49.218 5.88169 51.5836 3.51606 54.4913 3.51606C57.3991 3.51606 59.7647 5.88169 59.7647 8.78941C59.7647 11.6971 57.3991 14.0628 54.4913 14.0628H49.218V13.0081ZM49.218 17.5783H77.3425V30.9549H49.218V17.5783ZM49.218 34.4705H71.6877V40.3601C69.4638 39.7192 67.1154 39.3749 64.6879 39.3749C58.8666 39.3749 53.4989 41.3513 49.218 44.6669V34.4705ZM35.1557 13.0081C35.1557 10.1004 37.5213 7.73474 40.4291 7.73474C43.3368 7.73474 45.7024 10.1004 45.7024 13.0081V14.0628H35.1557V13.0081ZM35.1557 17.5783H45.7024V30.9549H35.1557V17.5783ZM26.3668 3.51606C29.2745 3.51606 31.6401 5.88169 31.6401 8.78941V13.0081V14.0628H26.3668C23.459 14.0628 21.0934 11.6971 21.0934 8.78941C21.0934 5.88169 23.459 3.51606 26.3668 3.51606ZM3.51557 30.9549V17.5783H31.6401V30.9549H7.41258H3.51557ZM35.1557 79.4524V63.0143C35.1557 62.0434 34.3687 61.2565 33.3979 61.2565C32.4271 61.2565 31.6401 62.0434 31.6401 63.0143V79.4524H10.9281C9.95891 79.4524 9.17036 78.6638 9.17036 77.6946V34.4705H31.6401V47.1942C31.6401 48.165 32.4271 48.952 33.3979 48.952C34.3687 48.952 35.1557 48.165 35.1557 47.1942V34.4705H45.7024V47.9659C41.7673 52.4285 39.3758 58.2834 39.3758 64.687C39.3758 70.1932 41.1441 75.2936 44.1411 79.4524H35.1557ZM64.6879 86.4835C52.6692 86.4835 42.8914 76.7057 42.8914 64.687C42.8914 52.6683 52.6692 42.8904 64.6879 42.8904C76.7066 42.8904 86.4844 52.6683 86.4844 64.687C86.4844 76.7057 76.7066 86.4835 64.6879 86.4835Z" fill="currentColor"/>
<path d="M70.4189 53.1187C69.5452 52.6945 68.4939 53.0587 68.0698 53.932L58.3977 73.8488C57.9736 74.722 58.3378 75.7737 59.211 76.1979C59.4584 76.3179 59.7199 76.3749 59.9776 76.3749C60.6296 76.3749 61.2561 76.0105 61.5602 75.3845L71.2322 55.4678C71.6563 54.5945 71.2921 53.5426 70.4189 53.1187Z" fill="currentColor"/>
<path d="M60.2459 52.1317C59.1833 51.0691 57.7704 50.4839 56.2678 50.4839C54.7651 50.4839 53.3523 51.0691 52.2897 52.1317C50.0961 54.3252 50.0961 57.8945 52.2897 60.088C53.3866 61.1849 54.8269 61.7332 56.2678 61.7332C57.7084 61.7332 59.1494 61.1846 60.2461 60.088C62.4393 57.8945 62.4393 54.3252 60.2459 52.1317ZM57.76 57.602C56.9372 58.425 55.5983 58.4248 54.7756 57.602C53.9528 56.7791 53.9528 55.4404 54.7756 54.6174C55.1741 54.2187 55.7041 53.9993 56.2678 53.9993C56.8316 53.9993 57.3614 54.2189 57.76 54.6176C58.5829 55.4404 58.5829 56.7793 57.76 57.602Z" fill="currentColor"/>
<path d="M69.444 69.2862C67.2504 71.4798 67.2504 75.049 69.444 77.2426C70.5066 78.3052 71.9195 78.8904 73.4221 78.8904C74.9249 78.8904 76.3376 78.3052 77.4002 77.2426C79.5938 75.049 79.5938 71.4798 77.4002 69.2862C75.2066 67.0927 71.6376 67.0928 69.444 69.2862ZM74.9143 74.7567C74.5158 75.1554 73.9858 75.3748 73.4221 75.3748C72.8584 75.3748 72.3286 75.1552 71.9299 74.7565C71.1071 73.9337 71.1071 72.595 71.9299 71.7721C72.3414 71.3606 72.8818 71.155 73.4221 71.155C73.9625 71.155 74.503 71.3606 74.9143 71.7721C75.7372 72.595 75.7372 73.9339 74.9143 74.7567Z" fill="currentColor"/>
</g>

</symbol><symbol id="icon-adv-3" viewBox="0 0 90 90">
<g clip-path="url(#clip0)">
<path d="M22.0957 22.1475C21.1254 22.1475 20.3379 22.935 20.3379 23.9053C20.3379 24.8756 21.1254 25.6631 22.0957 25.6631C23.066 25.6631 23.8535 24.8756 23.8535 23.9053C23.8535 22.935 23.066 22.1475 22.0957 22.1475Z" fill="currentColor"/>
<path d="M37.9151 55.0167H32.642V49.7437C32.642 48.773 31.8549 47.9858 30.8842 47.9858C29.9136 47.9858 29.1266 48.773 29.1266 49.7437V55.0167H23.8535C22.8829 55.0167 22.0957 55.8039 22.0957 56.7744C22.0957 57.7449 22.8829 58.5322 23.8535 58.5322H29.1266V63.8053C29.1266 64.7759 29.9137 65.5631 30.8842 65.5631C31.8547 65.5631 32.642 64.7759 32.642 63.8053V58.5322H37.9151C38.8858 58.5322 39.6729 57.745 39.6729 56.7744C39.6729 55.8037 38.886 55.0167 37.9151 55.0167Z" fill="currentColor"/>
<path d="M85.3553 56.5988C81.4697 49.8688 72.8782 47.5655 66.147 51.452L59.0071 55.5741V40.31C59.0071 38.423 58.3831 36.5504 57.2495 35.0369L48.461 23.3191V18.3294C50.5067 17.6038 51.9764 15.6502 51.9764 13.3585V5.27309C51.976 2.36549 49.6106 0 46.703 0H15.0639C12.1563 0 9.79066 2.36549 9.79066 5.27309V13.3587C9.79066 15.65 11.2604 17.604 13.3061 18.3296V23.3193L4.51687 35.0378C3.38379 36.5505 2.75977 38.423 2.75977 40.31V74.3518C2.75977 79.1979 6.70236 83.1403 11.5483 83.1403H39.7967C43.7379 89.7467 52.2362 91.9577 58.8978 88.1112L80.2088 75.8071C86.8806 71.9543 89.2605 63.3655 85.3553 56.5988ZM13.3061 5.27309C13.3061 4.30383 14.0947 3.51527 15.0637 3.51527H46.7028C47.672 3.51527 48.4606 4.30383 48.4606 5.27309V13.3587C48.4606 14.3279 47.672 15.1163 46.7028 15.1163H15.0639C14.0947 15.1163 13.3063 14.3278 13.3063 13.3587V5.27309H13.3061ZM7.33008 37.1459L16.47 24.9597C16.6982 24.6556 16.8216 24.2854 16.8216 23.905V18.6319H44.9451V22.1474H29.1257C28.1551 22.1474 27.3679 22.9345 27.3679 23.9052C27.3679 24.8759 28.1551 25.663 29.1257 25.663H45.8241L54.4361 37.1454C54.999 37.8969 55.3486 38.796 55.4542 39.7248H6.31266C6.41812 38.7958 6.76775 37.8967 7.33008 37.1459ZM11.5485 79.6249C8.64088 79.6249 6.27539 77.2594 6.27539 74.3518V72.5766H38.2104C37.653 74.8556 37.6567 77.2898 38.295 79.625H11.5485V79.6249ZM39.5891 69.0785H6.27521V43.2399H55.4915V57.6035L44.8358 63.7562C42.6141 65.0396 40.8183 66.8665 39.5891 69.0785ZM57.1403 85.0667C52.0959 87.9796 45.65 86.2569 42.7352 81.209C39.8065 76.1124 41.5814 69.6957 46.594 66.8004L56.1349 61.2918L66.6812 79.5581L57.1403 85.0667ZM78.451 72.7627L69.7257 77.8004L59.1792 59.5338L67.9046 54.4966C72.9524 51.5825 79.396 53.3081 82.3108 58.3562C85.2384 63.4296 83.4581 69.8713 78.451 72.7627Z" fill="currentColor"/>
</g>

</symbol><symbol id="icon-adv-4" viewBox="0 0 92 92">
<g clip-path="url(#clip0)">
<path d="M91.8226 50.2497C90.9966 41.9412 87.2847 34.1083 81.3704 28.1938C76.3161 23.1396 70.1297 19.8917 63.6202 18.4476V13.882C66.2789 13.2205 68.2552 10.814 68.2552 7.95346C68.2552 4.58463 65.5145 1.84399 62.1457 1.84399H49.208C45.8392 1.84399 43.0985 4.58463 43.0985 7.95346C43.0985 10.8138 45.0748 13.2204 47.7333 13.882V18.4603C41.2438 19.9106 35.0779 23.154 30.0379 28.194C28.935 29.2969 27.9179 30.4539 26.987 31.6564C26.9419 31.653 26.8968 31.6496 26.8508 31.6496H14.0459C13.0536 31.6496 12.2489 32.4541 12.2489 33.4465C12.2489 34.4389 13.0536 35.2434 14.0459 35.2434H24.5419C23.2244 37.4491 22.1621 39.7655 21.3535 42.15H1.7969C0.804653 42.15 0 42.9544 0 43.9469C0 44.9393 0.804653 45.7438 1.7969 45.7438H20.3381C19.8202 48.017 19.523 50.3305 19.4463 52.6505H11.5002C10.5079 52.6505 9.70328 53.455 9.70328 54.4474C9.70328 55.4399 10.5079 56.2443 11.5002 56.2443H19.5036C19.6552 58.5702 20.0292 60.8839 20.6256 63.1511H8.98452C7.99227 63.1511 7.18761 63.9556 7.18761 64.948C7.18761 65.9404 7.99227 66.7449 8.98452 66.7449H21.7724C23.5351 71.408 26.2899 75.7786 30.0379 79.5266C35.958 85.4467 43.799 89.1595 52.1161 89.9812C53.3032 90.0983 54.4911 90.1564 55.6774 90.1564C62.6893 90.1564 69.612 88.1271 75.4861 84.3019C76.3177 83.7603 76.5529 82.6471 76.0113 81.8155C75.4697 80.9839 74.3566 80.7487 73.525 81.2903C60.6669 89.6633 43.4466 87.8529 32.5791 76.9854C19.8279 64.2343 19.8279 43.4867 32.5791 30.7353C45.3301 17.9843 66.0777 17.9843 78.8291 30.7353C89.6822 41.5886 91.5024 58.7941 83.1571 71.646C82.6166 72.4783 82.8532 73.5913 83.6854 74.1316C84.5181 74.6721 85.6307 74.4355 86.171 73.6031C90.6299 66.7363 92.637 58.4427 91.8226 50.2497ZM46.6923 7.95364C46.6923 6.56643 47.8208 5.43798 49.208 5.43798H62.1457C63.5329 5.43798 64.6614 6.56643 64.6614 7.95364C64.6614 9.34085 63.5329 10.4693 62.1457 10.4693H61.8233H49.5302H49.208C47.8208 10.4693 46.6923 9.34067 46.6923 7.95364ZM51.3271 17.8425V14.0631H60.0264V17.8361C57.1377 17.4925 54.2153 17.4947 51.3271 17.8425Z" fill="currentColor"/>
<path d="M55.7043 25.9849C40.3339 25.9849 27.8291 38.4895 27.8291 53.86C27.8291 69.2306 40.3339 81.7352 55.7043 81.7352C71.0746 81.7352 83.5795 69.2306 83.5795 53.86C83.5795 38.4895 71.0746 25.9849 55.7043 25.9849ZM55.7043 78.1414C42.3154 78.1414 31.4229 67.2488 31.4229 53.86C31.4229 40.4713 42.3154 29.5787 55.7043 29.5787C69.0932 29.5787 79.9857 40.4713 79.9857 53.86C79.9857 67.2488 69.0932 78.1414 55.7043 78.1414Z" fill="currentColor"/>
<path d="M67.0712 39.9523L58.1712 48.8522C57.4269 48.4842 56.5897 48.2763 55.7048 48.2763C54.8196 48.2763 53.9826 48.4842 53.2383 48.8522L49.2551 44.869C48.5533 44.1673 47.4158 44.1673 46.7138 44.869C46.0121 45.5707 46.0121 46.7085 46.7138 47.4102L50.697 51.3934C50.3288 52.1376 50.1211 52.9748 50.1211 53.8598C50.1211 56.9386 52.6258 59.4435 55.7048 59.4435C58.7837 59.4435 61.2884 56.9386 61.2884 53.8598C61.2884 52.9748 61.0805 52.1376 60.7125 51.3934L69.3513 42.7546L69.6124 42.4935C70.3141 41.7918 70.3141 40.654 69.6124 39.9523C68.9107 39.2506 67.7733 39.2506 67.0712 39.9523ZM55.7048 55.8499C54.6076 55.8499 53.7149 54.9572 53.7149 53.86C53.7149 52.7628 54.6076 51.8701 55.7048 51.8701C56.8019 51.8701 57.6946 52.7628 57.6946 53.86C57.6946 54.9572 56.8019 55.8499 55.7048 55.8499Z" fill="currentColor"/>
<path d="M74.9168 52.085H73.252C72.2597 52.085 71.4551 52.8894 71.4551 53.8818C71.4551 54.8742 72.2597 55.6787 73.252 55.6787H74.9168C75.909 55.6787 76.7136 54.8742 76.7136 53.8818C76.7136 52.8894 75.909 52.085 74.9168 52.085Z" fill="currentColor"/>
<path d="M38.1568 52.0413H36.4922C35.5 52.0413 34.6953 52.8457 34.6953 53.8381C34.6953 54.8305 35.5 55.635 36.4922 55.635H38.1568C39.149 55.635 39.9537 54.8305 39.9537 53.8381C39.9537 52.8457 39.149 52.0413 38.1568 52.0413Z" fill="currentColor"/>
<path d="M55.7256 38.1092C56.7178 38.1092 57.5225 37.3047 57.5225 36.3123V34.6477C57.5225 33.6553 56.7178 32.8508 55.7256 32.8508C54.7334 32.8508 53.9287 33.6553 53.9287 34.6477V36.3123C53.9287 37.3047 54.7334 38.1092 55.7256 38.1092Z" fill="currentColor"/>
<path d="M55.6826 69.6108C54.6904 69.6108 53.8857 70.4153 53.8857 71.4077V73.0724C53.8857 74.0648 54.6904 74.8692 55.6826 74.8692C56.6749 74.8692 57.4795 74.0648 57.4795 73.0724V71.4077C57.4795 70.4153 56.6749 69.6108 55.6826 69.6108Z" fill="currentColor"/>
</g>

</symbol><symbol id="icon-arrow" viewBox="0 0 18 18">
<path d="M13.6558 8.50605L5.33027 0.20355C5.0575 -0.0683121 4.61587 -0.0678551 4.34355 0.204956C4.07144 0.477733 4.07214 0.91961 4.34495 1.19168L12.1749 9.00003L4.34467 16.8083C4.07189 17.0805 4.07119 17.522 4.34326 17.7949C4.47978 17.9316 4.65862 18 4.83745 18C5.01584 18 5.19397 17.9321 5.33024 17.7963L13.6558 9.49397C13.7872 9.36326 13.8609 9.18537 13.8609 9.00003C13.8609 8.81469 13.787 8.63701 13.6558 8.50605Z" fill="currentColor"/>
</symbol><symbol id="icon-insta" viewBox="0 0 27 27">
<path d="M16.084 13.5C16.084 14.9271 14.9271 16.084 13.5 16.084C12.0729 16.084 10.916 14.9271 10.916 13.5C10.916 12.0729 12.0729 10.916 13.5 10.916C14.9271 10.916 16.084 12.0729 16.084 13.5Z" fill="currentColor"/>
<path d="M19.5429 8.92831C19.4187 8.59171 19.2205 8.28705 18.963 8.03697C18.7129 7.77948 18.4085 7.58131 18.0717 7.4571C17.7985 7.35101 17.3882 7.22474 16.6324 7.19034C15.8148 7.15305 15.5697 7.14502 13.4998 7.14502C11.4298 7.14502 11.1847 7.15285 10.3673 7.19013C9.61151 7.22474 9.20097 7.35101 8.92802 7.4571C8.59122 7.58131 8.28656 7.77948 8.03669 8.03697C7.7792 8.28705 7.58103 8.59151 7.45661 8.92831C7.35052 9.20145 7.22425 9.612 7.18985 10.3678C7.15257 11.1852 7.14453 11.4303 7.14453 13.5003C7.14453 15.5702 7.15257 15.8153 7.18985 16.6329C7.22425 17.3887 7.35052 17.799 7.45661 18.0722C7.58103 18.409 7.77899 18.7134 8.03648 18.9635C8.28656 19.221 8.59102 19.4192 8.92782 19.5434C9.20097 19.6497 9.61151 19.7759 10.3673 19.8103C11.1847 19.8476 11.4296 19.8554 13.4996 19.8554C15.5699 19.8554 15.815 19.8476 16.6322 19.8103C17.388 19.7759 17.7985 19.6497 18.0717 19.5434C18.7477 19.2826 19.2821 18.7482 19.5429 18.0722C19.649 17.799 19.7752 17.3887 19.8098 16.6329C19.8471 15.8153 19.855 15.5702 19.855 13.5003C19.855 11.4303 19.8471 11.1852 19.8098 10.3678C19.7754 9.612 19.6492 9.20145 19.5429 8.92831ZM13.4998 17.4808C11.3013 17.4808 9.51902 15.6987 9.51902 13.5001C9.51902 11.3016 11.3013 9.51951 13.4998 9.51951C15.6982 9.51951 17.4805 11.3016 17.4805 13.5001C17.4805 15.6987 15.6982 17.4808 13.4998 17.4808ZM17.6378 10.2924C17.1241 10.2924 16.7076 9.87588 16.7076 9.36213C16.7076 8.84838 17.1241 8.43186 17.6378 8.43186C18.1516 8.43186 18.5681 8.84838 18.5681 9.36213C18.5679 9.87588 18.1516 10.2924 17.6378 10.2924Z" fill="currentColor"/>
<path d="M13.5 0C6.0453 0 0 6.0453 0 13.5C0 20.9547 6.0453 27 13.5 27C20.9547 27 27 20.9547 27 13.5C27 6.0453 20.9547 0 13.5 0ZM21.2052 16.696C21.1677 17.5212 21.0365 18.0846 20.8449 18.5777C20.4422 19.619 19.619 20.4422 18.5777 20.8449C18.0848 21.0365 17.5212 21.1675 16.6962 21.2052C15.8695 21.2429 15.6055 21.252 13.5002 21.252C11.3947 21.252 11.1309 21.2429 10.304 21.2052C9.479 21.1675 8.91541 21.0365 8.42246 20.8449C7.90501 20.6502 7.43658 20.3452 7.04931 19.9507C6.65504 19.5636 6.34996 19.095 6.1553 18.5777C5.96372 18.0848 5.8325 17.5212 5.79501 16.6962C5.7569 15.8693 5.74805 15.6053 5.74805 13.5C5.74805 11.3947 5.7569 11.1307 5.79481 10.304C5.8323 9.4788 5.96331 8.91541 6.15488 8.42226C6.34955 7.90501 6.65483 7.43637 7.04931 7.04931C7.43637 6.65483 7.90501 6.34975 8.42226 6.15509C8.91541 5.96352 9.4788 5.8325 10.304 5.79481C11.1307 5.75711 11.3947 5.74805 13.5 5.74805C15.6053 5.74805 15.8693 5.75711 16.696 5.79501C17.5212 5.8325 18.0846 5.96352 18.5777 6.15488C19.095 6.34955 19.5636 6.65483 19.9509 7.04931C20.3452 7.43658 20.6505 7.90501 20.8449 8.42226C21.0367 8.91541 21.1677 9.4788 21.2054 10.304C21.2431 11.1307 21.252 11.3947 21.252 13.5C21.252 15.6053 21.2431 15.8693 21.2052 16.696Z" fill="currentColor"/>
</symbol><symbol id="icon-ok" viewBox="0 0 27 27">
<path d="M13.5122 11.1886C14.8013 11.1839 15.8279 10.1484 15.8233 8.85653C15.8186 7.56412 14.7897 6.53577 13.5 6.53467C12.1996 6.53329 11.161 7.58069 11.171 8.8847C11.1806 10.1719 12.2189 11.1933 13.5122 11.1886Z" fill="currentColor"/>
<path d="M13.5 0C6.04413 0 0 6.04441 0 13.5C0 20.9556 6.04413 27 13.5 27C20.9559 27 27 20.9556 27 13.5C27 6.04441 20.9559 0 13.5 0ZM13.5193 4.10538C16.1489 4.11256 18.2595 6.26345 18.2459 8.92202C18.2327 11.5193 16.0876 13.6243 13.4624 13.6155C10.8641 13.6066 8.73308 11.4524 8.74855 8.84992C8.76319 6.21898 10.8953 4.0982 13.5193 4.10538ZM18.8453 15.4838C18.2639 16.0807 17.5639 16.5127 16.7867 16.814C16.0519 17.0988 15.2468 17.2422 14.4496 17.3377C14.5703 17.4687 14.627 17.533 14.7021 17.6081C15.7837 18.6956 16.8707 19.7775 17.9487 20.868C18.3161 21.2398 18.3926 21.7005 18.1904 22.1323C17.9697 22.6046 17.4745 22.9151 16.9886 22.8816C16.6809 22.8604 16.4409 22.7076 16.2279 22.493C15.4114 21.6715 14.5794 20.8647 13.7801 20.0278C13.5467 19.7842 13.4351 19.8306 13.2293 20.0421C12.4081 20.8879 11.5734 21.7202 10.734 22.548C10.357 22.9198 9.90838 22.9872 9.47085 22.7745C9.00598 22.5496 8.71043 22.0748 8.73308 21.5972C8.74911 21.2752 8.90765 21.0282 9.12918 20.8078C10.2001 19.7391 11.2676 18.6672 12.3355 17.596C12.4065 17.525 12.4722 17.4496 12.5752 17.3391C11.1188 17.1869 9.80535 16.8284 8.68088 15.9492C8.54111 15.8398 8.39721 15.7343 8.27015 15.6117C7.77766 15.1391 7.72822 14.5974 8.1174 14.04C8.45079 13.5627 9.00985 13.4351 9.59128 13.7094C9.70398 13.7621 9.81115 13.829 9.9139 13.8997C12.0093 15.3396 14.888 15.3791 16.9916 13.964C17.1999 13.8049 17.4228 13.674 17.6811 13.608C18.1827 13.4787 18.6511 13.6635 18.9202 14.1027C19.2281 14.6046 19.2246 15.094 18.8453 15.4838Z" fill="currentColor"/>
</symbol><symbol id="icon-vk" viewBox="0 0 27 27">
<path d="M13.5 0C6.04441 0 0 6.04413 0 13.5C0 20.9559 6.04441 27 13.5 27C20.9556 27 27 20.9559 27 13.5C27 6.04413 20.9556 0 13.5 0ZM20.3479 14.9601C20.9771 15.5746 21.6428 16.153 22.2077 16.8312C22.4579 17.1311 22.6938 17.4413 22.8734 17.7902C23.1297 18.2876 22.8982 18.8332 22.453 18.8627L19.6872 18.8622C18.9729 18.9213 18.4045 18.6332 17.9252 18.1448C17.5427 17.7556 17.1877 17.3399 16.8193 16.9375C16.6687 16.7723 16.5102 16.6168 16.3213 16.4944C15.9442 16.2492 15.6166 16.3243 15.4006 16.7182C15.1805 17.119 15.1302 17.5631 15.1092 18.0092C15.0791 18.6614 14.8825 18.8318 14.2281 18.8624C12.8299 18.9279 11.5032 18.7158 10.2702 18.0109C9.18249 17.3891 8.34058 16.5116 7.60696 15.518C6.17837 13.5812 5.08429 11.4555 4.10124 9.26867C3.87999 8.77617 4.04185 8.51266 4.58517 8.50245C5.48784 8.48504 6.39051 8.48725 7.29318 8.50162C7.66054 8.50742 7.90361 8.71762 8.04476 9.06427C8.53255 10.2644 9.13056 11.4063 9.87993 12.4653C10.0796 12.7473 10.2835 13.0285 10.5738 13.2277C10.8942 13.4475 11.1384 13.3749 11.2895 13.0172C11.3861 12.7899 11.4278 12.5468 11.4488 12.3032C11.5206 11.4687 11.5292 10.6345 11.4049 9.80342C11.3276 9.2833 11.0351 8.94743 10.5166 8.84909C10.2525 8.7991 10.2912 8.70132 10.4197 8.55051C10.6426 8.28976 10.8514 8.12845 11.2687 8.12845L14.3936 8.1279C14.886 8.22457 14.9965 8.44555 15.0634 8.94163L15.0661 12.4142C15.0603 12.6062 15.1625 13.1752 15.5073 13.3008C15.7835 13.392 15.9658 13.1705 16.1309 12.9956C16.8803 12.2004 17.4142 11.2618 17.8924 10.2904C18.1034 9.86197 18.2854 9.41865 18.4622 8.9745C18.5937 8.64608 18.7981 8.48449 19.1688 8.49002L22.1778 8.49361C22.2665 8.49361 22.3566 8.49444 22.4444 8.50963C22.9515 8.59636 23.0905 8.81457 22.9336 9.30927C22.6866 10.0865 22.2068 10.734 21.7378 11.3831C21.2351 12.078 20.699 12.7487 20.2012 13.4467C19.7438 14.0847 19.78 14.406 20.3479 14.9601Z" fill="currentColor"/>
</symbol></svg>