<svg xmlns="http://www.w3.org/2000/svg" xmlns:xlink="http://www.w3.org/1999/xlink"><defs>
<clipPath id="clip0">
<rect width="90" height="90" fill="white"/>
</clipPath>

<clipPath id="clip0">
<rect width="90" height="90" fill="white"/>
</clipPath>

<clipPath id="clip0">
<rect width="92" height="92" fill="white"/>
</clipPath>
</defs><symbol id="icon-1" viewBox="0 0 160 160">
<path d="M108.638 22.2975C107.501 21.1851 106.06 20.4343 104.497 20.1398C102.934 19.8453 101.319 20.0202 99.855 20.6425C98.4132 21.2256 97.1796 22.2282 96.314 23.5203C95.4485 24.8125 94.9907 26.3347 95 27.89V41.4625L90 36.4625V7.5C90 6.83696 89.7367 6.20107 89.2678 5.73223C88.799 5.26339 88.1631 5 87.5 5C86.837 5 86.2011 5.26339 85.7323 5.73223C85.2634 6.20107 85 6.83696 85 7.5V37.5C85.0002 38.163 85.2637 38.7988 85.7325 39.2675L118.233 71.7675C118.463 72.0063 118.739 72.1967 119.044 72.3278C119.349 72.4588 119.677 72.5277 120.009 72.5306C120.341 72.5335 120.67 72.4703 120.977 72.3446C121.285 72.2189 121.564 72.0332 121.799 71.7985C122.033 71.5638 122.219 71.2846 122.345 70.9774C122.47 70.6701 122.534 70.341 122.531 70.009C122.528 69.677 122.459 69.349 122.328 69.044C122.197 68.739 122.006 68.4631 121.768 68.2325L100 46.4625V27.89C100.001 27.321 100.173 26.7654 100.493 26.2948C100.813 25.8242 101.266 25.4603 101.795 25.25C102.351 25.0058 102.967 24.9343 103.564 25.0449C104.161 25.1555 104.711 25.4429 105.143 25.87C119.349 39.621 130.642 56.0909 138.348 74.2985C146.055 92.5061 150.018 112.079 150 131.85V137.807C150.001 139.687 149.559 141.541 148.711 143.219C147.863 144.896 146.632 146.351 145.118 147.465C143.535 148.656 141.695 149.457 139.745 149.805C137.795 150.152 135.791 150.036 133.895 149.465L109.96 142.438C107.104 141.642 104.586 139.935 102.788 137.578C100.99 135.22 100.012 132.34 100 129.375V73.5325L118.233 91.765C118.704 92.2204 119.336 92.4724 119.991 92.4667C120.647 92.461 121.274 92.1981 121.737 91.7345C122.201 91.271 122.464 90.644 122.469 89.9885C122.475 89.333 122.223 88.7015 121.768 88.23L81.7675 48.23C81.2987 47.7613 80.663 47.498 80 47.498C79.3371 47.498 78.7014 47.7613 78.2325 48.23L38.2326 88.23C37.7772 88.7015 37.5252 89.333 37.5309 89.9885C37.5366 90.644 37.7995 91.271 38.263 91.7345C38.7265 92.1981 39.3536 92.461 40.0091 92.4667C40.6646 92.4724 41.2961 92.2204 41.7676 91.765L60 73.5325V129.375C59.9895 132.341 59.0107 135.222 57.2124 137.581C55.4142 139.94 52.8949 141.647 50.0376 142.443L26.1051 149.47C24.2086 150.04 22.2048 150.155 20.2554 149.808C18.306 149.46 16.4655 148.66 14.8826 147.47C13.3677 146.355 12.1363 144.9 11.2881 143.221C10.44 141.543 9.9987 139.688 10.0001 137.807V131.85C9.98317 112.079 13.946 92.5063 21.6526 74.2988C29.3592 56.0913 40.6518 39.6213 54.8576 25.87C55.1292 25.5935 55.4533 25.3741 55.8109 25.2247C56.1686 25.0753 56.5525 24.9989 56.94 25C57.3739 25.0011 57.8034 25.086 58.2051 25.25C58.734 25.46 59.1878 25.8239 59.5077 26.2945C59.8277 26.7651 59.9992 27.3209 60 27.89V46.4625L38.2326 68.23C37.9938 68.4606 37.8033 68.7365 37.6723 69.0415C37.5413 69.3465 37.4723 69.6746 37.4694 70.0065C37.4665 70.3384 37.5298 70.6676 37.6555 70.9749C37.7812 71.2821 37.9668 71.5613 38.2016 71.796C38.4363 72.0307 38.7154 72.2163 39.0227 72.3421C39.3299 72.4678 39.6591 72.531 39.9911 72.5281C40.323 72.5252 40.6511 72.4563 40.9561 72.3253C41.2611 72.1942 41.5369 72.0038 41.7676 71.765L74.2675 39.265C74.7358 38.7969 74.9992 38.1621 75 37.5V7.5C75 6.83696 74.7367 6.20107 74.2678 5.73223C73.799 5.26339 73.1631 5 72.5 5C71.837 5 71.2011 5.26339 70.7323 5.73223C70.2634 6.20107 70 6.83696 70 7.5V36.4625L65 41.4625V27.89C65.0099 26.3343 64.5524 24.8115 63.6867 23.5189C62.8211 22.2262 61.5873 21.2233 60.1451 20.64C58.6813 20.0177 57.0661 19.8428 55.5031 20.1373C53.9401 20.4318 52.4994 21.1826 51.3626 22.295C36.6778 36.5099 25.005 53.5357 17.0398 72.3575C9.07456 91.1794 4.97999 111.412 5.00007 131.85V137.807C4.99614 140.465 5.61753 143.086 6.81401 145.459C8.0105 147.832 9.74851 149.89 11.8876 151.467C14.9287 153.759 18.6325 154.999 22.4401 155C24.1581 154.998 25.8671 154.751 27.5151 154.265L51.4451 147.25C55.3439 146.155 58.7783 143.816 61.2252 140.589C63.6722 137.363 64.9977 133.425 65 129.375V68.5325L80 53.5325L95 68.5325V129.375C95.0403 133.415 96.3799 137.334 98.8207 140.553C101.261 143.773 104.674 146.121 108.553 147.25L132.5 154.268C134.143 154.751 135.847 154.998 137.56 155C141.368 154.998 145.072 153.757 148.113 151.465C150.251 149.888 151.989 147.83 153.186 145.458C154.382 143.085 155.004 140.465 155 137.807V131.85C155.02 111.413 150.925 91.1803 142.96 72.3589C134.995 53.5375 123.322 36.5121 108.638 22.2975Z" fill="currentColor"/>
<path d="M128.001 102.5C128.001 101.837 127.738 101.201 127.269 100.732C126.8 100.263 126.164 100 125.501 100H122.158C121.571 99.997 121.001 100.202 120.55 100.58C120.099 100.957 119.797 101.482 119.697 102.062C119.597 102.641 119.705 103.237 120.003 103.744C120.301 104.251 120.769 104.636 121.323 104.83V107.863C119.561 108.261 117.96 109.185 116.733 110.513L114.108 109C114.216 108.423 114.116 107.826 113.826 107.315C113.536 106.804 113.074 106.412 112.523 106.209C111.972 106.006 111.366 106.005 110.814 106.205C110.262 106.406 109.798 106.796 109.506 107.305L107.838 110.19C107.555 110.699 107.458 111.291 107.565 111.864C107.671 112.437 107.975 112.954 108.422 113.327C108.87 113.7 109.434 113.905 110.016 113.907C110.599 113.908 111.164 113.706 111.613 113.335L114.203 114.835C113.729 116.58 113.737 118.421 114.226 120.163L111.606 121.663C111.16 121.281 110.592 121.069 110.005 121.066C109.418 121.062 108.848 121.266 108.397 121.642C107.946 122.018 107.642 122.542 107.54 123.12C107.438 123.699 107.543 124.295 107.838 124.803L109.506 127.688C109.796 128.2 110.26 128.593 110.813 128.796C111.367 128.999 111.974 128.999 112.527 128.795C113.08 128.591 113.543 128.198 113.833 127.684C114.122 127.171 114.22 126.571 114.108 125.993L116.723 124.493C117.961 125.773 119.521 126.695 121.238 127.163L121.328 127.18V130.18C120.781 130.379 120.321 130.764 120.029 131.268C119.737 131.772 119.631 132.363 119.73 132.937C119.828 133.511 120.126 134.032 120.57 134.409C121.014 134.786 121.576 134.995 122.158 135H125.501C126.09 135.005 126.662 134.8 127.114 134.422C127.566 134.045 127.869 133.519 127.97 132.938C128.07 132.358 127.961 131.76 127.662 131.253C127.362 130.745 126.892 130.361 126.336 130.168V127.168C127.211 126.942 128.052 126.599 128.836 126.148C129.607 125.687 130.312 125.124 130.931 124.473L133.558 125.988C133.489 126.346 133.501 126.715 133.591 127.069C133.682 127.422 133.849 127.752 134.082 128.033C134.315 128.314 134.607 128.54 134.937 128.696C135.268 128.851 135.628 128.931 135.993 128.93C136.433 128.93 136.864 128.815 137.245 128.596C137.625 128.376 137.941 128.06 138.161 127.68L139.826 124.795C140.123 124.287 140.231 123.69 140.129 123.111C140.028 122.531 139.724 122.006 139.272 121.63C138.82 121.253 138.248 121.049 137.66 121.054C137.072 121.059 136.504 121.273 136.058 121.658L133.458 120.158C133.934 118.413 133.927 116.571 133.438 114.83L136.051 113.33C136.5 113.7 137.065 113.901 137.646 113.899C138.228 113.898 138.792 113.693 139.239 113.321C139.686 112.949 139.989 112.432 140.097 111.86C140.204 111.288 140.108 110.697 139.826 110.188L138.161 107.303C137.997 107.018 137.779 106.769 137.518 106.568C137.258 106.368 136.961 106.222 136.643 106.136C136.326 106.051 135.996 106.029 135.67 106.072C135.344 106.115 135.03 106.221 134.746 106.385C134.302 106.643 133.948 107.033 133.736 107.501C133.523 107.968 133.461 108.491 133.558 108.995L130.938 110.51C129.675 109.215 128.083 108.288 126.333 107.828V104.828C126.818 104.66 127.238 104.346 127.537 103.929C127.836 103.512 127.998 103.013 128.001 102.5ZM128.163 115C128.714 115.953 128.934 117.061 128.791 118.151C128.647 119.242 128.148 120.255 127.371 121.034C126.593 121.812 125.58 122.312 124.49 122.457C123.399 122.601 122.291 122.382 121.338 121.833C120.384 121.283 119.639 120.435 119.216 119.419C118.794 118.403 118.719 117.276 119.002 116.213C119.285 115.15 119.911 114.21 120.783 113.539C121.654 112.867 122.723 112.502 123.823 112.5C124.701 112.5 125.563 112.731 126.323 113.17C127.083 113.609 127.715 114.24 128.153 115H128.163Z" fill="currentColor"/>
<path d="M40.3428 102.5C40.3428 101.837 40.0794 101.201 39.6105 100.732C39.1417 100.263 38.5058 100 37.8428 100H34.5003C33.9124 99.997 33.3425 100.202 32.8919 100.58C32.4412 100.957 32.1389 101.482 32.0388 102.062C31.9387 102.641 32.0471 103.237 32.3449 103.744C32.6427 104.251 33.1105 104.636 33.6653 104.83V107.863C31.9024 108.261 30.3019 109.185 29.0753 110.513L26.4503 109C26.5581 108.423 26.458 107.826 26.1678 107.315C25.8776 106.804 25.4159 106.412 24.8646 106.209C24.3134 106.006 23.708 106.005 23.1558 106.205C22.6036 106.406 22.1403 106.796 21.8478 107.305L20.1803 110.19C19.8967 110.699 19.7999 111.291 19.9065 111.864C20.0131 112.437 20.3164 112.954 20.7641 113.327C21.2117 113.7 21.7756 113.905 22.3583 113.907C22.9409 113.908 23.5058 113.706 23.9553 113.335L26.5453 114.835C26.0709 116.58 26.0787 118.421 26.5678 120.163L23.9478 121.663C23.5013 121.281 22.9342 121.069 22.3469 121.066C21.7596 121.062 21.1899 121.266 20.7387 121.642C20.2875 122.018 19.9839 122.542 19.8817 123.12C19.7795 123.699 19.8853 124.295 20.1803 124.803L21.8478 127.688C22.1382 128.2 22.6015 128.593 23.1549 128.796C23.7083 128.999 24.3159 128.999 24.869 128.795C25.4222 128.591 25.8849 128.198 26.1745 127.684C26.4642 127.171 26.5619 126.571 26.4503 125.993L29.0653 124.493C30.3025 125.773 31.8624 126.695 33.5803 127.163L33.6703 127.18V130.18C33.1229 130.379 32.663 130.764 32.3707 131.268C32.0785 131.772 31.9725 132.363 32.0714 132.937C32.1702 133.511 32.4676 134.032 32.9115 134.409C33.3555 134.786 33.9178 134.995 34.5003 135H37.8328C38.4219 135.005 38.9936 134.8 39.4457 134.422C39.8979 134.045 40.2013 133.519 40.3016 132.938C40.4019 132.358 40.2927 131.76 39.9934 131.253C39.6942 130.745 39.2243 130.361 38.6678 130.168V127.168C39.5432 126.942 40.3841 126.599 41.1678 126.148C41.9393 125.687 42.6441 125.124 43.2628 124.473L45.8903 125.988C45.8213 126.346 45.8325 126.715 45.923 127.069C46.0136 127.422 46.1812 127.752 46.4139 128.033C46.6467 128.314 46.9387 128.54 47.2691 128.696C47.5996 128.851 47.9602 128.931 48.3253 128.93C48.7645 128.93 49.1961 128.815 49.5766 128.596C49.9572 128.376 50.2731 128.06 50.4928 127.68L52.1578 124.795C52.4552 124.287 52.5627 123.69 52.4613 123.111C52.3598 122.531 52.0559 122.006 51.6037 121.63C51.1515 121.253 50.5803 121.049 49.9919 121.054C49.4034 121.059 48.8359 121.273 48.3903 121.658L45.7903 120.158C46.2655 118.413 46.2586 116.571 45.7703 114.83L48.3828 113.33C48.8321 113.7 49.3964 113.901 49.9784 113.899C50.5603 113.898 51.1234 113.693 51.5707 113.321C52.0179 112.949 52.3213 112.432 52.4284 111.86C52.5356 111.288 52.4399 110.697 52.1578 110.188L50.5003 107.305C50.3363 107.021 50.1179 106.771 49.8576 106.571C49.5972 106.371 49.3 106.224 48.9828 106.139C48.6657 106.054 48.3349 106.032 48.0093 106.074C47.6837 106.117 47.3697 106.223 47.0853 106.388C46.6409 106.645 46.2878 107.035 46.075 107.503C45.8622 107.971 45.8003 108.493 45.8978 108.998L43.2778 110.513C42.0141 109.218 40.4224 108.29 38.6728 107.83V104.83C39.1581 104.662 39.5794 104.348 39.8785 103.931C40.1777 103.513 40.3399 103.014 40.3428 102.5ZM40.5053 115C41.0554 115.953 41.2759 117.061 41.1325 118.151C40.9892 119.242 40.49 120.255 39.7124 121.034C38.9348 121.812 37.9222 122.312 36.8314 122.457C35.7407 122.601 34.6328 122.382 33.6794 121.833C32.726 121.283 31.9804 120.435 31.5581 119.419C31.1358 118.403 31.0604 117.276 31.3436 116.213C31.6268 115.15 32.2527 114.21 33.1245 113.539C33.9962 112.867 35.065 112.502 36.1653 112.5C37.0438 112.499 37.907 112.73 38.668 113.169C39.4291 113.608 40.061 114.239 40.5003 115H40.5053Z" fill="currentColor"/>
</symbol><symbol id="icon-2" viewBox="0 0 160 160">
<path d="M160.001 74.6653C160.001 15.2801 125.301 10.6654 114.667 10.6654C106.199 10.8361 98.0289 13.8157 91.4395 19.1367C89.9761 14.3764 88.9329 9.71482 88.3823 7.03764C87.7792 4.08389 85.562 1.72296 82.6517 0.936084C77.8067 -0.198914 72.7764 -0.299226 67.8902 0.64171C63.8974 1.47921 61.1605 5.16889 61.5177 9.23294C62.7261 22.496 69.812 37.9101 75.5423 48.5063C77.8611 52.7482 79.7195 57.2257 81.0851 61.8632C82.0939 65.1488 82.6267 68.5619 82.667 71.9985C82.6636 75.4347 82.1839 78.8538 81.2423 82.1584C81.2255 82.2063 81.1892 82.2409 81.1748 82.29C79.7414 87.3066 77.2339 91.9512 73.8264 95.9022C73.683 96.0647 73.5436 96.234 73.3977 96.3922C73.1152 96.7019 72.8236 96.9937 72.533 97.2875C72.1805 97.64 71.8255 97.9862 71.463 98.3137C71.2886 98.4728 71.1142 98.6315 70.9374 98.785C69.163 100.338 67.1667 101.618 65.0149 102.584L64.9824 102.597C64.3508 102.869 63.7042 103.105 63.0461 103.304C62.9458 103.334 62.8452 103.366 62.7442 103.394C62.1889 103.551 61.6258 103.677 61.0567 103.772C60.9217 103.794 60.7864 103.827 60.6514 103.846C59.9946 103.943 59.3311 103.995 58.6671 103.998C55.5874 103.998 52.5514 103.267 49.809 101.866C45.084 99.6215 39.8958 98.525 34.6671 98.665C22.3406 98.5281 10.4903 103.42 1.84935 112.212C0.657478 113.652 0.00404202 115.462 0.000292029 117.332L0.000292029 127.998C-0.0231454 130.679 1.3656 133.174 3.65591 134.568C3.90153 134.723 4.1556 134.864 4.41685 134.99C7.32684 136.341 10.7587 135.858 13.1825 133.756C15.6196 131.774 18.294 130.102 21.144 128.781C25.3502 126.669 29.9634 125.493 34.6668 125.331C43.7774 125.331 46.8349 130.831 51.0652 138.446C56.4024 148.048 63.0442 159.998 85.3333 159.998C86.7826 159.998 88.2114 159.972 89.6198 159.919C130.554 158.489 153.789 136.288 158.907 93.8212C158.944 93.52 158.971 93.2087 159.006 92.9056C159.132 91.7981 159.258 90.6912 159.36 89.5562C159.473 88.3184 159.561 87.0563 159.643 85.7869C159.662 85.4884 159.69 85.1997 159.708 84.8997L159.716 84.7894L159.714 84.7619C159.903 81.5013 159.999 78.1353 160.001 74.6653ZM153.8 91.2556C153.646 92.6944 153.464 94.1019 153.267 95.4919C153.059 96.9462 152.827 98.374 152.571 99.7753C152.392 100.764 152.202 101.741 152 102.705C151.635 104.431 151.231 106.113 150.787 107.75C150.598 108.455 150.413 109.163 150.211 109.852C149.877 110.987 149.528 112.105 149.156 113.197C149.077 113.427 148.988 113.645 148.908 113.873C148.193 115.911 147.413 117.876 146.567 119.766C146.357 120.233 146.134 120.686 145.916 121.143C145.165 122.719 144.367 124.24 143.521 125.708C143.233 126.205 142.938 126.693 142.639 127.178C141.831 128.489 140.981 129.753 140.089 130.97C139.692 131.512 139.292 132.052 138.878 132.577C138.143 133.51 137.382 134.413 136.595 135.285C135.955 135.995 135.305 136.694 134.632 137.365C134.057 137.94 133.472 138.504 132.872 139.05C131.913 139.921 130.924 140.756 129.904 141.557C129.347 141.994 128.771 142.411 128.194 142.826C127.06 143.639 125.907 144.43 124.7 145.16C124.213 145.456 123.703 145.726 123.203 146.008C122.045 146.66 120.861 147.283 119.639 147.861C119.143 148.097 118.645 148.33 118.139 148.553C116.737 149.17 115.294 149.738 113.809 150.259C113.396 150.405 112.992 150.56 112.573 150.699C110.91 151.248 109.19 151.732 107.429 152.166C107.004 152.272 106.579 152.377 106.149 152.476C104.33 152.891 102.462 153.247 100.544 153.545C100.154 153.605 99.7576 153.659 99.3629 153.714C97.3514 153.996 95.2964 154.226 93.1761 154.38C92.8948 154.4 92.6051 154.411 92.322 154.429C90.0489 154.575 87.7298 154.665 85.3336 154.665C66.1827 154.665 60.8674 145.103 55.7283 135.855C51.3949 128.058 46.9158 119.998 34.6671 119.998C27.6809 120.256 20.8849 122.345 14.9606 126.056C13.1318 127.126 11.3887 128.336 9.74652 129.675C9.33278 130.027 8.83028 130.258 8.29403 130.344C7.93871 130.407 7.57465 130.402 7.22153 130.329C7.03122 130.291 6.84528 130.232 6.66715 130.155C5.82122 129.779 5.29216 128.923 5.33372 127.998V117.332C5.33341 116.703 5.55466 116.095 5.95872 115.613C13.5493 107.997 23.9159 103.803 34.6671 103.999C39.1668 103.869 43.6324 104.816 47.6918 106.762C51.1036 108.452 54.8596 109.331 58.6671 109.332C59.5046 109.326 60.3405 109.266 61.1702 109.153C61.4786 109.115 61.7839 109.06 62.0905 109.007C62.5924 108.92 63.0924 108.813 63.5899 108.688C63.9705 108.594 64.3508 108.505 64.7277 108.39C65.0633 108.287 65.3946 108.157 65.728 108.037C66.6655 107.704 67.5817 107.314 68.4714 106.868C68.6264 106.791 68.783 106.719 68.9374 106.637C69.5089 106.337 70.0705 106.013 70.6267 105.667C70.7295 105.603 70.8305 105.536 70.9327 105.471C72.7077 104.328 74.3617 103.008 75.8692 101.53C76.0086 101.395 76.1492 101.262 76.287 101.124C76.7317 100.676 77.1667 100.214 77.5917 99.7378C77.8023 99.5022 78.0067 99.2575 78.2127 99.0147C78.5961 98.5615 78.9808 98.1128 79.3461 97.6365C79.8605 96.9687 80.3567 96.2781 80.8355 95.565C81.0883 95.1872 81.3223 94.7919 81.5642 94.4028C81.8579 93.9312 82.1473 93.4569 82.4242 92.9684C82.653 92.5644 82.8739 92.1559 83.0905 91.7419C83.3586 91.2294 83.6136 90.7062 83.8629 90.1778C84.0554 89.77 84.253 89.3675 84.4336 88.9516C84.7608 88.1956 85.0648 87.4228 85.352 86.6387C85.3936 86.5256 85.4442 86.4178 85.4848 86.3044C87.3736 87.0962 89.1639 88.1056 90.8192 89.3116C93.8014 91.7462 97.4879 93.1559 101.334 93.3325C105.179 93.1562 108.866 91.7453 111.847 89.3091C118.086 84.0069 127.248 84.0069 133.487 89.3091C136.468 91.7453 140.154 93.1562 144 93.3325C147.627 93.2022 151.118 91.9225 153.969 89.6784C153.918 90.2097 153.857 90.7303 153.8 91.2556ZM154.448 83.0556C153.429 83.6534 152.463 84.2681 151.551 84.8788C149.429 86.6928 146.784 87.7853 144.001 87.9984C141.221 87.785 138.581 86.6934 136.463 84.8812C128.418 78.3709 116.917 78.3709 108.872 84.8812C106.753 86.6934 104.114 87.785 101.334 87.9984C98.5535 87.785 95.9129 86.6944 93.7923 84.8838C91.6795 83.3547 89.377 82.1069 86.9426 81.1716C87.6314 78.1622 87.9861 75.0856 88.0008 71.9985C87.9623 68.0622 87.3595 64.1516 86.2104 60.3866C84.7389 55.3813 82.7355 50.5482 80.2339 45.9701C74.7405 35.8138 67.9552 21.1107 66.8302 8.74888C66.7155 7.37607 67.6467 6.13482 68.9967 5.86076C73.0461 5.08326 77.213 5.1567 81.2323 6.07701C82.2067 6.33732 82.9514 7.12389 83.1583 8.11076C84.292 13.7367 85.7989 19.2811 87.6686 24.707C87.9767 25.5626 88.6995 26.2023 89.5861 26.4048C90.4726 26.6073 91.4014 26.3442 92.0501 25.707C98.0676 19.6936 106.163 16.2186 114.667 15.9986C139.714 15.9986 154.667 37.9307 154.667 74.665C154.667 77.5441 154.585 80.3309 154.448 83.0556Z" fill="currentColor"/>
<path d="M85.3345 109.331C86.8072 109.331 88.0011 108.137 88.0011 106.664C88.0011 105.191 86.8072 103.998 85.3345 103.998C83.8618 103.998 82.668 105.191 82.668 106.664C82.668 108.137 83.8618 109.331 85.3345 109.331Z" fill="currentColor"/>
<path d="M130.667 109.331C132.139 109.331 133.333 108.137 133.333 106.664C133.333 105.191 132.139 103.998 130.667 103.998C129.194 103.998 128 105.191 128 106.664C128 108.137 129.194 109.331 130.667 109.331Z" fill="currentColor"/>
<path d="M109.335 117.331C110.807 117.331 112.001 116.137 112.001 114.664C112.001 113.192 110.807 111.998 109.335 111.998C107.862 111.998 106.668 113.192 106.668 114.664C106.668 116.137 107.862 117.331 109.335 117.331Z" fill="currentColor"/>
<path d="M125.335 133.331C126.807 133.331 128.001 132.137 128.001 130.664C128.001 129.191 126.807 127.998 125.335 127.998C123.862 127.998 122.668 129.191 122.668 130.664C122.668 132.137 123.862 133.331 125.335 133.331Z" fill="currentColor"/>
<path d="M88.0005 127.998C89.4732 127.998 90.6671 126.804 90.6671 125.331C90.6671 123.858 89.4732 122.664 88.0005 122.664C86.5278 122.664 85.334 123.858 85.334 125.331C85.334 126.804 86.5278 127.998 88.0005 127.998Z" fill="currentColor"/>
<path d="M104.001 143.998C105.473 143.998 106.667 142.804 106.667 141.331C106.667 139.858 105.473 138.664 104.001 138.664C102.528 138.664 101.334 139.858 101.334 141.331C101.334 142.804 102.528 143.998 104.001 143.998Z" fill="currentColor"/>
<path d="M66.6685 125.331C68.1412 125.331 69.3351 124.137 69.3351 122.664C69.3351 121.192 68.1412 119.998 66.6685 119.998C65.1958 119.998 64.002 121.192 64.002 122.664C64.002 124.137 65.1958 125.331 66.6685 125.331Z" fill="currentColor"/>
<path d="M77.3345 143.998C78.8072 143.998 80.0011 142.804 80.0011 141.331C80.0011 139.858 78.8072 138.664 77.3345 138.664C75.8618 138.664 74.668 139.858 74.668 141.331C74.668 142.804 75.8618 143.998 77.3345 143.998Z" fill="currentColor"/>
</symbol><symbol id="icon-3" viewBox="0 0 160 160">
<path d="M136.067 138.622L102.233 56.1523C100.357 51.5771 99.4047 46.7505 99.4047 41.8054V20.0061C99.4047 17.6587 100.319 15.4517 101.979 13.7915C104.003 11.7676 105.119 9.07593 105.119 6.21338V3.125C105.119 1.39893 103.719 0 101.994 0H58.3622C56.6361 0 55.2372 1.39893 55.2372 3.125V6.21338C55.2372 9.07593 56.3517 11.7676 58.3756 13.7915C60.0358 15.4517 60.9501 17.6587 60.9501 20.0073V41.8054C60.9501 46.7505 59.9992 51.5771 58.1217 56.1523L48.8249 78.8135C48.8212 78.822 48.8175 78.8306 48.8139 78.8391L24.2875 138.622C22.3234 143.411 22.8715 148.837 25.7548 153.135C28.6381 157.434 33.4489 160 38.6247 160H121.73C126.906 160 131.718 157.434 134.601 153.135C137.483 148.835 138.031 143.411 136.067 138.622ZM63.9042 58.5242C66.0917 53.1934 67.2001 47.5684 67.2001 41.8054V20.0061C67.2001 15.99 65.6364 12.2131 62.7958 9.37256C61.9608 8.5376 61.497 7.4292 61.4872 6.25H98.8688C98.859 7.4292 98.3952 8.53638 97.559 9.37256C94.7196 12.2131 93.1547 15.9888 93.1547 20.0061V41.8042C93.1547 47.5671 94.2643 53.1921 96.4506 58.5229L103.996 76.9141H56.359L63.9042 58.5242ZM129.41 149.653C127.664 152.257 124.865 153.75 121.73 153.75H38.6247C35.4911 153.75 32.692 152.257 30.9452 149.653C29.6281 147.689 29.1251 145.411 29.4669 143.165H34.6159C36.3407 143.165 37.7409 141.765 37.7409 140.04C37.7409 138.314 36.3407 136.915 34.6159 136.915H31.7448L35.3336 128.165H40.6046C42.3307 128.165 43.7296 126.765 43.7296 125.04C43.7296 123.314 42.3307 121.915 40.6046 121.915H37.8983L41.4872 113.165H46.9071C48.6332 113.165 50.0321 111.765 50.0321 110.04C50.0321 108.314 48.6332 106.915 46.9071 106.915H44.0519L47.642 98.1653H53.2084C54.9345 98.1653 56.3334 96.7651 56.3334 95.0403C56.3334 93.3142 54.9345 91.9153 53.2084 91.9153H50.2055L53.7956 83.1653H106.559L130.285 140.995C131.474 143.894 131.155 147.051 129.41 149.653Z" fill="currentColor"/>
<path d="M120.634 138.817C119.98 137.219 118.156 136.455 116.558 137.108C114.962 137.762 114.196 139.586 114.849 141.184L114.867 141.223C115.362 142.433 116.528 143.165 117.76 143.165C118.154 143.165 118.554 143.091 118.942 142.932C120.539 142.278 121.305 140.453 120.65 138.856L120.634 138.817Z" fill="currentColor"/>
<path d="M116.218 128.051L105.027 100.773C104.372 99.176 102.547 98.4118 100.949 99.0674C99.3527 99.7217 98.5898 101.548 99.2441 103.145L110.435 130.422C110.931 131.632 112.097 132.362 113.329 132.362C113.723 132.362 114.124 132.288 114.513 132.128C116.109 131.473 116.873 129.647 116.218 128.051Z" fill="currentColor"/>
</symbol><symbol id="icon-4" viewBox="0 0 160 160">
<path d="M2.51532 89.9719C3.79188 90.2319 5.13563 89.6307 5.80282 88.5147C6.46469 87.4075 6.37032 85.9797 5.57157 84.9672C4.74 83.9135 3.28063 83.5122 2.02563 83.9844C0.821879 84.4372 0.00187934 85.6232 4.34014e-06 86.9094C-0.00249566 88.3853 1.07532 89.6797 2.51532 89.9719Z" fill="currentColor"/>
<path d="M121.968 73.231C116.079 52.5984 97.1926 38.3022 75.5648 38.3022L75.3661 38.3034C72.3514 38.3381 69.7508 40.1431 67.822 41.7119C66.9611 42.4122 66.0161 42.9394 65.0279 43.2934V43.2485C65.0354 42.6941 65.0358 42.1216 65.0279 41.5334V31.9325C65.0279 25.5284 70.2379 20.3184 76.642 20.3184C78.3679 20.3184 79.767 18.9194 79.767 17.1934C79.767 15.4675 78.3679 14.0684 76.642 14.0684C70.0911 14.0684 64.3526 17.6128 61.2433 22.8847C59.8973 19.9913 58.1029 17.2534 55.7276 14.8838C43.5751 2.76095 21.4651 5.93438 20.5295 6.07532C19.1745 6.2797 18.1111 7.34251 17.9058 8.6972C17.7654 9.6222 14.6386 31.3063 26.4186 43.4988C24.0351 44.7116 21.7395 46.131 19.5514 47.75C11.3648 53.8075 5.39856 62.0969 2.29763 71.7216C1.76825 73.3644 2.67106 75.125 4.31388 75.6541C5.95544 76.1828 7.71731 75.281 8.24638 73.6378C13.8514 56.2406 29.9167 44.5519 48.2045 44.5519L48.3686 44.5528C48.812 44.5578 49.3376 44.7591 49.8567 45.0369C49.9148 45.0716 49.9742 45.1044 50.0342 45.1347C50.8798 45.616 51.6798 46.2666 52.0404 46.56C57.7554 51.2081 66.0511 51.2085 71.7658 46.5603C72.372 46.0672 74.217 44.5669 75.4204 44.5531L75.5833 44.5522C93.8439 44.5522 109.87 56.276 115.479 73.3866C95.2211 75.5128 79.3748 92.8156 79.3748 113.777C79.3748 125.442 84.2826 135.974 92.1276 143.388C86.0167 147.517 80.0583 148.125 74.9317 148.125L74.6023 148.121C74.5389 148.119 74.3917 148.12 74.167 148.128C69.1636 148.308 65.2536 147.429 62.8551 146.661C62.2354 146.463 61.5701 146.463 60.9504 146.661C58.5523 147.429 54.6433 148.308 49.6383 148.128C49.4139 148.12 49.2661 148.119 49.2051 148.121L48.8742 148.125C42.2108 148.125 28.3458 148.125 16.472 124.169C12.7904 116.741 9.78075 108.26 7.99763 100.289C7.62106 98.605 5.95013 97.5447 4.26575 97.9219C2.58138 98.2988 1.52169 99.9694 1.89825 101.654C3.78763 110.099 6.9745 119.081 10.8717 126.944C22.9226 151.257 37.5111 154.375 48.8742 154.375H49.0792C49.1054 154.375 49.1317 154.375 49.1579 154.374L49.3001 154.37L49.4167 154.374C53.7329 154.528 58.0276 154.02 61.9029 152.903C65.3267 153.89 69.077 154.401 72.8808 154.401C73.3826 154.401 73.8858 154.392 74.3889 154.374L74.5051 154.37L74.6473 154.374C74.6736 154.375 74.7001 154.375 74.7264 154.375H74.9314C81.0992 154.375 89.1095 153.559 97.182 147.454C103.613 151.829 111.359 154.386 119.687 154.386C141.915 154.386 159.999 136.169 159.999 113.776C160 92.155 143.139 74.426 121.968 73.231ZM53.4829 39.9166L38.6389 22.6559C37.5133 21.3472 35.5401 21.1988 34.2317 22.3244C32.9233 23.4497 32.7745 25.4228 33.8998 26.7313L44.0061 38.4828C40.1479 38.815 36.3798 39.6031 32.7589 40.8281C32.1904 40.3763 31.652 39.8978 31.1523 39.3997C23.3067 31.5722 23.4383 17.5881 23.8464 12.0172C29.432 11.6094 43.4611 11.4753 51.3136 19.3088C57.8989 25.8781 58.8545 36.8203 58.7717 43.291C57.7861 42.9366 56.8429 42.4103 55.9842 41.7116C55.2445 41.1103 54.4061 40.4744 53.4829 39.9166ZM49.3451 154.369L49.3654 154.369C49.3595 154.369 49.3526 154.369 49.3451 154.369ZM74.4423 154.369L74.4601 154.369C74.4536 154.369 74.4476 154.369 74.4423 154.369ZM119.687 148.137C100.905 148.137 85.6251 132.723 85.6251 113.777C85.6251 94.8306 100.905 79.4166 119.687 79.4166C138.469 79.4166 153.75 94.8303 153.75 113.777C153.75 132.723 138.469 148.137 119.687 148.137Z" fill="currentColor"/>
<path d="M134.621 103.057H130.343V98.7147C130.343 94.8863 127.242 91.7716 123.43 91.7716H115.944C112.132 91.7716 109.031 94.8863 109.031 98.7147V103.057H104.753C100.941 103.057 97.8398 106.172 97.8398 110.001V117.553C97.8398 121.381 100.941 124.496 104.753 124.496H109.031V128.838C109.031 132.667 112.132 135.782 115.944 135.782H123.43C127.242 135.782 130.343 132.667 130.343 128.838V124.496H134.621C138.433 124.496 141.535 121.382 141.535 117.553V110.001C141.535 106.172 138.433 103.057 134.621 103.057ZM135.285 117.553C135.285 117.935 134.987 118.246 134.621 118.246H127.218C125.492 118.246 124.093 119.645 124.093 121.371V128.838C124.093 129.221 123.796 129.532 123.43 129.532H115.944C115.578 129.532 115.281 129.221 115.281 128.838V121.371C115.281 119.645 113.882 118.246 112.156 118.246H104.753C104.387 118.246 104.09 117.935 104.09 117.553V110C104.09 109.618 104.387 109.307 104.753 109.307H112.156C113.882 109.307 115.281 107.908 115.281 106.182V98.7144C115.281 98.3322 115.578 98.0213 115.944 98.0213H123.43C123.796 98.0213 124.093 98.3322 124.093 98.7144V106.182C124.093 107.908 125.492 109.307 127.218 109.307H134.621C134.987 109.307 135.285 109.618 135.285 110V117.553Z" fill="currentColor"/>
</symbol><symbol id="icon-5" viewBox="0 0 160 160">
<path d="M115 120H123.965C125.414 120.004 126.851 119.72 128.19 119.165C129.529 118.611 130.745 117.796 131.768 116.768C132.237 116.299 132.5 115.663 132.5 115C132.5 114.337 132.237 113.701 131.768 113.232C131.299 112.763 130.663 112.5 130 112.5C129.337 112.5 128.701 112.763 128.232 113.232C127.673 113.794 127.008 114.24 126.275 114.543C125.543 114.847 124.758 115.002 123.965 115H115C114.337 115 113.701 115.263 113.232 115.732C112.763 116.201 112.5 116.837 112.5 117.5C112.5 118.163 112.763 118.799 113.232 119.268C113.701 119.737 114.337 120 115 120Z" fill="currentColor"/>
<path d="M122.5 80C120.522 80 118.589 80.5865 116.944 81.6853C115.3 82.7841 114.018 84.3459 113.261 86.1732C112.504 88.0004 112.306 90.0111 112.692 91.9509C113.078 93.8907 114.03 95.6725 115.429 97.0711C116.827 98.4696 118.609 99.422 120.549 99.8079C122.489 100.194 124.5 99.9957 126.327 99.2388C128.154 98.4819 129.716 97.2002 130.815 95.5557C131.914 93.9112 132.5 91.9778 132.5 90C132.497 87.3487 131.443 84.8069 129.568 82.9322C127.693 81.0575 125.151 80.003 122.5 80ZM122.5 95C121.511 95 120.544 94.7068 119.722 94.1574C118.9 93.6079 118.259 92.827 117.881 91.9134C117.502 90.9998 117.403 89.9944 117.596 89.0245C117.789 88.0546 118.265 87.1637 118.964 86.4645C119.664 85.7652 120.555 85.289 121.525 85.0961C122.494 84.9031 123.5 85.0022 124.413 85.3806C125.327 85.759 126.108 86.3999 126.657 87.2221C127.207 88.0444 127.5 89.0111 127.5 90C127.498 91.3256 126.971 92.5965 126.034 93.5338C125.096 94.4711 123.826 94.9984 122.5 95Z" fill="currentColor"/>
<path d="M147.5 67.5C146.017 67.5 144.567 67.9399 143.333 68.764C142.1 69.5881 141.139 70.7594 140.571 72.1299C140.003 73.5003 139.855 75.0083 140.144 76.4632C140.434 77.918 141.148 79.2544 142.197 80.3033C143.246 81.3522 144.582 82.0665 146.037 82.3559C147.492 82.6453 149 82.4967 150.37 81.9291C151.741 81.3614 152.912 80.4001 153.736 79.1668C154.56 77.9334 155 76.4834 155 75C154.998 73.0116 154.207 71.1052 152.801 69.6992C151.395 68.2931 149.488 67.5022 147.5 67.5ZM147.5 77.5C147.006 77.5 146.522 77.3534 146.111 77.0787C145.7 76.804 145.38 76.4135 145.19 75.9567C145.001 75.4999 144.952 74.9972 145.048 74.5123C145.145 74.0273 145.383 73.5819 145.732 73.2322C146.082 72.8826 146.527 72.6445 147.012 72.548C147.497 72.4516 148 72.5011 148.457 72.6903C148.914 72.8795 149.304 73.1999 149.579 73.6111C149.853 74.0222 150 74.5055 150 75C149.999 75.6628 149.736 76.2983 149.267 76.7669C148.798 77.2356 148.163 77.4992 147.5 77.5Z" fill="currentColor"/>
<path d="M122.5 45C120.522 45 118.589 45.5865 116.944 46.6853C115.3 47.7841 114.018 49.3459 113.261 51.1732C112.504 53.0004 112.306 55.0111 112.692 56.9509C113.078 58.8907 114.03 60.6725 115.429 62.0711C116.827 63.4696 118.609 64.422 120.549 64.8079C122.489 65.1937 124.5 64.9957 126.327 64.2388C128.154 63.4819 129.716 62.2002 130.815 60.5557C131.914 58.9112 132.5 56.9778 132.5 55C132.497 52.3487 131.443 49.8069 129.568 47.9322C127.693 46.0575 125.151 45.003 122.5 45ZM122.5 60C121.511 60 120.544 59.7068 119.722 59.1573C118.9 58.6079 118.259 57.8271 117.881 56.9134C117.502 55.9998 117.403 54.9945 117.596 54.0245C117.789 53.0546 118.265 52.1637 118.964 51.4645C119.664 50.7652 120.555 50.289 121.525 50.0961C122.494 49.9031 123.5 50.0022 124.413 50.3806C125.327 50.759 126.108 51.3999 126.657 52.2221C127.207 53.0444 127.5 54.0111 127.5 55C127.498 56.3256 126.971 57.5965 126.034 58.5338C125.096 59.4711 123.826 59.9984 122.5 60Z" fill="currentColor"/>
<path d="M21.875 155H48.125C49.7967 155.001 51.4495 154.647 52.9741 153.961C53.205 154.282 53.5092 154.544 53.8615 154.725C54.2138 154.906 54.604 155 55 155H142.5C143.058 155 143.599 154.814 144.039 154.47C144.478 154.127 144.79 153.647 144.925 153.106L146.952 145H150C150.663 145 151.299 144.737 151.768 144.268C152.237 143.799 152.5 143.163 152.5 142.5V132.5C152.5 131.837 152.237 131.201 151.768 130.732C151.299 130.263 150.663 130 150 130H143.668C145.603 127.844 146.871 125.174 147.319 122.312C147.768 119.451 147.378 116.521 146.196 113.876C145.015 111.231 143.093 108.986 140.662 107.411C138.231 105.835 135.396 104.998 132.5 105H107.5V57.1875C107.494 53.01 105.969 48.9773 103.209 45.8413C100.449 42.7054 96.6429 40.6804 92.5 40.1441V32.5C92.5 31.837 92.2366 31.2011 91.7678 30.7322C91.2989 30.2634 90.663 30 90 30V10C90 9.33696 89.7366 8.70107 89.2678 8.23223C88.7989 7.76339 88.163 7.5 87.5 7.5H63.125C61.6337 7.50174 60.204 8.09493 59.1494 9.14944C58.0949 10.204 57.5017 11.6337 57.5 13.125V17.5C57.5 18.163 57.7634 18.7989 58.2322 19.2678C58.7011 19.7366 59.337 20 60 20H70V30C69.337 30 68.7011 30.2634 68.2322 30.7322C67.7634 31.2011 67.5 31.837 67.5 32.5V40.1441C63.3571 40.6804 59.5507 42.7054 56.7908 45.8413C54.0309 48.9773 52.5058 53.01 52.5 57.1875V83.3387C51.1081 82.7841 49.6233 82.4995 48.125 82.5C47.2965 82.4991 46.5021 82.1696 45.9163 81.5837C45.3304 80.9978 45.0009 80.2035 45 79.375V77.5C45.663 77.5 46.2989 77.2366 46.7678 76.7678C47.2366 76.2989 47.5 75.663 47.5 75V65C47.5 64.337 47.2366 63.7011 46.7678 63.2322C46.2989 62.7634 45.663 62.5 45 62.5H25C24.337 62.5 23.7011 62.7634 23.2322 63.2322C22.7634 63.7011 22.5 64.337 22.5 65V75C22.5 75.663 22.7634 76.2989 23.2322 76.7678C23.7011 77.2366 24.337 77.5 25 77.5V79.375C24.9991 80.2035 24.6696 80.9978 24.0837 81.5837C23.4979 82.1696 22.7035 82.4991 21.875 82.5C18.7266 82.5036 15.7083 83.7558 13.482 85.982C11.2558 88.2083 10.0036 91.2266 10 94.375V143.125C10.0036 146.273 11.2558 149.292 13.482 151.518C15.7083 153.744 18.7266 154.996 21.875 155ZM57.5 87.0994V80H82.5V115H60V94.375C60.0019 91.7388 59.1218 89.1777 57.5 87.0994ZM140.548 150H107.5V145H141.798L140.548 150ZM147.5 140H107.5V135H147.5V140ZM132.5 110C135.152 110 137.696 111.054 139.571 112.929C141.446 114.804 142.5 117.348 142.5 120C142.5 122.652 141.446 125.196 139.571 127.071C137.696 128.946 135.152 130 132.5 130H107.5V110H132.5ZM72.5 35H87.5V40H72.5V35ZM62.5 15V13.125C62.5 12.9592 62.5658 12.8003 62.6831 12.6831C62.8003 12.5658 62.9592 12.5 63.125 12.5H70V15H62.5ZM75 12.5H85V30H75V12.5ZM69.6875 45H90.3125C93.5437 45.0036 96.6415 46.2888 98.9263 48.5737C101.211 50.8585 102.496 53.9563 102.5 57.1875V150H57.7981C59.232 147.994 60.002 145.59 60 143.125V120H85C85.663 120 86.2989 119.737 86.7678 119.268C87.2366 118.799 87.5 118.163 87.5 117.5V77.5C87.5 76.837 87.2366 76.2011 86.7678 75.7322C86.2989 75.2634 85.663 75 85 75H57.5V57.1875C57.5036 53.9563 58.7888 50.8585 61.0737 48.5737C63.3585 46.2888 66.4563 45.0036 69.6875 45ZM27.5 67.5H42.5V72.5H27.5V67.5ZM21.875 87.5C24.0291 87.4976 26.0944 86.6408 27.6176 85.1176C29.1408 83.5944 29.9976 81.5291 30 79.375V77.5H40V79.375C40.0024 81.5291 40.8592 83.5944 42.3824 85.1176C43.9056 86.6408 45.9709 87.4976 48.125 87.5C49.9477 87.5021 51.6952 88.2271 52.9841 89.5159C54.2729 90.8048 54.9979 92.5523 55 94.375V143.125C54.9979 144.948 54.2729 146.695 52.9841 147.984C51.6952 149.273 49.9477 149.998 48.125 150H21.875C20.0523 149.998 18.3048 149.273 17.0159 147.984C15.7271 146.695 15.0021 144.948 15 143.125V137.5H37.5C38.163 137.5 38.7989 137.237 39.2678 136.768C39.7366 136.299 40 135.663 40 135V100C40 99.337 39.7366 98.7011 39.2678 98.2322C38.7989 97.7634 38.163 97.5 37.5 97.5H15V94.375C15.0021 92.5523 15.7271 90.8048 17.0159 89.5159C18.3048 88.2271 20.0523 87.5021 21.875 87.5ZM15 102.5H35V132.5H15V102.5Z" fill="currentColor"/>
<path d="M95 122.5C95.663 122.5 96.2989 122.237 96.7678 121.768C97.2366 121.299 97.5 120.663 97.5 120V117.5C97.5 116.837 97.2366 116.201 96.7678 115.732C96.2989 115.263 95.663 115 95 115C94.337 115 93.7011 115.263 93.2322 115.732C92.7634 116.201 92.5 116.837 92.5 117.5V120C92.5 120.663 92.7634 121.299 93.2322 121.768C93.7011 122.237 94.337 122.5 95 122.5Z" fill="currentColor"/>
<path d="M95 140C95.663 140 96.2989 139.737 96.7678 139.268C97.2366 138.799 97.5 138.163 97.5 137.5V130C97.5 129.337 97.2366 128.701 96.7678 128.232C96.2989 127.763 95.663 127.5 95 127.5C94.337 127.5 93.7011 127.763 93.2322 128.232C92.7634 128.701 92.5 129.337 92.5 130V137.5C92.5 138.163 92.7634 138.799 93.2322 139.268C93.7011 139.737 94.337 140 95 140Z" fill="currentColor"/>
</symbol><symbol id="icon-6" viewBox="0 0 122 150">
<path d="M13.4299 35.7079H90.0301C91.2602 35.7079 92.2569 34.7109 92.2569 33.4811V7.29425C92.2569 3.27214 88.9845 0 84.9623 0H31.5408C30.3107 0 29.314 0.996991 29.314 2.22675C29.314 3.45651 30.3107 4.4535 31.5408 4.4535H84.9626C86.5291 4.4535 87.8034 5.7278 87.8034 7.29425V31.2544H15.6566V7.29425C15.6566 5.7278 16.9309 4.4535 18.4971 4.4535H24.1177C25.3477 4.4535 26.3444 3.45651 26.3444 2.22675C26.3444 0.996991 25.3477 0 24.1177 0H18.4971C14.475 0 11.2031 3.27214 11.2031 7.29425V33.4811C11.2031 34.7109 12.1998 35.7079 13.4299 35.7079Z" fill="currentColor"/>
<path d="M73.7013 145.481H13.5401C8.52965 145.481 4.4535 141.405 4.4535 136.394V54.2956C4.4535 49.2851 8.52965 45.209 13.5401 45.209H89.9201C94.9306 45.209 99.0067 49.2851 99.0067 54.2956V67.6249C99.0067 68.8547 100.003 69.8517 101.233 69.8517C102.464 69.8517 103.46 68.8547 103.46 67.6249V54.2956C103.46 46.8294 97.3859 40.7554 89.9201 40.7554H13.5401C6.07428 40.7554 0 46.8294 0 54.2956V136.394C0 143.861 6.07428 149.935 13.5401 149.935H73.7013C74.9314 149.935 75.9281 148.938 75.9281 147.708C75.9281 146.478 74.9311 145.481 73.7013 145.481Z" fill="currentColor"/>
<path d="M101.233 72.821C100.003 72.821 99.0059 73.818 99.0059 75.0478V121.067C99.0059 122.297 100.003 123.294 101.233 123.294C102.463 123.294 103.459 122.297 103.459 121.067V75.0478C103.459 73.8177 102.463 72.821 101.233 72.821Z" fill="currentColor"/>
<path d="M18.625 23.3866C18.625 24.6163 19.6217 25.6133 20.8518 25.6133H82.607C83.8371 25.6133 84.8337 24.6163 84.8337 23.3866C84.8337 22.1568 83.8371 21.1598 82.607 21.1598H20.8518C19.6217 21.1598 18.625 22.1568 18.625 23.3866Z" fill="currentColor"/>
<path d="M34.211 71.9773C45.0978 71.9773 53.9549 80.8344 53.9549 91.7211C53.9549 92.9509 54.9516 93.9479 56.1817 93.9479C57.4117 93.9479 58.4084 92.9509 58.4084 91.7211C58.4084 78.3787 47.5534 67.5238 34.211 67.5238C20.8686 67.5238 10.0137 78.3787 10.0137 91.7211C10.0137 103.814 19.0412 114.126 31.0131 115.709C31.112 115.722 31.2103 115.728 31.3076 115.728C32.4077 115.728 33.3643 114.913 33.5124 113.793C33.6736 112.574 32.8156 111.455 31.5965 111.294C21.8312 110.003 14.4675 101.589 14.4675 91.7211C14.4672 80.8344 23.3243 71.9773 34.211 71.9773Z" fill="currentColor"/>
<path d="M54.3266 134.613C65.0768 134.613 73.8229 125.867 73.8229 115.117C73.8229 104.367 65.0768 95.6208 54.3266 95.6208C43.5762 95.6208 34.8301 104.367 34.8301 115.117C34.8301 125.867 43.5762 134.613 54.3266 134.613ZM54.3266 100.074C62.6214 100.074 69.3694 106.823 69.3694 115.117C69.3694 123.412 62.6211 130.16 54.3266 130.16C46.0321 130.16 39.2836 123.412 39.2836 115.117C39.2836 106.823 46.0318 100.074 54.3266 100.074Z" fill="currentColor"/>
<path d="M75.5852 105.482C75.8153 105.482 76.0496 105.446 76.2806 105.37C85.7701 102.253 92.1457 93.4425 92.1457 83.4474C92.1457 70.7255 81.7958 60.3758 69.0739 60.3758C62.027 60.3758 55.4578 63.5349 51.0506 69.0427C50.2822 70.0028 50.4381 71.4042 51.3982 72.1726C52.3581 72.941 53.7595 72.7854 54.5282 71.8252C58.0853 67.3794 63.3871 64.8296 69.0739 64.8296C79.3401 64.8296 87.6922 73.1817 87.6922 83.4477C87.6922 91.5141 82.5478 98.624 74.8908 101.14C73.7222 101.524 73.0865 102.782 73.4704 103.95C73.778 104.887 74.6494 105.482 75.5852 105.482Z" fill="currentColor"/>
<path d="M109.769 125.845H87.5446C80.9033 125.845 75.5 131.249 75.5 137.89C75.5 144.531 80.9033 149.935 87.5446 149.935H109.769C116.411 149.935 121.814 144.531 121.814 137.89C121.814 131.248 116.411 125.845 109.769 125.845ZM79.9532 137.89C79.9532 133.704 83.3586 130.299 87.5443 130.299H96.4303V145.481H87.5443C83.3586 145.481 79.9532 142.076 79.9532 137.89ZM109.769 145.481H100.884V130.299H109.769C113.955 130.299 117.361 133.704 117.361 137.89C117.361 142.076 113.955 145.481 109.769 145.481Z" fill="currentColor"/>
<path d="M40.0651 96.1728C40.0651 94.5467 39.3172 93.7896 37.7116 93.7896C35.7633 93.7896 35.4602 94.9992 35.4207 95.5092C35.2871 96.9845 34.992 98.2057 32.729 98.2057C30.7249 98.2057 29.8313 97.2476 29.8313 95.0992V86.4167C29.8313 84.268 30.7065 83.3099 32.6693 83.3099C34.4724 83.3099 35.3207 84.0786 35.4186 85.7911C35.4359 86.2029 35.6541 87.547 37.7416 87.547C39.3484 87.547 40.0651 86.8118 40.0651 85.1637C40.0651 81.5469 36.975 79.0212 32.55 79.0212C27.9376 79.0212 25.1836 81.7859 25.1836 86.417V95.0995C25.1836 99.7997 27.8578 102.495 32.52 102.495C36.9625 102.495 40.0651 99.895 40.0651 96.1728Z" fill="currentColor"/>
<path d="M72.8229 71.7653H67.3926C66.1497 71.7653 65.248 72.5167 65.248 73.5517V93.3036C65.248 94.305 66.1699 95.0603 67.3926 95.0603H73.4493C77.757 95.0603 80.1293 92.5714 80.1293 88.0523V87.4855C80.1293 85.0563 79.4001 83.4438 77.7968 82.4168C78.9518 81.3777 79.5922 79.7171 79.5922 77.6691C79.5922 73.7518 77.3147 71.7653 72.8229 71.7653ZM69.8654 76.0546H72.6141C74.68 76.0546 74.9451 77.1887 74.9451 78.1765C74.9451 79.8104 74.2658 80.5075 72.6741 80.5075H69.8657V76.0546H69.8654ZM75.4822 87.8139C75.4822 89.8592 74.6714 90.7713 72.8528 90.7713H69.8654V84.4981H72.8528C75.0354 84.4981 75.4822 85.6329 75.4822 87.3365V87.8139Z" fill="currentColor"/>
<path d="M54.0264 125.573H58.7673C63.0207 125.573 65.4597 123.153 65.4597 118.934V111.301C65.4597 107.082 63.0204 104.662 58.7673 104.662H54.0264C52.9471 104.662 52.1016 105.354 52.1016 106.239V123.996C52.1013 124.88 52.9468 125.573 54.0264 125.573ZM56.273 108.512H58.7673C60.4872 108.512 61.2882 109.398 61.2882 111.3V118.933C61.2882 120.836 60.4872 121.722 58.7673 121.722H56.273V108.512Z" fill="currentColor"/>
</symbol><symbol id="icon-7" viewBox="0 0 160 160">
<path d="M79.6388 51.6206C82.7104 53.0902 86.2354 53.0905 89.3076 51.6206C100.242 46.3905 109.553 36.8839 109.821 24.5997C109.857 22.9729 109.647 21.3609 109.198 19.8076C108.839 18.5643 107.539 17.8472 106.296 18.2068C105.053 18.5662 104.336 19.8654 104.696 21.1091C105.013 22.2058 105.161 23.346 105.136 24.4972C104.841 37.9591 91.398 45.4246 87.285 47.3923C85.4983 48.2472 83.4484 48.2472 81.6611 47.3923C77.548 45.4246 64.1046 37.9591 63.8109 24.4972C63.6756 18.3052 68.5548 13.1129 74.7196 13.0917C77.3599 13.0804 79.9106 14.0253 81.9061 15.7461C83.3697 17.0088 85.577 17.0085 87.04 15.7461C90.2878 12.9448 94.913 12.2917 98.7755 14.1147C99.9451 14.6668 101.342 14.1663 101.895 12.9957C102.448 11.8252 101.946 10.4285 100.776 9.87602C95.4414 7.3575 89.0998 8.11806 84.473 11.7877C81.7155 9.60011 78.2927 8.40397 74.7577 8.40397C74.7395 8.40397 74.7211 8.40397 74.703 8.40397C65.8807 8.43459 58.9329 15.8199 59.125 24.599C59.3941 36.9167 68.747 46.4105 79.6388 51.6206ZM146.084 53.2914C142.727 49.9348 137.296 48.66 131.187 49.7933C125.418 50.8632 119.618 53.9685 115.274 58.3125C106.925 66.6611 106.762 76.4655 114.836 84.5395C122.9 92.6028 132.703 92.4606 141.063 84.1017C145.407 79.7574 148.512 73.9573 149.582 68.1885C150.716 62.0778 149.441 56.648 146.085 53.2914C146.084 53.2914 146.084 53.2914 146.084 53.2914ZM137.749 80.7876C129.469 89.0672 122.521 85.596 118.151 81.2254C113.78 76.8552 110.308 69.9074 118.588 61.6269C125.961 54.2544 137.768 51.6034 142.77 56.6058C147.694 61.5303 145.254 73.2821 137.749 80.7876ZM153.155 46.2211C142.332 35.399 121.747 37.6988 108.204 51.2422C99.5057 59.9405 96.3348 71.0751 101.122 82.0085L88.1568 94.9742C85.4917 93.8677 82.421 94.0155 79.8528 95.44L68.9323 84.5195C74.224 76.2496 73.2641 65.1069 66.0428 57.8857L41.8797 33.7226C38.9672 30.8097 34.0964 30.7841 31.1889 33.9788C28.5316 36.8985 28.6828 41.4188 31.5338 44.2697L46.4278 59.1634C47.552 60.2876 47.552 62.1169 46.4281 63.2411C45.3032 64.3657 43.474 64.3651 42.3503 63.2414L27.4664 48.3575C24.5248 45.4159 19.7396 45.4165 16.798 48.3575C13.857 51.2988 13.857 56.0846 16.798 59.0256L31.6816 73.9092C32.8059 75.0335 32.8059 76.8627 31.6816 77.987C30.5558 79.1134 28.7306 79.114 27.6042 77.987L12.7102 63.093C9.85957 60.242 5.33936 60.0908 2.41931 62.7477C-0.772271 65.6525 -0.752898 70.5226 2.16308 73.4386L26.3259 97.6017C33.534 104.809 44.6639 105.8 52.96 100.491L62.8269 110.358L53.2181 118.96C50.8817 121.051 49.2075 123.746 48.3763 126.752C48.0314 128 48.7629 129.291 50.0106 129.636C51.2598 129.981 52.5491 129.249 52.8941 128.002C53.4856 125.863 54.6789 123.944 56.3444 122.453L81.2368 100.17C83.1625 98.446 86.1023 98.5273 87.9296 100.355L99.0211 111.446C100.849 113.273 100.93 116.213 99.2064 118.139L76.9231 143.032C72.5004 147.972 64.7961 148.259 60.0359 143.498C56.3956 139.749 55.2995 139.054 54.1261 137.103C53.4587 135.994 52.0188 135.636 50.9099 136.303C49.8009 136.97 49.4428 138.41 50.1096 139.519C51.7076 142.176 53.2781 143.236 56.7215 146.813C63.3309 153.422 74.1456 153.162 80.415 146.158L84.1649 141.969L88.0024 146.256C94.1359 153.107 104.761 153.407 111.269 146.899L115.339 142.829C121.824 136.344 121.581 125.726 114.696 119.563L104.861 110.759L117.367 98.2538C128.367 103.071 139.506 99.7993 148.133 91.1723C160.769 78.5357 164.659 57.7254 153.155 46.2211ZM29.6406 94.288L5.47747 70.1249C4.39132 69.0384 4.42257 67.2629 5.57465 66.2146C6.62924 65.2544 8.34471 65.3556 9.39586 66.4077L24.2898 81.3017C27.2483 84.2601 32.0372 84.2608 34.9963 81.3017C37.9476 78.3501 37.9476 73.5471 34.9963 70.5954L20.1127 55.7118C18.9987 54.5982 18.9987 52.7858 20.1127 51.6722C21.226 50.5582 23.039 50.5588 24.152 51.6722L39.0359 66.5558C41.9879 69.5071 46.7902 69.5071 49.7425 66.5558C52.6938 63.6042 52.6938 58.8012 49.7425 55.8496L34.8485 40.9557C33.7886 39.8958 33.7021 38.1815 34.6557 37.1338C35.7206 35.9639 37.4998 35.9705 38.5657 37.037L62.7288 61.2001C69.2363 67.7076 69.2363 78.296 62.7288 84.8035L53.244 94.288C46.7368 100.795 36.1475 100.795 29.6406 94.288ZM66.3247 107.228L56.6287 97.5314L65.9722 88.1882L76.185 98.401L66.3247 107.228ZM104.881 117.066L111.57 123.054C116.404 127.381 116.648 134.891 112.025 139.514L107.954 143.584C103.303 148.236 95.7954 147.934 91.4946 143.129L87.3103 138.455L102.698 121.265C103.804 120.03 104.529 118.581 104.881 117.066ZM101.597 107.394L91.9814 97.7783L103.451 86.309C105.92 90.094 109.278 93.4527 113.067 95.925L101.597 107.394ZM155.06 67.5814C154.114 74.9054 150.381 82.2959 144.819 87.8576C133.913 98.7638 120.751 97.9667 111.08 88.2957C101.383 78.5991 100.637 65.4378 111.518 54.5563C122.624 43.4501 140.513 40.2076 149.84 49.5352C154.154 53.8485 156.007 60.2573 155.06 67.5814Z" fill="currentColor"/>
</symbol><symbol id="icon-8" viewBox="0 0 146 170">
<path d="M32.2374 150.644C33.2699 151.327 33.56 152.726 32.8689 153.758C32.1863 154.799 30.7869 155.081 29.7461 154.398C27.3231 152.794 25.2667 150.806 23.6543 148.579C22.0075 146.301 20.8132 143.759 20.1476 141.105C20.0366 140.653 19.6016 139.535 20.011 138.443C20.3948 137.402 21.2824 136.882 22.1354 136.301C25.0364 134.313 28.4834 133.051 32.1351 132.633C35.7443 132.223 39.5667 132.641 43.2695 134.015C45.8972 134.996 48.2607 136.37 50.2915 138.042C50.0525 137.445 49.7966 136.856 49.5405 136.276C46.1447 128.648 41.1108 122.36 35.4455 116.285C31.401 120.039 26.077 122.496 19.9851 123.077C15.5484 123.495 10.5399 123.077 6.4701 121.421C2.65618 119.869 0.198854 117.369 0.0113335 114.288C-0.159331 111.473 1.60691 108.913 4.66985 106.968C6.46167 105.825 8.73961 104.869 11.3333 104.204C9.7037 102.07 8.49219 99.9117 7.78395 97.9068C6.58087 94.4938 6.76869 91.3968 8.63727 89.2808C10.5143 87.1648 13.5688 86.6017 17.1013 87.3867C19.1745 87.8475 21.4696 88.786 23.7734 90.151C24.1319 87.4803 24.7974 85.1 25.7104 83.189C27.0669 80.3391 29.4048 77.6771 32.7835 77.6687C35.7185 77.6687 38.3549 79.7675 40.2834 83.2317C42.0069 86.3289 43.2184 90.6374 43.517 95.4154H43.5254V95.5861V95.5945H43.5338V95.6117C43.8923 102.19 41.9981 108.197 38.466 112.923C40.1211 114.69 41.6824 116.43 43.1585 118.179C43.5597 115.79 44.5066 113.418 46.0423 111.277C47.6123 109.075 49.6172 107.369 51.8272 106.217C54.131 105.005 56.6651 104.4 59.1564 104.451C60.0353 104.468 60.5386 104.425 61.298 104.963C62.1769 105.594 62.3304 106.362 62.5778 107.079C63.3628 109.365 63.5847 111.857 63.2006 114.331C62.8252 116.788 61.8612 119.237 60.2827 121.447C58.5932 123.81 56.4005 125.602 53.9943 126.754C52.8 127.325 51.5542 127.743 50.283 127.991C51.5289 130.056 52.6465 132.188 53.6533 134.441C57.4672 143.007 59.4637 153.109 59.4637 166.966C59.4637 168.211 58.4569 169.218 57.2114 169.218C55.9655 169.218 54.9503 168.211 54.9503 166.966C54.9503 162.836 54.7712 159.065 54.4127 155.592C52.8599 156.471 51.1875 157.162 49.43 157.649C46.529 158.451 43.4062 158.681 40.2409 158.28C39.0038 158.127 38.1334 157 38.2872 155.772C38.4491 154.535 39.567 153.664 40.8041 153.818C43.3638 154.142 45.8891 153.955 48.2357 153.306C50.1383 152.777 51.9217 151.949 53.5001 150.849C52.843 148.297 51.5632 145.874 49.7545 143.784C47.7068 141.403 44.9681 139.458 41.7001 138.247C38.6712 137.129 35.5568 136.779 32.6305 137.112C29.6612 137.453 26.88 138.486 24.5506 140.115C25.0798 142.171 26.018 144.151 27.3065 145.934C28.611 147.735 30.275 149.347 32.2374 150.644ZM68.6865 63.2492C69.8384 63.7187 70.3932 65.0326 69.9236 66.1845C69.4544 67.3364 68.1405 67.8909 66.9886 67.4303C64.0963 66.2528 61.6303 64.2307 59.8984 61.6623C58.2176 59.171 57.2448 56.1761 57.2448 52.9596C57.2448 48.6425 58.9942 44.7431 61.8181 41.9188C64.6423 39.0949 68.5415 37.3458 72.8586 37.3458C77.1674 37.3458 81.0665 39.0949 83.8995 41.9188C86.7237 44.7431 88.4725 48.6422 88.4725 52.9596C88.4725 56.1764 87.4912 59.171 85.8105 61.6623C84.087 64.2304 81.6212 66.2528 78.7202 67.4303C77.5683 67.8912 76.2545 67.3364 75.7852 66.1845C75.316 65.0326 75.8788 63.7187 77.031 63.2492C79.0959 62.4046 80.8534 60.9713 82.0733 59.1538C83.2592 57.3876 83.9503 55.2544 83.9503 52.9594C83.9503 49.8964 82.7132 47.1146 80.6996 45.1097C78.6943 43.1044 75.9216 41.8589 72.8583 41.8589C69.7867 41.8589 67.0139 43.1047 65.0087 45.1097C62.995 47.1146 61.7579 49.8961 61.7579 52.9594C61.7579 55.2544 62.449 57.3876 63.6349 59.1538C64.8642 60.971 66.6133 62.4046 68.6865 63.2492ZM79.0363 18.8562C81.0243 21.5778 82.2018 25.0507 82.8162 27.2603C83.072 28.1648 84.5481 27.4397 85.0685 27.1496C86.9455 26.1003 89.9404 24.8033 92.9949 24.4364C95.4435 24.1378 97.8241 24.5047 99.5648 26.1515C101.425 27.8918 101.706 30.7245 101.357 33.1051C100.887 36.339 99.215 39.7688 98.1059 41.7313C97.2868 43.1731 98.4984 43.0283 99.01 43.1646C101.135 43.745 104.599 44.9992 107.133 46.9274C109.155 48.4634 110.631 50.434 110.699 52.9001C110.767 55.4341 108.959 57.6269 107.039 59.0687C104.428 61.014 100.836 62.2938 98.6687 62.8826C97.1159 63.3091 97.9776 63.9833 98.3018 64.5378C99.3854 66.4403 100.938 69.7853 101.356 72.9334C101.698 75.4504 101.348 77.8821 99.6671 79.6739C97.918 81.5254 95.1025 81.8068 92.7219 81.457C89.4796 80.9878 86.0498 79.3242 84.0876 78.2147C82.7394 77.4556 82.9188 78.1464 82.6627 79.1448C82.0739 81.2608 80.8025 84.7249 78.8828 87.2419C77.8335 88.6156 76.5792 89.7419 75.1116 90.3388V166.966C75.1116 168.212 74.1048 169.219 72.8589 169.219C71.6134 169.219 70.5979 168.212 70.5979 166.966V90.3472C69.0878 89.7416 67.8079 88.5813 66.7499 87.1561C64.7962 84.5284 63.5588 80.9363 62.9444 78.7691C62.5519 77.387 61.3404 78.3938 60.5383 78.8287C58.6784 79.8268 55.53 81.175 52.5607 81.4907C50.1632 81.755 47.8426 81.3712 46.1447 79.7672C44.3272 78.0609 44.0374 75.271 44.3528 72.9416C44.7793 69.7931 46.3237 66.4485 47.4158 64.5375C48.431 62.7372 48.192 63.1809 46.2982 62.6436C44.2249 62.0633 40.9058 60.8006 38.4657 58.898C36.5116 57.3795 35.0782 55.4341 35.0102 53.0192C34.9419 50.4767 36.7337 48.284 38.6706 46.8422C41.273 44.8969 44.8736 43.6342 47.0491 43.0367C48.5084 42.6358 47.4588 41.5179 46.9811 40.639C45.9827 38.7876 44.6433 35.6307 44.3191 32.6614C44.0633 30.264 44.4386 27.9433 46.0426 26.2451C47.7917 24.3936 50.6331 24.1291 53.005 24.4704C56.2385 24.9396 59.6856 26.5777 61.6225 27.6956C62.2624 28.0538 62.8171 27.5077 63.0389 26.7486C63.6277 24.6411 64.9072 21.1856 66.8357 18.6687C68.3714 16.655 70.3423 15.1874 72.7912 15.1106C75.3843 15.0426 77.5942 16.8769 79.0363 18.8562ZM75.4014 21.5182C74.6252 20.4518 73.7547 19.6752 72.8589 19.6156C72.0228 19.6752 71.1782 20.4091 70.4103 21.4075C68.9002 23.3784 67.8591 26.2026 67.3814 27.9517C66.7499 30.2212 66.2551 31.6377 64.9069 32.4483C63.4224 33.3356 61.8524 33.0115 59.3867 31.595C57.7742 30.6649 54.9328 29.2999 52.3732 28.933C51.0849 28.7451 49.9414 28.8135 49.2843 29.3854C48.7639 29.9825 48.67 31.0234 48.7982 32.184C49.0457 34.462 50.1377 36.996 50.9482 38.4977C51.2041 38.967 51.3064 39.1632 51.4091 39.3507C51.9551 40.3232 52.3987 41.1257 52.6377 41.9871C53.3628 44.6323 52.5011 46.2107 48.2351 47.3795C46.4177 47.8743 43.4399 48.9067 41.3666 50.4596C40.3342 51.2274 39.5748 52.0892 39.5152 52.9596C39.5664 53.7787 40.2746 54.6064 41.2387 55.3571C43.1073 56.816 45.8121 57.8313 47.5184 58.3092C49.9926 59.0003 51.5027 59.5548 52.3048 60.9968C53.1834 62.5412 52.7909 64.1708 51.3236 66.7561C50.4278 68.3429 49.148 71.082 48.8154 73.5393C48.6447 74.7764 48.7215 75.8943 49.2846 76.5342C49.8818 77.0462 50.923 77.1401 52.0833 77.0119C54.3612 76.7645 56.8869 75.6722 58.4057 74.8619C58.6104 74.7508 58.9006 74.5889 59.1648 74.4351C60.1461 73.8975 60.9482 73.4539 61.8013 73.2149C64.472 72.4555 66.076 73.2916 67.2791 77.5492C67.7995 79.3922 68.8319 82.4127 70.3676 84.4775C70.8964 85.1858 71.8948 86.2949 72.8589 86.2949C73.7803 86.2949 74.7871 85.1858 75.2991 84.5118C76.8092 82.5325 77.8416 79.6998 78.3196 77.942C78.9424 75.6978 79.4971 74.2816 80.8449 73.4969C82.3298 72.6436 83.9082 72.9422 86.314 74.2988C87.9608 75.2373 90.8106 76.6279 93.3531 76.9951C94.6245 77.1829 95.7677 77.1146 96.4332 76.5342C96.988 75.8943 97.0647 74.7767 96.894 73.5309C96.5614 71.0739 95.29 68.3432 94.3858 66.7564C93.2084 64.6919 92.594 63.301 93.0205 61.7909C93.4726 60.1357 94.8208 59.2739 97.4915 58.5401C99.2918 58.0537 102.261 57.0041 104.343 55.4516C105.375 54.675 106.143 53.8133 106.203 52.9603C106.143 52.1069 105.41 51.2623 104.411 50.5113C102.44 49.0097 99.5904 47.986 97.8244 47.4996C95.5122 46.8681 94.096 46.3305 93.311 44.9655C92.4664 43.4807 92.8077 41.9282 94.1896 39.5048C95.1281 37.8581 96.519 35.0083 96.8943 32.457C97.0822 31.1856 97.0138 30.0509 96.4335 29.3854C95.8192 28.8478 94.7356 28.7626 93.5241 28.9161C91.1435 29.1978 88.5243 30.3666 86.997 31.2284C85.9989 31.7915 84.8982 32.4826 83.7974 32.7812C81.2462 33.4979 79.6593 32.7044 78.5502 28.7199C78.0294 26.8338 76.9799 23.677 75.4014 21.5182ZM112.115 111.908C114.18 114.118 116.731 115.884 119.649 117.062C120.81 117.522 121.364 118.836 120.904 119.988C120.443 121.14 119.129 121.703 117.977 121.242C115.025 120.056 112.38 118.367 110.136 116.285C104.47 122.36 99.4365 128.648 96.0407 136.276C95.7849 136.856 95.5287 137.445 95.2897 138.042C97.3205 136.37 99.684 134.996 102.312 134.015C106.015 132.641 109.837 132.223 113.446 132.633C117.217 133.068 120.758 134.399 123.719 136.489C124.359 136.941 125.186 137.394 125.57 138.435C125.98 139.535 125.545 140.679 125.434 141.105C124.555 144.62 122.738 147.939 120.161 150.721C117.678 153.4 114.513 155.576 110.81 156.949C106.825 158.425 102.713 158.801 98.8731 158.229C96.1172 157.811 93.5063 156.924 91.1685 155.593C90.8103 159.074 90.6309 162.836 90.6309 166.966C90.6309 168.212 89.6157 169.218 88.3698 169.218C87.124 169.218 86.1175 168.212 86.1175 166.966C86.1175 153.11 88.114 143.008 91.9279 134.441C92.9347 132.189 94.0526 130.056 95.2982 127.991C94.0268 127.744 92.7812 127.334 91.5866 126.754C89.1804 125.602 86.9877 123.81 85.2982 121.447C83.7198 119.237 82.7557 116.788 82.3803 114.331C82.005 111.899 82.2097 109.451 82.9691 107.198C83.2252 106.43 83.4895 105.577 84.2829 104.963C84.8121 104.562 85.5456 104.468 86.4245 104.451C88.9158 104.4 91.4499 105.005 93.7538 106.217C95.9637 107.369 97.9686 109.075 99.5386 111.277C101.075 113.418 102.022 115.79 102.422 118.179C103.899 116.43 105.46 114.689 107.115 112.923C106.663 112.318 106.245 111.695 105.844 111.055C102.704 105.961 101.603 100.211 102.149 94.315C102.551 89.9806 103.711 86.09 105.298 83.2317C106.97 80.2368 109.752 77.3105 113.446 77.7114C116.142 78.0016 118.361 80.0321 119.871 83.1893C120.784 85.1006 121.449 87.4809 121.799 90.1513C124.111 88.7863 126.406 87.8478 128.48 87.387C132.012 86.602 135.066 87.1651 136.943 89.2811C138.812 91.3971 139 94.4941 137.797 97.9071C137.088 99.912 135.877 102.071 134.247 104.204C136.841 104.869 139.119 105.825 140.911 106.968C143.974 108.914 145.74 111.473 145.57 114.289C145.39 117.13 143.291 119.476 139.964 121.046C137.08 122.403 133.155 123.205 128.829 123.213C127.584 123.213 126.577 122.206 126.577 120.969C126.577 119.724 127.584 118.717 128.829 118.717C132.49 118.708 135.732 118.06 138.061 116.968C139.87 116.114 141.005 115.082 141.065 114.024C141.133 112.974 140.16 111.822 138.496 110.765C136.372 109.408 133.284 108.367 129.7 107.898C128.463 107.736 127.601 106.609 127.755 105.372C127.823 104.869 128.053 104.425 128.386 104.093V104.084C130.912 101.516 132.703 98.7941 133.548 96.4135C134.205 94.5452 134.264 93.0436 133.573 92.2583C132.882 91.4736 131.372 91.3541 129.444 91.7806C126.978 92.3266 124.06 93.7684 121.193 95.9698C120.212 96.729 118.804 96.5414 118.045 95.5602C117.687 95.0909 117.584 94.6304 117.575 94.0673C117.533 90.5263 116.876 87.3867 115.792 85.1256C114.973 83.4021 113.983 82.3098 112.977 82.1906C112.917 82.1906 112.849 82.1818 112.789 82.1734C111.62 82.1734 110.349 83.4021 109.231 85.4157C107.815 87.9667 106.808 91.6099 106.561 95.7224C106.288 100.287 107.26 104.775 109.675 108.691C110.383 109.835 111.202 110.918 112.115 111.908ZM33.722 111.618C33.7647 111.567 33.8071 111.524 33.8586 111.473C37.408 107.42 39.3704 101.951 39.0291 95.8675C39.0207 95.7736 39.012 95.6797 39.012 95.5945C38.7558 91.5332 37.7577 87.9411 36.35 85.4157C35.2324 83.4021 33.9609 82.1734 32.7922 82.1734C32.7326 82.1818 32.6643 82.1906 32.6047 82.1906C31.5978 82.3098 30.6082 83.4021 29.7891 85.1256C28.7227 87.3611 28.0656 90.458 28.006 93.9478C27.9889 94.5621 27.9377 95.0229 27.5368 95.5602C26.7774 96.5414 25.3696 96.729 24.3884 95.9698C21.5217 93.7684 18.6035 92.3266 16.1378 91.7806C14.2096 91.3541 12.6995 91.4736 12.0084 92.2583C11.3173 93.0433 11.3769 94.5449 12.034 96.4135C12.8614 98.7513 14.6021 101.422 17.0679 103.956C17.4775 104.374 17.7421 104.75 17.8273 105.373C17.9808 106.61 17.119 107.736 15.8819 107.898C12.2983 108.368 9.20976 109.408 7.08534 110.765C5.42143 111.823 4.44891 112.975 4.51724 114.024C4.58527 115.21 5.97617 116.354 8.16892 117.241C11.9061 118.759 14.9606 118.648 18.8684 118.648C24.9422 118.239 30.1383 115.637 33.722 111.618ZM93.5238 122.701C94.8632 123.341 96.2884 123.699 97.7046 123.759C98.1059 122.403 98.2253 120.927 98.0544 119.451C97.8325 117.539 97.1075 115.611 95.8704 113.888C94.7184 112.275 93.2679 111.038 91.6724 110.202C90.2306 109.442 88.6778 109.024 87.1334 108.956C86.6981 110.44 86.5958 112.045 86.8432 113.665C87.1162 115.448 87.816 117.232 88.9679 118.836C90.2047 120.568 91.7919 121.874 93.5238 122.701ZM47.8769 123.759C49.2934 123.7 50.7183 123.341 52.0577 122.701C53.7896 121.874 55.3768 120.568 56.6139 118.836C57.7658 117.232 58.4653 115.449 58.7386 113.666C58.986 112.045 58.8837 110.441 58.4485 108.956C56.904 109.024 55.3512 109.442 53.9094 110.202C52.3139 111.03 50.8634 112.275 49.703 113.888C48.4747 115.611 47.7493 117.54 47.5274 119.451C47.3562 120.927 47.4757 122.403 47.8769 123.759ZM92.0817 150.849C94.2405 152.359 96.7914 153.357 99.5217 153.767C102.636 154.228 105.981 153.921 109.24 152.717C112.286 151.583 114.863 149.825 116.859 147.675C118.89 145.482 120.323 142.871 121.031 140.115C118.702 138.486 115.921 137.453 112.952 137.112C110.025 136.779 106.911 137.129 103.882 138.247C100.614 139.458 97.8753 141.404 95.8276 143.784C94.0186 145.875 92.7388 148.298 92.0817 150.849Z" fill="currentColor"/>
<path d="M114.19 33.8448C114.75 33.2817 115.072 32.508 115.072 31.7167C115.072 30.9219 114.75 30.1482 114.19 29.5851C113.63 29.0254 112.853 28.7068 112.062 28.7068C111.267 28.7068 110.493 29.0254 109.934 29.5851C109.37 30.1447 109.052 30.9219 109.052 31.7167C109.052 32.508 109.37 33.284 109.934 33.8448C110.493 34.4045 111.267 34.7231 112.062 34.7231C112.853 34.7231 113.63 34.4045 114.19 33.8448Z" fill="currentColor"/>
<path d="M38.6459 27.8013C39.2056 27.2381 39.5277 26.4645 39.5277 25.6732C39.5277 24.8783 39.2056 24.1047 38.6459 23.5415C38.0862 22.9818 37.3091 22.6632 36.5178 22.6632C35.723 22.6632 34.9493 22.9818 34.3896 23.5415C33.8264 24.1012 33.5078 24.8783 33.5078 25.6732C33.5078 26.4645 33.8264 27.2405 34.3896 27.8013C34.9493 28.361 35.723 28.6796 36.5178 28.6796C37.3091 28.6796 38.0862 28.361 38.6459 27.8013Z" fill="currentColor"/>
<path d="M44.6898 5.13809C45.2495 4.5749 45.5717 3.80125 45.5717 3.00996C45.5717 2.21514 45.2495 1.44149 44.6898 0.878296C44.1302 0.318632 43.353 0 42.5617 0C41.7669 0 40.9932 0.318632 40.4336 0.878296C39.8704 1.43796 39.5518 2.21514 39.5518 3.00996C39.5518 3.80125 39.8704 4.57725 40.4336 5.13809C40.9932 5.69776 41.7669 6.01639 42.5617 6.01639C43.353 6.01639 44.1302 5.69776 44.6898 5.13809Z" fill="currentColor"/>
<path d="M94.5482 11.1817C95.1079 10.6185 95.4301 9.84481 95.4301 9.05352C95.4301 8.2587 95.1079 7.48505 94.5482 6.92186C93.9886 6.3622 93.2114 6.04356 92.4201 6.04356C91.6253 6.04356 90.8516 6.3622 90.292 6.92186C89.7288 7.48152 89.4102 8.2587 89.4102 9.05352C89.4102 9.84481 89.7288 10.6208 90.292 11.1817C90.8516 11.7413 91.6253 12.06 92.4201 12.06C93.2114 12.06 93.9886 11.7413 94.5482 11.1817Z" fill="currentColor"/>
<path d="M62.8197 14.2034C63.3794 13.6402 63.7016 12.8666 63.7016 12.0753C63.7016 11.2804 63.3794 10.5068 62.8197 9.9436C62.2601 9.38394 61.4829 9.06531 60.6916 9.06531C59.8968 9.06531 59.1231 9.38394 58.5635 9.9436C58.0003 10.5033 57.6816 11.2804 57.6816 12.0753C57.6816 12.8666 58.0003 13.6426 58.5635 14.2034C59.1231 14.7631 59.8968 15.0817 60.6916 15.0817C61.4829 15.0817 62.2601 14.7631 62.8197 14.2034Z" fill="currentColor"/>
<path d="M126.277 14.2034C126.836 13.6402 127.159 12.8666 127.159 12.0753C127.159 11.2804 126.836 10.5068 126.277 9.9436C125.717 9.38394 124.94 9.06531 124.149 9.06531C123.354 9.06531 122.58 9.38394 122.02 9.9436C121.457 10.5033 121.139 11.2804 121.139 12.0753C121.139 12.8666 121.457 13.6426 122.02 14.2034C122.58 14.7631 123.354 15.0817 124.149 15.0817C124.94 15.0817 125.717 14.7631 126.277 14.2034Z" fill="currentColor"/>
</symbol><symbol id="icon-adv-1" viewBox="0 0 90 90">
<path d="M88.5 27H87V10.5C87 9.67163 86.3284 9 85.5 9H60V1.5C60 0.671631 59.3284 0 58.5 0H31.5C30.6716 0 30 0.671631 30 1.5V9H4.5C3.67163 9 3 9.67163 3 10.5V27H1.5C0.671631 27 0 27.6716 0 28.5V34.5C0 35.3284 0.671631 36 1.5 36H3V88.5C3 89.3284 3.67163 90 4.5 90H85.5C86.3284 90 87 89.3284 87 88.5V36H88.5C89.3284 36 90 35.3284 90 34.5V28.5C90 27.6716 89.3284 27 88.5 27ZM60 12H84V27H60V12ZM33 3H57V27H33V3ZM6 12H30V27H6V12ZM73.5 87H54V75H73.5V87ZM73.5 72H54V57H73.5V72ZM73.5 54H54V46.5H73.5V54ZM84 87H76.5V45C76.5 44.1716 75.8284 43.5 75 43.5H52.5C51.6716 43.5 51 44.1716 51 45V87H6V36H84V87ZM87 33H3V30H87V33Z" fill="currentColor"/>
<path d="M15 76.5H42C42.8284 76.5 43.5 75.8284 43.5 75V67.5C43.5 66.6716 42.8284 66 42 66H40.5V45C40.5 44.1716 39.8284 43.5 39 43.5H18C17.1716 43.5 16.5 44.1716 16.5 45V66H15C14.1716 66 13.5 66.6716 13.5 67.5V75C13.5 75.8284 14.1716 76.5 15 76.5ZM19.5 46.5H37.5V66H19.5V46.5ZM16.5 69H40.5V73.5H16.5V69Z" fill="currentColor"/>
<path d="M69 66C69.8284 66 70.5 65.3284 70.5 64.5V63C70.5 62.1716 69.8284 61.5 69 61.5C68.1716 61.5 67.5 62.1716 67.5 63V64.5C67.5 65.3284 68.1716 66 69 66Z" fill="currentColor"/>
<path d="M52.5 10.5H49.5V7.5C49.5 6.67163 48.8284 6 48 6H42C41.1716 6 40.5 6.67163 40.5 7.5V10.5H37.5C36.6716 10.5 36 11.1716 36 12V18C36 18.8284 36.6716 19.5 37.5 19.5H40.5V22.5C40.5 23.3284 41.1716 24 42 24H48C48.8284 24 49.5 23.3284 49.5 22.5V19.5H52.5C53.3284 19.5 54 18.8284 54 18V12C54 11.1716 53.3284 10.5 52.5 10.5ZM51 16.5H48C47.1716 16.5 46.5 17.1716 46.5 18V21H43.5V18C43.5 17.1716 42.8284 16.5 42 16.5H39V13.5H42C42.8284 13.5 43.5 12.8284 43.5 12V9H46.5V12C46.5 12.8284 47.1716 13.5 48 13.5H51V16.5Z" fill="currentColor"/>
</symbol><symbol id="icon-adv-2" viewBox="0 0 90 90">
<g clip-path="url(#clip0)">
<path d="M75.2033 41.6654V34.4705H77.5183C79.36 34.4705 80.8581 32.9723 80.8581 31.1307V17.4026C80.8581 15.5609 79.36 14.0628 77.5183 14.0628H66.5594C68.8312 11.8344 70.2441 8.73352 70.2441 5.30759C70.2441 4.33677 69.4571 3.54981 68.4863 3.54981C67.5155 3.54981 66.7285 4.33677 66.7285 5.30759C66.7285 8.59166 64.9101 11.4576 62.2281 12.9555C62.8988 11.7149 63.2803 10.296 63.2803 8.78941C63.2803 3.9432 59.3376 0.000488281 54.4913 0.000488281C50.5186 0.000488281 47.1547 2.6507 46.0707 6.2756C44.543 4.9933 42.5751 4.21917 40.4291 4.21917C38.283 4.21917 36.3151 4.9933 34.7874 6.2756C33.7034 2.6507 30.3395 0.000488281 26.3668 0.000488281C21.5206 0.000488281 17.5779 3.9432 17.5779 8.78941C17.5779 10.296 17.9593 11.7151 18.6301 12.9555C15.948 11.4576 14.1296 8.59149 14.1296 5.30742C14.1296 4.33659 13.3426 3.54963 12.3718 3.54963C11.401 3.54963 10.614 4.33659 10.614 5.30742C10.614 8.73334 12.0269 11.8342 14.2987 14.0626H3.33979C1.49816 14.0626 0 15.5608 0 17.4024V31.1305C0 32.9721 1.49816 34.4703 3.33979 34.4703H5.65479V77.6944C5.65479 80.6021 8.02042 82.9678 10.9281 82.9678H47.1983C51.7464 87.3207 57.9101 89.9989 64.6879 89.9989C78.6451 89.9989 90 78.644 90 64.6868C90 54.4797 83.926 45.6656 75.2033 41.6654ZM49.218 13.0081V8.78941C49.218 5.88169 51.5836 3.51606 54.4913 3.51606C57.3991 3.51606 59.7647 5.88169 59.7647 8.78941C59.7647 11.6971 57.3991 14.0628 54.4913 14.0628H49.218V13.0081ZM49.218 17.5783H77.3425V30.9549H49.218V17.5783ZM49.218 34.4705H71.6877V40.3601C69.4638 39.7192 67.1154 39.3749 64.6879 39.3749C58.8666 39.3749 53.4989 41.3513 49.218 44.6669V34.4705ZM35.1557 13.0081C35.1557 10.1004 37.5213 7.73474 40.4291 7.73474C43.3368 7.73474 45.7024 10.1004 45.7024 13.0081V14.0628H35.1557V13.0081ZM35.1557 17.5783H45.7024V30.9549H35.1557V17.5783ZM26.3668 3.51606C29.2745 3.51606 31.6401 5.88169 31.6401 8.78941V13.0081V14.0628H26.3668C23.459 14.0628 21.0934 11.6971 21.0934 8.78941C21.0934 5.88169 23.459 3.51606 26.3668 3.51606ZM3.51557 30.9549V17.5783H31.6401V30.9549H7.41258H3.51557ZM35.1557 79.4524V63.0143C35.1557 62.0434 34.3687 61.2565 33.3979 61.2565C32.4271 61.2565 31.6401 62.0434 31.6401 63.0143V79.4524H10.9281C9.95891 79.4524 9.17036 78.6638 9.17036 77.6946V34.4705H31.6401V47.1942C31.6401 48.165 32.4271 48.952 33.3979 48.952C34.3687 48.952 35.1557 48.165 35.1557 47.1942V34.4705H45.7024V47.9659C41.7673 52.4285 39.3758 58.2834 39.3758 64.687C39.3758 70.1932 41.1441 75.2936 44.1411 79.4524H35.1557ZM64.6879 86.4835C52.6692 86.4835 42.8914 76.7057 42.8914 64.687C42.8914 52.6683 52.6692 42.8904 64.6879 42.8904C76.7066 42.8904 86.4844 52.6683 86.4844 64.687C86.4844 76.7057 76.7066 86.4835 64.6879 86.4835Z" fill="currentColor"/>
<path d="M70.4189 53.1187C69.5452 52.6945 68.4939 53.0587 68.0698 53.932L58.3977 73.8488C57.9736 74.722 58.3378 75.7737 59.211 76.1979C59.4584 76.3179 59.7199 76.3749 59.9776 76.3749C60.6296 76.3749 61.2561 76.0105 61.5602 75.3845L71.2322 55.4678C71.6563 54.5945 71.2921 53.5426 70.4189 53.1187Z" fill="currentColor"/>
<path d="M60.2459 52.1317C59.1833 51.0691 57.7704 50.4839 56.2678 50.4839C54.7651 50.4839 53.3523 51.0691 52.2897 52.1317C50.0961 54.3252 50.0961 57.8945 52.2897 60.088C53.3866 61.1849 54.8269 61.7332 56.2678 61.7332C57.7084 61.7332 59.1494 61.1846 60.2461 60.088C62.4393 57.8945 62.4393 54.3252 60.2459 52.1317ZM57.76 57.602C56.9372 58.425 55.5983 58.4248 54.7756 57.602C53.9528 56.7791 53.9528 55.4404 54.7756 54.6174C55.1741 54.2187 55.7041 53.9993 56.2678 53.9993C56.8316 53.9993 57.3614 54.2189 57.76 54.6176C58.5829 55.4404 58.5829 56.7793 57.76 57.602Z" fill="currentColor"/>
<path d="M69.444 69.2862C67.2504 71.4798 67.2504 75.049 69.444 77.2426C70.5066 78.3052 71.9195 78.8904 73.4221 78.8904C74.9249 78.8904 76.3376 78.3052 77.4002 77.2426C79.5938 75.049 79.5938 71.4798 77.4002 69.2862C75.2066 67.0927 71.6376 67.0928 69.444 69.2862ZM74.9143 74.7567C74.5158 75.1554 73.9858 75.3748 73.4221 75.3748C72.8584 75.3748 72.3286 75.1552 71.9299 74.7565C71.1071 73.9337 71.1071 72.595 71.9299 71.7721C72.3414 71.3606 72.8818 71.155 73.4221 71.155C73.9625 71.155 74.503 71.3606 74.9143 71.7721C75.7372 72.595 75.7372 73.9339 74.9143 74.7567Z" fill="currentColor"/>
</g>

</symbol><symbol id="icon-adv-3" viewBox="0 0 90 90">
<g clip-path="url(#clip0)">
<path d="M22.0957 22.1475C21.1254 22.1475 20.3379 22.935 20.3379 23.9053C20.3379 24.8756 21.1254 25.6631 22.0957 25.6631C23.066 25.6631 23.8535 24.8756 23.8535 23.9053C23.8535 22.935 23.066 22.1475 22.0957 22.1475Z" fill="currentColor"/>
<path d="M37.9151 55.0167H32.642V49.7437C32.642 48.773 31.8549 47.9858 30.8842 47.9858C29.9136 47.9858 29.1266 48.773 29.1266 49.7437V55.0167H23.8535C22.8829 55.0167 22.0957 55.8039 22.0957 56.7744C22.0957 57.7449 22.8829 58.5322 23.8535 58.5322H29.1266V63.8053C29.1266 64.7759 29.9137 65.5631 30.8842 65.5631C31.8547 65.5631 32.642 64.7759 32.642 63.8053V58.5322H37.9151C38.8858 58.5322 39.6729 57.745 39.6729 56.7744C39.6729 55.8037 38.886 55.0167 37.9151 55.0167Z" fill="currentColor"/>
<path d="M85.3553 56.5988C81.4697 49.8688 72.8782 47.5655 66.147 51.452L59.0071 55.5741V40.31C59.0071 38.423 58.3831 36.5504 57.2495 35.0369L48.461 23.3191V18.3294C50.5067 17.6038 51.9764 15.6502 51.9764 13.3585V5.27309C51.976 2.36549 49.6106 0 46.703 0H15.0639C12.1563 0 9.79066 2.36549 9.79066 5.27309V13.3587C9.79066 15.65 11.2604 17.604 13.3061 18.3296V23.3193L4.51687 35.0378C3.38379 36.5505 2.75977 38.423 2.75977 40.31V74.3518C2.75977 79.1979 6.70236 83.1403 11.5483 83.1403H39.7967C43.7379 89.7467 52.2362 91.9577 58.8978 88.1112L80.2088 75.8071C86.8806 71.9543 89.2605 63.3655 85.3553 56.5988ZM13.3061 5.27309C13.3061 4.30383 14.0947 3.51527 15.0637 3.51527H46.7028C47.672 3.51527 48.4606 4.30383 48.4606 5.27309V13.3587C48.4606 14.3279 47.672 15.1163 46.7028 15.1163H15.0639C14.0947 15.1163 13.3063 14.3278 13.3063 13.3587V5.27309H13.3061ZM7.33008 37.1459L16.47 24.9597C16.6982 24.6556 16.8216 24.2854 16.8216 23.905V18.6319H44.9451V22.1474H29.1257C28.1551 22.1474 27.3679 22.9345 27.3679 23.9052C27.3679 24.8759 28.1551 25.663 29.1257 25.663H45.8241L54.4361 37.1454C54.999 37.8969 55.3486 38.796 55.4542 39.7248H6.31266C6.41812 38.7958 6.76775 37.8967 7.33008 37.1459ZM11.5485 79.6249C8.64088 79.6249 6.27539 77.2594 6.27539 74.3518V72.5766H38.2104C37.653 74.8556 37.6567 77.2898 38.295 79.625H11.5485V79.6249ZM39.5891 69.0785H6.27521V43.2399H55.4915V57.6035L44.8358 63.7562C42.6141 65.0396 40.8183 66.8665 39.5891 69.0785ZM57.1403 85.0667C52.0959 87.9796 45.65 86.2569 42.7352 81.209C39.8065 76.1124 41.5814 69.6957 46.594 66.8004L56.1349 61.2918L66.6812 79.5581L57.1403 85.0667ZM78.451 72.7627L69.7257 77.8004L59.1792 59.5338L67.9046 54.4966C72.9524 51.5825 79.396 53.3081 82.3108 58.3562C85.2384 63.4296 83.4581 69.8713 78.451 72.7627Z" fill="currentColor"/>
</g>

</symbol><symbol id="icon-adv-4" viewBox="0 0 92 92">
<g clip-path="url(#clip0)">
<path d="M91.8226 50.2497C90.9966 41.9412 87.2847 34.1083 81.3704 28.1938C76.3161 23.1396 70.1297 19.8917 63.6202 18.4476V13.882C66.2789 13.2205 68.2552 10.814 68.2552 7.95346C68.2552 4.58463 65.5145 1.84399 62.1457 1.84399H49.208C45.8392 1.84399 43.0985 4.58463 43.0985 7.95346C43.0985 10.8138 45.0748 13.2204 47.7333 13.882V18.4603C41.2438 19.9106 35.0779 23.154 30.0379 28.194C28.935 29.2969 27.9179 30.4539 26.987 31.6564C26.9419 31.653 26.8968 31.6496 26.8508 31.6496H14.0459C13.0536 31.6496 12.2489 32.4541 12.2489 33.4465C12.2489 34.4389 13.0536 35.2434 14.0459 35.2434H24.5419C23.2244 37.4491 22.1621 39.7655 21.3535 42.15H1.7969C0.804653 42.15 0 42.9544 0 43.9469C0 44.9393 0.804653 45.7438 1.7969 45.7438H20.3381C19.8202 48.017 19.523 50.3305 19.4463 52.6505H11.5002C10.5079 52.6505 9.70328 53.455 9.70328 54.4474C9.70328 55.4399 10.5079 56.2443 11.5002 56.2443H19.5036C19.6552 58.5702 20.0292 60.8839 20.6256 63.1511H8.98452C7.99227 63.1511 7.18761 63.9556 7.18761 64.948C7.18761 65.9404 7.99227 66.7449 8.98452 66.7449H21.7724C23.5351 71.408 26.2899 75.7786 30.0379 79.5266C35.958 85.4467 43.799 89.1595 52.1161 89.9812C53.3032 90.0983 54.4911 90.1564 55.6774 90.1564C62.6893 90.1564 69.612 88.1271 75.4861 84.3019C76.3177 83.7603 76.5529 82.6471 76.0113 81.8155C75.4697 80.9839 74.3566 80.7487 73.525 81.2903C60.6669 89.6633 43.4466 87.8529 32.5791 76.9854C19.8279 64.2343 19.8279 43.4867 32.5791 30.7353C45.3301 17.9843 66.0777 17.9843 78.8291 30.7353C89.6822 41.5886 91.5024 58.7941 83.1571 71.646C82.6166 72.4783 82.8532 73.5913 83.6854 74.1316C84.5181 74.6721 85.6307 74.4355 86.171 73.6031C90.6299 66.7363 92.637 58.4427 91.8226 50.2497ZM46.6923 7.95364C46.6923 6.56643 47.8208 5.43798 49.208 5.43798H62.1457C63.5329 5.43798 64.6614 6.56643 64.6614 7.95364C64.6614 9.34085 63.5329 10.4693 62.1457 10.4693H61.8233H49.5302H49.208C47.8208 10.4693 46.6923 9.34067 46.6923 7.95364ZM51.3271 17.8425V14.0631H60.0264V17.8361C57.1377 17.4925 54.2153 17.4947 51.3271 17.8425Z" fill="currentColor"/>
<path d="M55.7043 25.9849C40.3339 25.9849 27.8291 38.4895 27.8291 53.86C27.8291 69.2306 40.3339 81.7352 55.7043 81.7352C71.0746 81.7352 83.5795 69.2306 83.5795 53.86C83.5795 38.4895 71.0746 25.9849 55.7043 25.9849ZM55.7043 78.1414C42.3154 78.1414 31.4229 67.2488 31.4229 53.86C31.4229 40.4713 42.3154 29.5787 55.7043 29.5787C69.0932 29.5787 79.9857 40.4713 79.9857 53.86C79.9857 67.2488 69.0932 78.1414 55.7043 78.1414Z" fill="currentColor"/>
<path d="M67.0712 39.9523L58.1712 48.8522C57.4269 48.4842 56.5897 48.2763 55.7048 48.2763C54.8196 48.2763 53.9826 48.4842 53.2383 48.8522L49.2551 44.869C48.5533 44.1673 47.4158 44.1673 46.7138 44.869C46.0121 45.5707 46.0121 46.7085 46.7138 47.4102L50.697 51.3934C50.3288 52.1376 50.1211 52.9748 50.1211 53.8598C50.1211 56.9386 52.6258 59.4435 55.7048 59.4435C58.7837 59.4435 61.2884 56.9386 61.2884 53.8598C61.2884 52.9748 61.0805 52.1376 60.7125 51.3934L69.3513 42.7546L69.6124 42.4935C70.3141 41.7918 70.3141 40.654 69.6124 39.9523C68.9107 39.2506 67.7733 39.2506 67.0712 39.9523ZM55.7048 55.8499C54.6076 55.8499 53.7149 54.9572 53.7149 53.86C53.7149 52.7628 54.6076 51.8701 55.7048 51.8701C56.8019 51.8701 57.6946 52.7628 57.6946 53.86C57.6946 54.9572 56.8019 55.8499 55.7048 55.8499Z" fill="currentColor"/>
<path d="M74.9168 52.085H73.252C72.2597 52.085 71.4551 52.8894 71.4551 53.8818C71.4551 54.8742 72.2597 55.6787 73.252 55.6787H74.9168C75.909 55.6787 76.7136 54.8742 76.7136 53.8818C76.7136 52.8894 75.909 52.085 74.9168 52.085Z" fill="currentColor"/>
<path d="M38.1568 52.0413H36.4922C35.5 52.0413 34.6953 52.8457 34.6953 53.8381C34.6953 54.8305 35.5 55.635 36.4922 55.635H38.1568C39.149 55.635 39.9537 54.8305 39.9537 53.8381C39.9537 52.8457 39.149 52.0413 38.1568 52.0413Z" fill="currentColor"/>
<path d="M55.7256 38.1092C56.7178 38.1092 57.5225 37.3047 57.5225 36.3123V34.6477C57.5225 33.6553 56.7178 32.8508 55.7256 32.8508C54.7334 32.8508 53.9287 33.6553 53.9287 34.6477V36.3123C53.9287 37.3047 54.7334 38.1092 55.7256 38.1092Z" fill="currentColor"/>
<path d="M55.6826 69.6108C54.6904 69.6108 53.8857 70.4153 53.8857 71.4077V73.0724C53.8857 74.0648 54.6904 74.8692 55.6826 74.8692C56.6749 74.8692 57.4795 74.0648 57.4795 73.0724V71.4077C57.4795 70.4153 56.6749 69.6108 55.6826 69.6108Z" fill="currentColor"/>
</g>

</symbol><symbol id="icon-arrow-long" viewBox="0 0 27 8">
<path d="M26.3536 4.35355C26.5488 4.15829 26.5488 3.84171 26.3536 3.64645L23.1716 0.464466C22.9763 0.269204 22.6597 0.269204 22.4645 0.464466C22.2692 0.659728 22.2692 0.976311 22.4645 1.17157L25.2929 4L22.4645 6.82843C22.2692 7.02369 22.2692 7.34027 22.4645 7.53553C22.6597 7.7308 22.9763 7.7308 23.1716 7.53553L26.3536 4.35355ZM0 4.5H26V3.5H0V4.5Z" fill="currentColor"/>
</symbol><symbol id="icon-arrow-nav" viewBox="0 0 10 5">
<path d="M5.27441 4.89451L9.88692 0.612382C10.038 0.472083 10.0377 0.244936 9.88614 0.104872C9.73459 -0.0350833 9.48911 -0.0347217 9.33795 0.105595L4.99998 4.13284L0.662029 0.10545C0.510859 -0.0348487 0.265527 -0.0352104 0.113965 0.104727C0.0379887 0.17494 -1.16676e-08 0.266923 -1.56883e-08 0.358907C-1.96988e-08 0.450655 0.037735 0.542277 0.113184 0.612363L4.72557 4.89451C4.79819 4.96208 4.89701 5 4.99998 5C5.10295 5 5.20166 4.96197 5.27441 4.89451Z" fill="currentColor" fill-opacity="0.7"/>
</symbol><symbol id="icon-arrow" viewBox="0 0 18 18">
<path d="M13.6558 8.50605L5.33027 0.20355C5.0575 -0.0683121 4.61587 -0.0678551 4.34355 0.204956C4.07144 0.477733 4.07214 0.91961 4.34495 1.19168L12.1749 9.00003L4.34467 16.8083C4.07189 17.0805 4.07119 17.522 4.34326 17.7949C4.47978 17.9316 4.65862 18 4.83745 18C5.01584 18 5.19397 17.9321 5.33024 17.7963L13.6558 9.49397C13.7872 9.36326 13.8609 9.18537 13.8609 9.00003C13.8609 8.81469 13.787 8.63701 13.6558 8.50605Z" fill="currentColor"/>
</symbol><symbol id="icon-basket" viewBox="0 0 37 37">
<path d="M36.2291 15.4164H29.6972L21.4479 3.41727C21.207 3.06649 20.7274 2.9784 20.3759 3.21854C20.0252 3.4602 19.9364 3.93968 20.1772 4.29046L27.8262 15.4163H9.17376L16.8229 4.29053C17.0637 3.93975 16.9749 3.4602 16.6241 3.21861C16.2749 2.97847 15.7946 3.06656 15.5522 3.41734L7.3028 15.4164H0.770857C0.344779 15.4164 0 15.7612 0 16.1873C0 16.6133 0.344779 16.9581 0.770857 16.9581H1.74883L6.46105 31.7681C6.87058 33.053 8.0509 33.9165 9.39908 33.9165H27.601C28.9492 33.9165 30.1296 33.053 30.539 31.7673L35.2512 16.9581H36.2292C36.6553 16.9581 37.0001 16.6133 37.0001 16.1873C37 15.7612 36.6552 15.4164 36.2291 15.4164ZM29.0696 31.2998C28.8648 31.9427 28.2746 32.3748 27.6009 32.3748H9.39908C8.72535 32.3748 8.13516 31.9427 7.93043 31.3005L3.36678 16.958H33.6333L29.0696 31.2998Z" fill="currentColor"/>
</symbol><symbol id="icon-eye" viewBox="0 0 25 13">
<path d="M14.454 6.14047C14.454 4.83818 13.3945 3.77869 12.0923 3.77869C10.79 3.77869 9.73047 4.83818 9.73047 6.14047C9.73047 7.44276 10.79 8.50226 12.0923 8.50226C13.3945 8.50226 14.454 7.44276 14.454 6.14047Z" fill="white"/>
<path d="M0.118325 5.8279C-0.0394418 6.00654 -0.0394418 6.2747 0.118325 6.45334C0.171041 6.513 1.43337 7.93116 3.53635 9.36505C6.05987 11.0857 9.0386 12.2813 12.0923 12.2813C15.1465 12.2813 18.1252 11.0854 20.6483 9.36505C22.7513 7.93121 24.0136 6.51305 24.0663 6.45334C24.2241 6.2747 24.2241 6.00654 24.0663 5.8279C24.0136 5.76824 22.7513 4.35008 20.6483 2.91619C18.1248 1.19563 15.1461 0 12.0923 0C9.03818 0 6.05944 1.19591 3.5364 2.91624C1.43337 4.35008 0.171041 5.76824 0.118325 5.8279ZM6.89641 6.14064C6.89641 3.26252 9.24058 0.944714 12.0923 0.944714C14.9484 0.944714 17.2883 3.26706 17.2883 6.14064C17.2883 9.01876 14.9441 11.3366 12.0923 11.3366C9.23633 11.3366 6.89641 9.01423 6.89641 6.14064ZM20.0952 3.6825C21.5357 4.66198 22.58 5.65232 23.0615 6.14083C22.5834 6.62637 21.5495 7.60717 20.1161 8.58448C19.1349 9.25352 17.8566 9.99097 16.3778 10.534C17.5215 9.41809 18.233 7.86102 18.233 6.14064C18.233 4.42022 17.5215 2.8631 16.3777 1.74715C17.8478 2.28696 19.1188 3.0186 20.0952 3.6825ZM7.80688 1.74725C6.66316 2.86315 5.9517 4.42027 5.9517 6.14064C5.9517 7.86106 6.66316 9.41819 7.80698 10.5341C6.33686 9.99432 5.06589 9.26269 4.08953 8.59879C2.64917 7.6194 1.60479 6.62906 1.12322 6.14045C1.60129 5.65492 2.63519 4.67412 4.06855 3.69681C5.04988 3.02771 6.32817 2.29027 7.80688 1.74725Z" fill="white"/>
</symbol><symbol id="icon-fav-2" viewBox="0 0 20 16">
<path d="M9.57198 3.07034L9.99999 3.77917L10.428 3.07036C10.7354 2.56131 11.2518 1.87215 12.0172 1.33576L11.7345 0.932443L12.0172 1.33576C12.8089 0.780873 13.7034 0.5 14.6875 0.5C17.4481 0.5 19.5 2.52908 19.5 5.22173C19.5 6.6596 18.871 7.89863 17.6672 9.2149C16.4514 10.5443 14.7009 11.8983 12.532 13.5732L12.8376 13.9689L12.532 13.5732L12.5319 13.5732C11.7993 14.1391 10.9667 14.782 10.1009 15.4682L10.1007 15.4683C10.0794 15.4852 10.044 15.5 10 15.5C9.95596 15.5 9.92065 15.4852 9.89939 15.4684L9.89913 15.4682C9.03394 14.7825 8.20183 14.1399 7.46993 13.5747L7.46847 13.5735L7.46846 13.5735C5.29934 11.8985 3.54869 10.5444 2.33283 9.21494C1.12902 7.89863 0.5 6.6596 0.5 5.22173C0.5 2.52908 2.55189 0.5 5.3125 0.5C6.29657 0.5 7.1911 0.780873 7.98284 1.33576C8.74822 1.87215 9.2646 2.56129 9.57198 3.07034Z" fill="#22AF7A" stroke="#22AF7A"/>
</symbol><symbol id="icon-fav" viewBox="0 0 20 16">
<path d="M10 16C9.71527 16 9.44077 15.9072 9.22684 15.7388C8.41888 15.1035 7.63992 14.5065 6.95267 13.9799L6.94916 13.9772C4.93423 12.4332 3.19427 11.0998 1.98364 9.7863C0.630341 8.31791 0 6.92567 0 5.40473C0 3.92701 0.563507 2.56372 1.58661 1.56581C2.62192 0.556101 4.04251 0 5.58716 0C6.74164 0 7.79892 0.328199 8.72955 0.975406C9.19922 1.3021 9.62494 1.70192 10 2.16828C10.3752 1.70192 10.8008 1.3021 11.2706 0.975406C12.2012 0.328199 13.2585 0 14.413 0C15.9575 0 17.3782 0.556101 18.4135 1.56581C19.4366 2.56372 20 3.92701 20 5.40473C20 6.92567 19.3698 8.31791 18.0165 9.78616C16.8059 11.0998 15.0661 12.433 13.0515 13.9769C12.363 14.5043 11.5828 15.1023 10.773 15.739C10.5592 15.9072 10.2846 16 10 16ZM5.58716 1.05348C4.37363 1.05348 3.25882 1.48897 2.44781 2.27983C1.62476 3.08263 1.17142 4.19236 1.17142 5.40473C1.17142 6.68391 1.70013 7.82794 2.88559 9.11412C4.03137 10.3574 5.73563 11.6633 7.70889 13.1755L7.71255 13.1782C8.4024 13.7069 9.18442 14.3062 9.99832 14.9461C10.8171 14.3049 11.6003 13.7047 12.2916 13.1752C14.2647 11.663 15.9688 10.3574 17.1146 9.11412C18.2999 7.82794 18.8286 6.68391 18.8286 5.40473C18.8286 4.19236 18.3752 3.08263 17.5522 2.27983C16.7413 1.48897 15.6264 1.05348 14.413 1.05348C13.524 1.05348 12.7078 1.30758 11.9872 1.80866C11.3449 2.25541 10.8975 2.82016 10.6352 3.21531C10.5003 3.41852 10.2629 3.53981 10 3.53981C9.73709 3.53981 9.49966 3.41852 9.36478 3.21531C9.10263 2.82016 8.65524 2.25541 8.01285 1.80866C7.29218 1.30758 6.47598 1.05348 5.58716 1.05348Z" fill="#2FC089"/>
</symbol><symbol id="icon-favorites" viewBox="0 0 27 24">
<path d="M12.9728 4.50433L13.5 5.47439L14.0272 4.50435C14.4497 3.72682 15.1577 2.67791 16.2044 1.86285L15.8358 1.38945L16.2044 1.86285C17.2858 1.02077 18.5 0.6 19.8281 0.6C23.5367 0.6 26.4 3.64778 26.4 7.8326C26.4 10.0614 25.5195 11.962 23.8856 13.9472C22.2365 15.9509 19.8651 17.9882 16.9401 20.498L17.3308 20.9534L16.9401 20.498L16.9397 20.4984C15.9506 21.3471 14.8271 22.3111 13.6589 23.3398L13.6587 23.34C13.6146 23.3788 13.5584 23.4 13.5 23.4C13.4416 23.4 13.3854 23.3788 13.3414 23.34L13.3411 23.3397C12.1735 22.3117 11.0505 21.348 10.0624 20.5001L10.0606 20.4986L10.0606 20.4986C7.13517 17.9884 4.7637 15.951 3.11447 13.9473C1.48045 11.962 0.6 10.0614 0.6 7.8326C0.6 3.64778 3.46332 0.6 7.17188 0.6C8.5 0.6 9.71422 1.02077 10.7956 1.86285C11.8423 2.67791 12.5503 3.72677 12.9728 4.50433Z" stroke="currentColor" stroke-width="1.2"/>
</symbol><symbol id="icon-info" viewBox="0 0 26 26">
<path d="M13.433 1.75L22.9593 18.25C23.1517 18.5833 22.9112 19 22.5263 19H3.47372C3.08882 19 2.84826 18.5833 3.04071 18.25L12.567 1.75C12.7594 1.41667 13.2406 1.41667 13.433 1.75Z" fill="white" stroke="#FF6D71"/>
<path d="M13.0311 15.9363C13.6006 15.9363 14.0622 15.4747 14.0622 14.9052C14.0622 14.3357 13.6006 13.8741 13.0311 13.8741C12.4616 13.8741 12 14.3357 12 14.9052C12 15.4747 12.4616 15.9363 13.0311 15.9363Z" fill="#FF6D71"/>
<path d="M13.0321 13.1867C12.6525 13.1867 12.3447 12.8789 12.3447 12.4992V7.68741C12.3447 7.30779 12.6525 7 13.0321 7C13.4118 7 13.7195 7.30779 13.7195 7.68741V12.4992C13.7195 12.8789 13.4118 13.1867 13.0321 13.1867Z" fill="#FF6D71"/>
</symbol><symbol id="icon-insta" viewBox="0 0 27 27">
<path d="M16.084 13.5C16.084 14.9271 14.9271 16.084 13.5 16.084C12.0729 16.084 10.916 14.9271 10.916 13.5C10.916 12.0729 12.0729 10.916 13.5 10.916C14.9271 10.916 16.084 12.0729 16.084 13.5Z" fill="currentColor"/>
<path d="M19.5429 8.92831C19.4187 8.59171 19.2205 8.28705 18.963 8.03697C18.7129 7.77948 18.4085 7.58131 18.0717 7.4571C17.7985 7.35101 17.3882 7.22474 16.6324 7.19034C15.8148 7.15305 15.5697 7.14502 13.4998 7.14502C11.4298 7.14502 11.1847 7.15285 10.3673 7.19013C9.61151 7.22474 9.20097 7.35101 8.92802 7.4571C8.59122 7.58131 8.28656 7.77948 8.03669 8.03697C7.7792 8.28705 7.58103 8.59151 7.45661 8.92831C7.35052 9.20145 7.22425 9.612 7.18985 10.3678C7.15257 11.1852 7.14453 11.4303 7.14453 13.5003C7.14453 15.5702 7.15257 15.8153 7.18985 16.6329C7.22425 17.3887 7.35052 17.799 7.45661 18.0722C7.58103 18.409 7.77899 18.7134 8.03648 18.9635C8.28656 19.221 8.59102 19.4192 8.92782 19.5434C9.20097 19.6497 9.61151 19.7759 10.3673 19.8103C11.1847 19.8476 11.4296 19.8554 13.4996 19.8554C15.5699 19.8554 15.815 19.8476 16.6322 19.8103C17.388 19.7759 17.7985 19.6497 18.0717 19.5434C18.7477 19.2826 19.2821 18.7482 19.5429 18.0722C19.649 17.799 19.7752 17.3887 19.8098 16.6329C19.8471 15.8153 19.855 15.5702 19.855 13.5003C19.855 11.4303 19.8471 11.1852 19.8098 10.3678C19.7754 9.612 19.6492 9.20145 19.5429 8.92831ZM13.4998 17.4808C11.3013 17.4808 9.51902 15.6987 9.51902 13.5001C9.51902 11.3016 11.3013 9.51951 13.4998 9.51951C15.6982 9.51951 17.4805 11.3016 17.4805 13.5001C17.4805 15.6987 15.6982 17.4808 13.4998 17.4808ZM17.6378 10.2924C17.1241 10.2924 16.7076 9.87588 16.7076 9.36213C16.7076 8.84838 17.1241 8.43186 17.6378 8.43186C18.1516 8.43186 18.5681 8.84838 18.5681 9.36213C18.5679 9.87588 18.1516 10.2924 17.6378 10.2924Z" fill="currentColor"/>
<path d="M13.5 0C6.0453 0 0 6.0453 0 13.5C0 20.9547 6.0453 27 13.5 27C20.9547 27 27 20.9547 27 13.5C27 6.0453 20.9547 0 13.5 0ZM21.2052 16.696C21.1677 17.5212 21.0365 18.0846 20.8449 18.5777C20.4422 19.619 19.619 20.4422 18.5777 20.8449C18.0848 21.0365 17.5212 21.1675 16.6962 21.2052C15.8695 21.2429 15.6055 21.252 13.5002 21.252C11.3947 21.252 11.1309 21.2429 10.304 21.2052C9.479 21.1675 8.91541 21.0365 8.42246 20.8449C7.90501 20.6502 7.43658 20.3452 7.04931 19.9507C6.65504 19.5636 6.34996 19.095 6.1553 18.5777C5.96372 18.0848 5.8325 17.5212 5.79501 16.6962C5.7569 15.8693 5.74805 15.6053 5.74805 13.5C5.74805 11.3947 5.7569 11.1307 5.79481 10.304C5.8323 9.4788 5.96331 8.91541 6.15488 8.42226C6.34955 7.90501 6.65483 7.43637 7.04931 7.04931C7.43637 6.65483 7.90501 6.34975 8.42226 6.15509C8.91541 5.96352 9.4788 5.8325 10.304 5.79481C11.1307 5.75711 11.3947 5.74805 13.5 5.74805C15.6053 5.74805 15.8693 5.75711 16.696 5.79501C17.5212 5.8325 18.0846 5.96352 18.5777 6.15488C19.095 6.34955 19.5636 6.65483 19.9509 7.04931C20.3452 7.43658 20.6505 7.90501 20.8449 8.42226C21.0367 8.91541 21.1677 9.4788 21.2054 10.304C21.2431 11.1307 21.252 11.3947 21.252 13.5C21.252 15.6053 21.2431 15.8693 21.2052 16.696Z" fill="currentColor"/>
</symbol><symbol id="icon-meds" viewBox="0 0 22 20">
<path d="M4.95652 19.55C2.46855 19.55 0.45 17.5284 0.45 15.0326V4.96741C0.45 2.47161 2.46856 0.45 4.95652 0.45C7.44449 0.45 9.46304 2.47157 9.46304 4.96741V15.0326C9.46304 17.5284 7.44449 19.55 4.95652 19.55Z" fill="white" stroke="#22AF7A" stroke-width="0.9"/>
<path d="M0.45 9.59348V4.989C0.45 2.47943 2.47039 0.45 4.95652 0.45C7.44265 0.45 9.46304 2.47939 9.46304 4.989V9.59348H0.45Z" fill="white" stroke="#22AF7A" stroke-width="0.9"/>
<circle cx="16.2818" cy="14.3261" r="5.09348" fill="white" stroke="#22AF7A" stroke-width="0.9"/>
<path d="M12.5215 10.3043L20.391 18.0869" stroke="#22AF7A" stroke-width="0.9"/>
</symbol><symbol id="icon-ok" viewBox="0 0 27 27">
<path d="M13.5122 11.1886C14.8013 11.1839 15.8279 10.1484 15.8233 8.85653C15.8186 7.56412 14.7897 6.53577 13.5 6.53467C12.1996 6.53329 11.161 7.58069 11.171 8.8847C11.1806 10.1719 12.2189 11.1933 13.5122 11.1886Z" fill="currentColor"/>
<path d="M13.5 0C6.04413 0 0 6.04441 0 13.5C0 20.9556 6.04413 27 13.5 27C20.9559 27 27 20.9556 27 13.5C27 6.04441 20.9559 0 13.5 0ZM13.5193 4.10538C16.1489 4.11256 18.2595 6.26345 18.2459 8.92202C18.2327 11.5193 16.0876 13.6243 13.4624 13.6155C10.8641 13.6066 8.73308 11.4524 8.74855 8.84992C8.76319 6.21898 10.8953 4.0982 13.5193 4.10538ZM18.8453 15.4838C18.2639 16.0807 17.5639 16.5127 16.7867 16.814C16.0519 17.0988 15.2468 17.2422 14.4496 17.3377C14.5703 17.4687 14.627 17.533 14.7021 17.6081C15.7837 18.6956 16.8707 19.7775 17.9487 20.868C18.3161 21.2398 18.3926 21.7005 18.1904 22.1323C17.9697 22.6046 17.4745 22.9151 16.9886 22.8816C16.6809 22.8604 16.4409 22.7076 16.2279 22.493C15.4114 21.6715 14.5794 20.8647 13.7801 20.0278C13.5467 19.7842 13.4351 19.8306 13.2293 20.0421C12.4081 20.8879 11.5734 21.7202 10.734 22.548C10.357 22.9198 9.90838 22.9872 9.47085 22.7745C9.00598 22.5496 8.71043 22.0748 8.73308 21.5972C8.74911 21.2752 8.90765 21.0282 9.12918 20.8078C10.2001 19.7391 11.2676 18.6672 12.3355 17.596C12.4065 17.525 12.4722 17.4496 12.5752 17.3391C11.1188 17.1869 9.80535 16.8284 8.68088 15.9492C8.54111 15.8398 8.39721 15.7343 8.27015 15.6117C7.77766 15.1391 7.72822 14.5974 8.1174 14.04C8.45079 13.5627 9.00985 13.4351 9.59128 13.7094C9.70398 13.7621 9.81115 13.829 9.9139 13.8997C12.0093 15.3396 14.888 15.3791 16.9916 13.964C17.1999 13.8049 17.4228 13.674 17.6811 13.608C18.1827 13.4787 18.6511 13.6635 18.9202 14.1027C19.2281 14.6046 19.2246 15.094 18.8453 15.4838Z" fill="currentColor"/>
</symbol><symbol id="icon-persent" viewBox="0 0 17 23">
<path d="M4.55214 8.87063C2.37621 8.87063 0.605469 7.09989 0.605469 4.92396C0.605469 2.74803 2.37621 0.977295 4.55214 0.977295C6.72806 0.977295 8.4988 2.74803 8.4988 4.92396C8.4988 7.09989 6.72806 8.87063 4.55214 8.87063ZM4.55214 3.60841C3.82595 3.60841 3.23658 4.19777 3.23658 4.92396C3.23658 5.65015 3.82595 6.23952 4.55214 6.23952C5.27832 6.23952 5.86769 5.65015 5.86769 4.92396C5.86769 4.19777 5.27832 3.60841 4.55214 3.60841Z" fill="#FAFAFA"/>
<path d="M12.4447 22.0259C10.2688 22.0259 8.49805 20.2552 8.49805 18.0792C8.49805 15.9033 10.2688 14.1326 12.4447 14.1326C14.6206 14.1326 16.3914 15.9033 16.3914 18.0792C16.3914 20.2552 14.6206 22.0259 12.4447 22.0259ZM12.4447 16.7637C11.7212 16.7637 11.1292 17.3557 11.1292 18.0792C11.1292 18.8028 11.7212 19.3948 12.4447 19.3948C13.1683 19.3948 13.7603 18.8028 13.7603 18.0792C13.7603 17.3557 13.1683 16.7637 12.4447 16.7637Z" fill="#FAFAFA"/>
<path d="M1.9218 22.0259C1.65606 22.0259 1.39032 21.947 1.15878 21.7812C0.566783 21.3576 0.429964 20.5367 0.853573 19.9447L14.0091 1.52695C14.4327 0.934947 15.2536 0.798128 15.8456 1.22174C16.4376 1.64272 16.5718 2.46625 16.1509 3.05562L2.9953 21.4734C2.73482 21.8339 2.33226 22.0259 1.9218 22.0259Z" fill="#FAFAFA"/>
</symbol><symbol id="icon-pin" viewBox="0 0 9 13">
<path d="M4.50094 0C2.01534 0 0 1.96408 0 4.38698C0 5.62648 1.23923 7.8471 1.23923 7.8471L4.33503 13L7.56515 7.90727C7.56515 7.90727 9 5.78852 9 4.38698C9.00038 1.96408 6.98541 0 4.50094 0ZM4.47987 6.80323C3.05631 6.80323 1.90323 5.67188 1.90323 4.27366C1.90323 2.87728 3.05593 1.74667 4.47987 1.74667C5.90269 1.74667 7.05689 2.87728 7.05689 4.27366C7.05689 5.67188 5.90269 6.80323 4.47987 6.80323Z" fill="currentColor"/>
</symbol><symbol id="icon-tel" viewBox="0 0 26 26">
<path d="M25.9431 20.1453C25.8696 19.9237 25.4017 19.5972 24.5399 19.1668C24.3064 19.0311 23.9737 18.8467 23.5432 18.6127C23.1123 18.3788 22.7212 18.1632 22.3706 17.9662C22.0193 17.7693 21.6901 17.5785 21.3826 17.3941C21.3334 17.3572 21.1796 17.2496 20.921 17.0707C20.6623 16.8923 20.4441 16.7599 20.2652 16.6736C20.0868 16.5878 19.9112 16.5446 19.7389 16.5446C19.4927 16.5446 19.1852 16.7201 18.8161 17.0707C18.4469 17.4218 18.1082 17.8031 17.8006 18.2159C17.493 18.6284 17.1667 19.0098 16.8223 19.3607C16.4775 19.7117 16.1941 19.887 15.9728 19.887C15.8617 19.887 15.7232 19.856 15.5571 19.7949C15.3912 19.7334 15.2649 19.6807 15.1783 19.6382C15.0924 19.5948 14.945 19.5089 14.7355 19.3792C14.5257 19.2499 14.4091 19.1791 14.3845 19.1668C12.698 18.2309 11.2517 17.1599 10.0451 15.9539C8.83895 14.7471 7.76777 13.3009 6.83221 11.6142C6.81992 11.5896 6.74897 11.4726 6.61981 11.2634C6.49046 11.0541 6.40425 10.9065 6.36117 10.8201C6.3181 10.734 6.26577 10.6078 6.20433 10.4416C6.14289 10.2755 6.11204 10.1371 6.11204 10.0262C6.11204 9.8047 6.2875 9.52142 6.63838 9.17669C6.98918 8.83215 7.37091 8.50579 7.78316 8.19826C8.19573 7.89072 8.57707 7.55207 8.92801 7.18289C9.27881 6.81352 9.45422 6.50592 9.45422 6.25976C9.45422 6.08752 9.41114 5.91193 9.32506 5.73348C9.23891 5.55465 9.10658 5.33643 8.92801 5.07779C8.74937 4.81927 8.64168 4.66554 8.60468 4.61606C8.42023 4.30852 8.22962 3.97925 8.03242 3.62838C7.83522 3.27757 7.61998 2.88653 7.38598 2.45572C7.15217 2.0251 6.96765 1.6926 6.83208 1.45872C6.40146 0.597162 6.0753 0.12916 5.85365 0.0555575C5.76744 0.018627 5.63808 0 5.46591 0C5.13334 0 4.69949 0.0614431 4.16403 0.184717C3.62838 0.307798 3.20688 0.436893 2.89908 0.57252C2.28355 0.830905 1.63115 1.5818 0.941696 2.82496C0.313877 3.9819 0 5.12701 0 6.25943C0 6.59155 0.0215374 6.91468 0.0646123 7.22888C0.107687 7.54275 0.184653 7.89673 0.295574 8.29074C0.406301 8.68463 0.495619 8.97722 0.563142 9.16776C0.630729 9.35843 0.756914 9.69999 0.941632 10.1926C1.12609 10.685 1.23701 10.9865 1.27394 11.0973C1.70475 12.3038 2.21564 13.3808 2.80646 14.3288C3.77856 15.9044 5.10514 17.5328 6.78545 19.2133C8.46582 20.8936 10.0939 22.2201 11.6697 23.1926C12.6175 23.7833 13.695 24.2941 14.9012 24.7253C15.0121 24.762 15.3136 24.8727 15.8058 25.0578C16.2983 25.2424 16.64 25.3686 16.8306 25.4363C17.0214 25.5041 17.314 25.5934 17.7076 25.7044C18.102 25.8153 18.4556 25.8922 18.7695 25.9356C19.0836 25.9781 19.4068 26.0001 19.7389 26.0001C20.8713 26.0001 22.0165 25.686 23.1736 25.0582C24.4166 24.369 25.1674 23.7165 25.4259 23.1005C25.5618 22.7931 25.6906 22.3714 25.8137 21.8358C25.9371 21.3004 25.9984 20.8666 25.9984 20.5341C25.9988 20.3612 25.9803 20.2322 25.9431 20.1453Z" fill="currentColor"/>
</symbol><symbol id="icon-user" viewBox="0 0 28 28">
<path d="M7.99824 6.55172C7.99824 3.23479 10.683 0.55 14 0.55C17.3169 0.55 20.0017 3.23479 20.0017 6.55172C20.0017 9.86866 17.3169 12.5534 14 12.5534C10.683 12.5534 7.99824 9.86866 7.99824 6.55172Z" stroke="currentColor" stroke-width="1.1"/>
<path d="M11.448 14.4122H16.5515C21.3857 14.4122 25.3118 18.3384 25.3118 23.1725V26.9656C25.3118 27.2481 25.1098 27.4501 24.8274 27.4501H3.17218C2.88973 27.4501 2.6877 27.2481 2.6877 26.9656V23.1725C2.6877 18.3384 6.61387 14.4122 11.448 14.4122Z" stroke="currentColor" stroke-width="1.1"/>
</symbol><symbol id="icon-vk" viewBox="0 0 27 27">
<path d="M13.5 0C6.04441 0 0 6.04413 0 13.5C0 20.9559 6.04441 27 13.5 27C20.9556 27 27 20.9559 27 13.5C27 6.04413 20.9556 0 13.5 0ZM20.3479 14.9601C20.9771 15.5746 21.6428 16.153 22.2077 16.8312C22.4579 17.1311 22.6938 17.4413 22.8734 17.7902C23.1297 18.2876 22.8982 18.8332 22.453 18.8627L19.6872 18.8622C18.9729 18.9213 18.4045 18.6332 17.9252 18.1448C17.5427 17.7556 17.1877 17.3399 16.8193 16.9375C16.6687 16.7723 16.5102 16.6168 16.3213 16.4944C15.9442 16.2492 15.6166 16.3243 15.4006 16.7182C15.1805 17.119 15.1302 17.5631 15.1092 18.0092C15.0791 18.6614 14.8825 18.8318 14.2281 18.8624C12.8299 18.9279 11.5032 18.7158 10.2702 18.0109C9.18249 17.3891 8.34058 16.5116 7.60696 15.518C6.17837 13.5812 5.08429 11.4555 4.10124 9.26867C3.87999 8.77617 4.04185 8.51266 4.58517 8.50245C5.48784 8.48504 6.39051 8.48725 7.29318 8.50162C7.66054 8.50742 7.90361 8.71762 8.04476 9.06427C8.53255 10.2644 9.13056 11.4063 9.87993 12.4653C10.0796 12.7473 10.2835 13.0285 10.5738 13.2277C10.8942 13.4475 11.1384 13.3749 11.2895 13.0172C11.3861 12.7899 11.4278 12.5468 11.4488 12.3032C11.5206 11.4687 11.5292 10.6345 11.4049 9.80342C11.3276 9.2833 11.0351 8.94743 10.5166 8.84909C10.2525 8.7991 10.2912 8.70132 10.4197 8.55051C10.6426 8.28976 10.8514 8.12845 11.2687 8.12845L14.3936 8.1279C14.886 8.22457 14.9965 8.44555 15.0634 8.94163L15.0661 12.4142C15.0603 12.6062 15.1625 13.1752 15.5073 13.3008C15.7835 13.392 15.9658 13.1705 16.1309 12.9956C16.8803 12.2004 17.4142 11.2618 17.8924 10.2904C18.1034 9.86197 18.2854 9.41865 18.4622 8.9745C18.5937 8.64608 18.7981 8.48449 19.1688 8.49002L22.1778 8.49361C22.2665 8.49361 22.3566 8.49444 22.4444 8.50963C22.9515 8.59636 23.0905 8.81457 22.9336 9.30927C22.6866 10.0865 22.2068 10.734 21.7378 11.3831C21.2351 12.078 20.699 12.7487 20.2012 13.4467C19.7438 14.0847 19.78 14.406 20.3479 14.9601Z" fill="currentColor"/>
</symbol></svg>