<svg width="146" height="170" viewBox="0 0 146 170" fill="none" xmlns="http://www.w3.org/2000/svg">
<path d="M32.2374 150.644C33.2699 151.327 33.56 152.726 32.8689 153.758C32.1863 154.799 30.7869 155.081 29.7461 154.398C27.3231 152.794 25.2667 150.806 23.6543 148.579C22.0075 146.301 20.8132 143.759 20.1476 141.105C20.0366 140.653 19.6016 139.535 20.011 138.443C20.3948 137.402 21.2824 136.882 22.1354 136.301C25.0364 134.313 28.4834 133.051 32.1351 132.633C35.7443 132.223 39.5667 132.641 43.2695 134.015C45.8972 134.996 48.2607 136.37 50.2915 138.042C50.0525 137.445 49.7966 136.856 49.5405 136.276C46.1447 128.648 41.1108 122.36 35.4455 116.285C31.401 120.039 26.077 122.496 19.9851 123.077C15.5484 123.495 10.5399 123.077 6.4701 121.421C2.65618 119.869 0.198854 117.369 0.0113335 114.288C-0.159331 111.473 1.60691 108.913 4.66985 106.968C6.46167 105.825 8.73961 104.869 11.3333 104.204C9.7037 102.07 8.49219 99.9117 7.78395 97.9068C6.58087 94.4938 6.76869 91.3968 8.63727 89.2808C10.5143 87.1648 13.5688 86.6017 17.1013 87.3867C19.1745 87.8475 21.4696 88.786 23.7734 90.151C24.1319 87.4803 24.7974 85.1 25.7104 83.189C27.0669 80.3391 29.4048 77.6771 32.7835 77.6687C35.7185 77.6687 38.3549 79.7675 40.2834 83.2317C42.0069 86.3289 43.2184 90.6374 43.517 95.4154H43.5254V95.5861V95.5945H43.5338V95.6117C43.8923 102.19 41.9981 108.197 38.466 112.923C40.1211 114.69 41.6824 116.43 43.1585 118.179C43.5597 115.79 44.5066 113.418 46.0423 111.277C47.6123 109.075 49.6172 107.369 51.8272 106.217C54.131 105.005 56.6651 104.4 59.1564 104.451C60.0353 104.468 60.5386 104.425 61.298 104.963C62.1769 105.594 62.3304 106.362 62.5778 107.079C63.3628 109.365 63.5847 111.857 63.2006 114.331C62.8252 116.788 61.8612 119.237 60.2827 121.447C58.5932 123.81 56.4005 125.602 53.9943 126.754C52.8 127.325 51.5542 127.743 50.283 127.991C51.5289 130.056 52.6465 132.188 53.6533 134.441C57.4672 143.007 59.4637 153.109 59.4637 166.966C59.4637 168.211 58.4569 169.218 57.2114 169.218C55.9655 169.218 54.9503 168.211 54.9503 166.966C54.9503 162.836 54.7712 159.065 54.4127 155.592C52.8599 156.471 51.1875 157.162 49.43 157.649C46.529 158.451 43.4062 158.681 40.2409 158.28C39.0038 158.127 38.1334 157 38.2872 155.772C38.4491 154.535 39.567 153.664 40.8041 153.818C43.3638 154.142 45.8891 153.955 48.2357 153.306C50.1383 152.777 51.9217 151.949 53.5001 150.849C52.843 148.297 51.5632 145.874 49.7545 143.784C47.7068 141.403 44.9681 139.458 41.7001 138.247C38.6712 137.129 35.5568 136.779 32.6305 137.112C29.6612 137.453 26.88 138.486 24.5506 140.115C25.0798 142.171 26.018 144.151 27.3065 145.934C28.611 147.735 30.275 149.347 32.2374 150.644ZM68.6865 63.2492C69.8384 63.7187 70.3932 65.0326 69.9236 66.1845C69.4544 67.3364 68.1405 67.8909 66.9886 67.4303C64.0963 66.2528 61.6303 64.2307 59.8984 61.6623C58.2176 59.171 57.2448 56.1761 57.2448 52.9596C57.2448 48.6425 58.9942 44.7431 61.8181 41.9188C64.6423 39.0949 68.5415 37.3458 72.8586 37.3458C77.1674 37.3458 81.0665 39.0949 83.8995 41.9188C86.7237 44.7431 88.4725 48.6422 88.4725 52.9596C88.4725 56.1764 87.4912 59.171 85.8105 61.6623C84.087 64.2304 81.6212 66.2528 78.7202 67.4303C77.5683 67.8912 76.2545 67.3364 75.7852 66.1845C75.316 65.0326 75.8788 63.7187 77.031 63.2492C79.0959 62.4046 80.8534 60.9713 82.0733 59.1538C83.2592 57.3876 83.9503 55.2544 83.9503 52.9594C83.9503 49.8964 82.7132 47.1146 80.6996 45.1097C78.6943 43.1044 75.9216 41.8589 72.8583 41.8589C69.7867 41.8589 67.0139 43.1047 65.0087 45.1097C62.995 47.1146 61.7579 49.8961 61.7579 52.9594C61.7579 55.2544 62.449 57.3876 63.6349 59.1538C64.8642 60.971 66.6133 62.4046 68.6865 63.2492ZM79.0363 18.8562C81.0243 21.5778 82.2018 25.0507 82.8162 27.2603C83.072 28.1648 84.5481 27.4397 85.0685 27.1496C86.9455 26.1003 89.9404 24.8033 92.9949 24.4364C95.4435 24.1378 97.8241 24.5047 99.5648 26.1515C101.425 27.8918 101.706 30.7245 101.357 33.1051C100.887 36.339 99.215 39.7688 98.1059 41.7313C97.2868 43.1731 98.4984 43.0283 99.01 43.1646C101.135 43.745 104.599 44.9992 107.133 46.9274C109.155 48.4634 110.631 50.434 110.699 52.9001C110.767 55.4341 108.959 57.6269 107.039 59.0687C104.428 61.014 100.836 62.2938 98.6687 62.8826C97.1159 63.3091 97.9776 63.9833 98.3018 64.5378C99.3854 66.4403 100.938 69.7853 101.356 72.9334C101.698 75.4504 101.348 77.8821 99.6671 79.6739C97.918 81.5254 95.1025 81.8068 92.7219 81.457C89.4796 80.9878 86.0498 79.3242 84.0876 78.2147C82.7394 77.4556 82.9188 78.1464 82.6627 79.1448C82.0739 81.2608 80.8025 84.7249 78.8828 87.2419C77.8335 88.6156 76.5792 89.7419 75.1116 90.3388V166.966C75.1116 168.212 74.1048 169.219 72.8589 169.219C71.6134 169.219 70.5979 168.212 70.5979 166.966V90.3472C69.0878 89.7416 67.8079 88.5813 66.7499 87.1561C64.7962 84.5284 63.5588 80.9363 62.9444 78.7691C62.5519 77.387 61.3404 78.3938 60.5383 78.8287C58.6784 79.8268 55.53 81.175 52.5607 81.4907C50.1632 81.755 47.8426 81.3712 46.1447 79.7672C44.3272 78.0609 44.0374 75.271 44.3528 72.9416C44.7793 69.7931 46.3237 66.4485 47.4158 64.5375C48.431 62.7372 48.192 63.1809 46.2982 62.6436C44.2249 62.0633 40.9058 60.8006 38.4657 58.898C36.5116 57.3795 35.0782 55.4341 35.0102 53.0192C34.9419 50.4767 36.7337 48.284 38.6706 46.8422C41.273 44.8969 44.8736 43.6342 47.0491 43.0367C48.5084 42.6358 47.4588 41.5179 46.9811 40.639C45.9827 38.7876 44.6433 35.6307 44.3191 32.6614C44.0633 30.264 44.4386 27.9433 46.0426 26.2451C47.7917 24.3936 50.6331 24.1291 53.005 24.4704C56.2385 24.9396 59.6856 26.5777 61.6225 27.6956C62.2624 28.0538 62.8171 27.5077 63.0389 26.7486C63.6277 24.6411 64.9072 21.1856 66.8357 18.6687C68.3714 16.655 70.3423 15.1874 72.7912 15.1106C75.3843 15.0426 77.5942 16.8769 79.0363 18.8562ZM75.4014 21.5182C74.6252 20.4518 73.7547 19.6752 72.8589 19.6156C72.0228 19.6752 71.1782 20.4091 70.4103 21.4075C68.9002 23.3784 67.8591 26.2026 67.3814 27.9517C66.7499 30.2212 66.2551 31.6377 64.9069 32.4483C63.4224 33.3356 61.8524 33.0115 59.3867 31.595C57.7742 30.6649 54.9328 29.2999 52.3732 28.933C51.0849 28.7451 49.9414 28.8135 49.2843 29.3854C48.7639 29.9825 48.67 31.0234 48.7982 32.184C49.0457 34.462 50.1377 36.996 50.9482 38.4977C51.2041 38.967 51.3064 39.1632 51.4091 39.3507C51.9551 40.3232 52.3987 41.1257 52.6377 41.9871C53.3628 44.6323 52.5011 46.2107 48.2351 47.3795C46.4177 47.8743 43.4399 48.9067 41.3666 50.4596C40.3342 51.2274 39.5748 52.0892 39.5152 52.9596C39.5664 53.7787 40.2746 54.6064 41.2387 55.3571C43.1073 56.816 45.8121 57.8313 47.5184 58.3092C49.9926 59.0003 51.5027 59.5548 52.3048 60.9968C53.1834 62.5412 52.7909 64.1708 51.3236 66.7561C50.4278 68.3429 49.148 71.082 48.8154 73.5393C48.6447 74.7764 48.7215 75.8943 49.2846 76.5342C49.8818 77.0462 50.923 77.1401 52.0833 77.0119C54.3612 76.7645 56.8869 75.6722 58.4057 74.8619C58.6104 74.7508 58.9006 74.5889 59.1648 74.4351C60.1461 73.8975 60.9482 73.4539 61.8013 73.2149C64.472 72.4555 66.076 73.2916 67.2791 77.5492C67.7995 79.3922 68.8319 82.4127 70.3676 84.4775C70.8964 85.1858 71.8948 86.2949 72.8589 86.2949C73.7803 86.2949 74.7871 85.1858 75.2991 84.5118C76.8092 82.5325 77.8416 79.6998 78.3196 77.942C78.9424 75.6978 79.4971 74.2816 80.8449 73.4969C82.3298 72.6436 83.9082 72.9422 86.314 74.2988C87.9608 75.2373 90.8106 76.6279 93.3531 76.9951C94.6245 77.1829 95.7677 77.1146 96.4332 76.5342C96.988 75.8943 97.0647 74.7767 96.894 73.5309C96.5614 71.0739 95.29 68.3432 94.3858 66.7564C93.2084 64.6919 92.594 63.301 93.0205 61.7909C93.4726 60.1357 94.8208 59.2739 97.4915 58.5401C99.2918 58.0537 102.261 57.0041 104.343 55.4516C105.375 54.675 106.143 53.8133 106.203 52.9603C106.143 52.1069 105.41 51.2623 104.411 50.5113C102.44 49.0097 99.5904 47.986 97.8244 47.4996C95.5122 46.8681 94.096 46.3305 93.311 44.9655C92.4664 43.4807 92.8077 41.9282 94.1896 39.5048C95.1281 37.8581 96.519 35.0083 96.8943 32.457C97.0822 31.1856 97.0138 30.0509 96.4335 29.3854C95.8192 28.8478 94.7356 28.7626 93.5241 28.9161C91.1435 29.1978 88.5243 30.3666 86.997 31.2284C85.9989 31.7915 84.8982 32.4826 83.7974 32.7812C81.2462 33.4979 79.6593 32.7044 78.5502 28.7199C78.0294 26.8338 76.9799 23.677 75.4014 21.5182ZM112.115 111.908C114.18 114.118 116.731 115.884 119.649 117.062C120.81 117.522 121.364 118.836 120.904 119.988C120.443 121.14 119.129 121.703 117.977 121.242C115.025 120.056 112.38 118.367 110.136 116.285C104.47 122.36 99.4365 128.648 96.0407 136.276C95.7849 136.856 95.5287 137.445 95.2897 138.042C97.3205 136.37 99.684 134.996 102.312 134.015C106.015 132.641 109.837 132.223 113.446 132.633C117.217 133.068 120.758 134.399 123.719 136.489C124.359 136.941 125.186 137.394 125.57 138.435C125.98 139.535 125.545 140.679 125.434 141.105C124.555 144.62 122.738 147.939 120.161 150.721C117.678 153.4 114.513 155.576 110.81 156.949C106.825 158.425 102.713 158.801 98.8731 158.229C96.1172 157.811 93.5063 156.924 91.1685 155.593C90.8103 159.074 90.6309 162.836 90.6309 166.966C90.6309 168.212 89.6157 169.218 88.3698 169.218C87.124 169.218 86.1175 168.212 86.1175 166.966C86.1175 153.11 88.114 143.008 91.9279 134.441C92.9347 132.189 94.0526 130.056 95.2982 127.991C94.0268 127.744 92.7812 127.334 91.5866 126.754C89.1804 125.602 86.9877 123.81 85.2982 121.447C83.7198 119.237 82.7557 116.788 82.3803 114.331C82.005 111.899 82.2097 109.451 82.9691 107.198C83.2252 106.43 83.4895 105.577 84.2829 104.963C84.8121 104.562 85.5456 104.468 86.4245 104.451C88.9158 104.4 91.4499 105.005 93.7538 106.217C95.9637 107.369 97.9686 109.075 99.5386 111.277C101.075 113.418 102.022 115.79 102.422 118.179C103.899 116.43 105.46 114.689 107.115 112.923C106.663 112.318 106.245 111.695 105.844 111.055C102.704 105.961 101.603 100.211 102.149 94.315C102.551 89.9806 103.711 86.09 105.298 83.2317C106.97 80.2368 109.752 77.3105 113.446 77.7114C116.142 78.0016 118.361 80.0321 119.871 83.1893C120.784 85.1006 121.449 87.4809 121.799 90.1513C124.111 88.7863 126.406 87.8478 128.48 87.387C132.012 86.602 135.066 87.1651 136.943 89.2811C138.812 91.3971 139 94.4941 137.797 97.9071C137.088 99.912 135.877 102.071 134.247 104.204C136.841 104.869 139.119 105.825 140.911 106.968C143.974 108.914 145.74 111.473 145.57 114.289C145.39 117.13 143.291 119.476 139.964 121.046C137.08 122.403 133.155 123.205 128.829 123.213C127.584 123.213 126.577 122.206 126.577 120.969C126.577 119.724 127.584 118.717 128.829 118.717C132.49 118.708 135.732 118.06 138.061 116.968C139.87 116.114 141.005 115.082 141.065 114.024C141.133 112.974 140.16 111.822 138.496 110.765C136.372 109.408 133.284 108.367 129.7 107.898C128.463 107.736 127.601 106.609 127.755 105.372C127.823 104.869 128.053 104.425 128.386 104.093V104.084C130.912 101.516 132.703 98.7941 133.548 96.4135C134.205 94.5452 134.264 93.0436 133.573 92.2583C132.882 91.4736 131.372 91.3541 129.444 91.7806C126.978 92.3266 124.06 93.7684 121.193 95.9698C120.212 96.729 118.804 96.5414 118.045 95.5602C117.687 95.0909 117.584 94.6304 117.575 94.0673C117.533 90.5263 116.876 87.3867 115.792 85.1256C114.973 83.4021 113.983 82.3098 112.977 82.1906C112.917 82.1906 112.849 82.1818 112.789 82.1734C111.62 82.1734 110.349 83.4021 109.231 85.4157C107.815 87.9667 106.808 91.6099 106.561 95.7224C106.288 100.287 107.26 104.775 109.675 108.691C110.383 109.835 111.202 110.918 112.115 111.908ZM33.722 111.618C33.7647 111.567 33.8071 111.524 33.8586 111.473C37.408 107.42 39.3704 101.951 39.0291 95.8675C39.0207 95.7736 39.012 95.6797 39.012 95.5945C38.7558 91.5332 37.7577 87.9411 36.35 85.4157C35.2324 83.4021 33.9609 82.1734 32.7922 82.1734C32.7326 82.1818 32.6643 82.1906 32.6047 82.1906C31.5978 82.3098 30.6082 83.4021 29.7891 85.1256C28.7227 87.3611 28.0656 90.458 28.006 93.9478C27.9889 94.5621 27.9377 95.0229 27.5368 95.5602C26.7774 96.5414 25.3696 96.729 24.3884 95.9698C21.5217 93.7684 18.6035 92.3266 16.1378 91.7806C14.2096 91.3541 12.6995 91.4736 12.0084 92.2583C11.3173 93.0433 11.3769 94.5449 12.034 96.4135C12.8614 98.7513 14.6021 101.422 17.0679 103.956C17.4775 104.374 17.7421 104.75 17.8273 105.373C17.9808 106.61 17.119 107.736 15.8819 107.898C12.2983 108.368 9.20976 109.408 7.08534 110.765C5.42143 111.823 4.44891 112.975 4.51724 114.024C4.58527 115.21 5.97617 116.354 8.16892 117.241C11.9061 118.759 14.9606 118.648 18.8684 118.648C24.9422 118.239 30.1383 115.637 33.722 111.618ZM93.5238 122.701C94.8632 123.341 96.2884 123.699 97.7046 123.759C98.1059 122.403 98.2253 120.927 98.0544 119.451C97.8325 117.539 97.1075 115.611 95.8704 113.888C94.7184 112.275 93.2679 111.038 91.6724 110.202C90.2306 109.442 88.6778 109.024 87.1334 108.956C86.6981 110.44 86.5958 112.045 86.8432 113.665C87.1162 115.448 87.816 117.232 88.9679 118.836C90.2047 120.568 91.7919 121.874 93.5238 122.701ZM47.8769 123.759C49.2934 123.7 50.7183 123.341 52.0577 122.701C53.7896 121.874 55.3768 120.568 56.6139 118.836C57.7658 117.232 58.4653 115.449 58.7386 113.666C58.986 112.045 58.8837 110.441 58.4485 108.956C56.904 109.024 55.3512 109.442 53.9094 110.202C52.3139 111.03 50.8634 112.275 49.703 113.888C48.4747 115.611 47.7493 117.54 47.5274 119.451C47.3562 120.927 47.4757 122.403 47.8769 123.759ZM92.0817 150.849C94.2405 152.359 96.7914 153.357 99.5217 153.767C102.636 154.228 105.981 153.921 109.24 152.717C112.286 151.583 114.863 149.825 116.859 147.675C118.89 145.482 120.323 142.871 121.031 140.115C118.702 138.486 115.921 137.453 112.952 137.112C110.025 136.779 106.911 137.129 103.882 138.247C100.614 139.458 97.8753 141.404 95.8276 143.784C94.0186 145.875 92.7388 148.298 92.0817 150.849Z" fill="currentColor" />
<path d="M114.19 33.8448C114.75 33.2817 115.072 32.508 115.072 31.7167C115.072 30.9219 114.75 30.1482 114.19 29.5851C113.63 29.0254 112.853 28.7068 112.062 28.7068C111.267 28.7068 110.493 29.0254 109.934 29.5851C109.37 30.1447 109.052 30.9219 109.052 31.7167C109.052 32.508 109.37 33.284 109.934 33.8448C110.493 34.4045 111.267 34.7231 112.062 34.7231C112.853 34.7231 113.63 34.4045 114.19 33.8448Z" fill="currentColor"/>
<path d="M38.6459 27.8013C39.2056 27.2381 39.5277 26.4645 39.5277 25.6732C39.5277 24.8783 39.2056 24.1047 38.6459 23.5415C38.0862 22.9818 37.3091 22.6632 36.5178 22.6632C35.723 22.6632 34.9493 22.9818 34.3896 23.5415C33.8264 24.1012 33.5078 24.8783 33.5078 25.6732C33.5078 26.4645 33.8264 27.2405 34.3896 27.8013C34.9493 28.361 35.723 28.6796 36.5178 28.6796C37.3091 28.6796 38.0862 28.361 38.6459 27.8013Z" fill="currentColor"/>
<path d="M44.6898 5.13809C45.2495 4.5749 45.5717 3.80125 45.5717 3.00996C45.5717 2.21514 45.2495 1.44149 44.6898 0.878296C44.1302 0.318632 43.353 0 42.5617 0C41.7669 0 40.9932 0.318632 40.4336 0.878296C39.8704 1.43796 39.5518 2.21514 39.5518 3.00996C39.5518 3.80125 39.8704 4.57725 40.4336 5.13809C40.9932 5.69776 41.7669 6.01639 42.5617 6.01639C43.353 6.01639 44.1302 5.69776 44.6898 5.13809Z" fill="currentColor"/>
<path d="M94.5482 11.1817C95.1079 10.6185 95.4301 9.84481 95.4301 9.05352C95.4301 8.2587 95.1079 7.48505 94.5482 6.92186C93.9886 6.3622 93.2114 6.04356 92.4201 6.04356C91.6253 6.04356 90.8516 6.3622 90.292 6.92186C89.7288 7.48152 89.4102 8.2587 89.4102 9.05352C89.4102 9.84481 89.7288 10.6208 90.292 11.1817C90.8516 11.7413 91.6253 12.06 92.4201 12.06C93.2114 12.06 93.9886 11.7413 94.5482 11.1817Z" fill="currentColor"/>
<path d="M62.8197 14.2034C63.3794 13.6402 63.7016 12.8666 63.7016 12.0753C63.7016 11.2804 63.3794 10.5068 62.8197 9.9436C62.2601 9.38394 61.4829 9.06531 60.6916 9.06531C59.8968 9.06531 59.1231 9.38394 58.5635 9.9436C58.0003 10.5033 57.6816 11.2804 57.6816 12.0753C57.6816 12.8666 58.0003 13.6426 58.5635 14.2034C59.1231 14.7631 59.8968 15.0817 60.6916 15.0817C61.4829 15.0817 62.2601 14.7631 62.8197 14.2034Z" fill="currentColor"/>
<path d="M126.277 14.2034C126.836 13.6402 127.159 12.8666 127.159 12.0753C127.159 11.2804 126.836 10.5068 126.277 9.9436C125.717 9.38394 124.94 9.06531 124.149 9.06531C123.354 9.06531 122.58 9.38394 122.02 9.9436C121.457 10.5033 121.139 11.2804 121.139 12.0753C121.139 12.8666 121.457 13.6426 122.02 14.2034C122.58 14.7631 123.354 15.0817 124.149 15.0817C124.94 15.0817 125.717 14.7631 126.277 14.2034Z" fill="currentColor"/>
</svg>
