<svg width="26" height="26" viewBox="0 0 26 26" fill="none" xmlns="http://www.w3.org/2000/svg">
<path d="M25.9431 20.1453C25.8696 19.9237 25.4017 19.5972 24.5399 19.1668C24.3064 19.0311 23.9737 18.8467 23.5432 18.6127C23.1123 18.3788 22.7212 18.1632 22.3706 17.9662C22.0193 17.7693 21.6901 17.5785 21.3826 17.3941C21.3334 17.3572 21.1796 17.2496 20.921 17.0707C20.6623 16.8923 20.4441 16.7599 20.2652 16.6736C20.0868 16.5878 19.9112 16.5446 19.7389 16.5446C19.4927 16.5446 19.1852 16.7201 18.8161 17.0707C18.4469 17.4218 18.1082 17.8031 17.8006 18.2159C17.493 18.6284 17.1667 19.0098 16.8223 19.3607C16.4775 19.7117 16.1941 19.887 15.9728 19.887C15.8617 19.887 15.7232 19.856 15.5571 19.7949C15.3912 19.7334 15.2649 19.6807 15.1783 19.6382C15.0924 19.5948 14.945 19.5089 14.7355 19.3792C14.5257 19.2499 14.4091 19.1791 14.3845 19.1668C12.698 18.2309 11.2517 17.1599 10.0451 15.9539C8.83895 14.7471 7.76777 13.3009 6.83221 11.6142C6.81992 11.5896 6.74897 11.4726 6.61981 11.2634C6.49046 11.0541 6.40425 10.9065 6.36117 10.8201C6.3181 10.734 6.26577 10.6078 6.20433 10.4416C6.14289 10.2755 6.11204 10.1371 6.11204 10.0262C6.11204 9.8047 6.2875 9.52142 6.63838 9.17669C6.98918 8.83215 7.37091 8.50579 7.78316 8.19826C8.19573 7.89072 8.57707 7.55207 8.92801 7.18289C9.27881 6.81352 9.45422 6.50592 9.45422 6.25976C9.45422 6.08752 9.41114 5.91193 9.32506 5.73348C9.23891 5.55465 9.10658 5.33643 8.92801 5.07779C8.74937 4.81927 8.64168 4.66554 8.60468 4.61606C8.42023 4.30852 8.22962 3.97925 8.03242 3.62838C7.83522 3.27757 7.61998 2.88653 7.38598 2.45572C7.15217 2.0251 6.96765 1.6926 6.83208 1.45872C6.40146 0.597162 6.0753 0.12916 5.85365 0.0555575C5.76744 0.018627 5.63808 0 5.46591 0C5.13334 0 4.69949 0.0614431 4.16403 0.184717C3.62838 0.307798 3.20688 0.436893 2.89908 0.57252C2.28355 0.830905 1.63115 1.5818 0.941696 2.82496C0.313877 3.9819 0 5.12701 0 6.25943C0 6.59155 0.0215374 6.91468 0.0646123 7.22888C0.107687 7.54275 0.184653 7.89673 0.295574 8.29074C0.406301 8.68463 0.495619 8.97722 0.563142 9.16776C0.630729 9.35843 0.756914 9.69999 0.941632 10.1926C1.12609 10.685 1.23701 10.9865 1.27394 11.0973C1.70475 12.3038 2.21564 13.3808 2.80646 14.3288C3.77856 15.9044 5.10514 17.5328 6.78545 19.2133C8.46582 20.8936 10.0939 22.2201 11.6697 23.1926C12.6175 23.7833 13.695 24.2941 14.9012 24.7253C15.0121 24.762 15.3136 24.8727 15.8058 25.0578C16.2983 25.2424 16.64 25.3686 16.8306 25.4363C17.0214 25.5041 17.314 25.5934 17.7076 25.7044C18.102 25.8153 18.4556 25.8922 18.7695 25.9356C19.0836 25.9781 19.4068 26.0001 19.7389 26.0001C20.8713 26.0001 22.0165 25.686 23.1736 25.0582C24.4166 24.369 25.1674 23.7165 25.4259 23.1005C25.5618 22.7931 25.6906 22.3714 25.8137 21.8358C25.9371 21.3004 25.9984 20.8666 25.9984 20.5341C25.9988 20.3612 25.9803 20.2322 25.9431 20.1453Z" fill="currentColor"/>
</svg>
