<svg width="92" height="92" viewBox="0 0 92 92" fill="none" xmlns="http://www.w3.org/2000/svg">
<g clip-path="url(#clip0)">
<path d="M91.8226 50.2497C90.9966 41.9412 87.2847 34.1083 81.3704 28.1938C76.3161 23.1396 70.1297 19.8917 63.6202 18.4476V13.882C66.2789 13.2205 68.2552 10.814 68.2552 7.95346C68.2552 4.58463 65.5145 1.84399 62.1457 1.84399H49.208C45.8392 1.84399 43.0985 4.58463 43.0985 7.95346C43.0985 10.8138 45.0748 13.2204 47.7333 13.882V18.4603C41.2438 19.9106 35.0779 23.154 30.0379 28.194C28.935 29.2969 27.9179 30.4539 26.987 31.6564C26.9419 31.653 26.8968 31.6496 26.8508 31.6496H14.0459C13.0536 31.6496 12.2489 32.4541 12.2489 33.4465C12.2489 34.4389 13.0536 35.2434 14.0459 35.2434H24.5419C23.2244 37.4491 22.1621 39.7655 21.3535 42.15H1.7969C0.804653 42.15 0 42.9544 0 43.9469C0 44.9393 0.804653 45.7438 1.7969 45.7438H20.3381C19.8202 48.017 19.523 50.3305 19.4463 52.6505H11.5002C10.5079 52.6505 9.70328 53.455 9.70328 54.4474C9.70328 55.4399 10.5079 56.2443 11.5002 56.2443H19.5036C19.6552 58.5702 20.0292 60.8839 20.6256 63.1511H8.98452C7.99227 63.1511 7.18761 63.9556 7.18761 64.948C7.18761 65.9404 7.99227 66.7449 8.98452 66.7449H21.7724C23.5351 71.408 26.2899 75.7786 30.0379 79.5266C35.958 85.4467 43.799 89.1595 52.1161 89.9812C53.3032 90.0983 54.4911 90.1564 55.6774 90.1564C62.6893 90.1564 69.612 88.1271 75.4861 84.3019C76.3177 83.7603 76.5529 82.6471 76.0113 81.8155C75.4697 80.9839 74.3566 80.7487 73.525 81.2903C60.6669 89.6633 43.4466 87.8529 32.5791 76.9854C19.8279 64.2343 19.8279 43.4867 32.5791 30.7353C45.3301 17.9843 66.0777 17.9843 78.8291 30.7353C89.6822 41.5886 91.5024 58.7941 83.1571 71.646C82.6166 72.4783 82.8532 73.5913 83.6854 74.1316C84.5181 74.6721 85.6307 74.4355 86.171 73.6031C90.6299 66.7363 92.637 58.4427 91.8226 50.2497ZM46.6923 7.95364C46.6923 6.56643 47.8208 5.43798 49.208 5.43798H62.1457C63.5329 5.43798 64.6614 6.56643 64.6614 7.95364C64.6614 9.34085 63.5329 10.4693 62.1457 10.4693H61.8233H49.5302H49.208C47.8208 10.4693 46.6923 9.34067 46.6923 7.95364ZM51.3271 17.8425V14.0631H60.0264V17.8361C57.1377 17.4925 54.2153 17.4947 51.3271 17.8425Z" fill="currentColor"/>
<path d="M55.7043 25.9849C40.3339 25.9849 27.8291 38.4895 27.8291 53.86C27.8291 69.2306 40.3339 81.7352 55.7043 81.7352C71.0746 81.7352 83.5795 69.2306 83.5795 53.86C83.5795 38.4895 71.0746 25.9849 55.7043 25.9849ZM55.7043 78.1414C42.3154 78.1414 31.4229 67.2488 31.4229 53.86C31.4229 40.4713 42.3154 29.5787 55.7043 29.5787C69.0932 29.5787 79.9857 40.4713 79.9857 53.86C79.9857 67.2488 69.0932 78.1414 55.7043 78.1414Z" fill="currentColor"/>
<path d="M67.0712 39.9523L58.1712 48.8522C57.4269 48.4842 56.5897 48.2763 55.7048 48.2763C54.8196 48.2763 53.9826 48.4842 53.2383 48.8522L49.2551 44.869C48.5533 44.1673 47.4158 44.1673 46.7138 44.869C46.0121 45.5707 46.0121 46.7085 46.7138 47.4102L50.697 51.3934C50.3288 52.1376 50.1211 52.9748 50.1211 53.8598C50.1211 56.9386 52.6258 59.4435 55.7048 59.4435C58.7837 59.4435 61.2884 56.9386 61.2884 53.8598C61.2884 52.9748 61.0805 52.1376 60.7125 51.3934L69.3513 42.7546L69.6124 42.4935C70.3141 41.7918 70.3141 40.654 69.6124 39.9523C68.9107 39.2506 67.7733 39.2506 67.0712 39.9523ZM55.7048 55.8499C54.6076 55.8499 53.7149 54.9572 53.7149 53.86C53.7149 52.7628 54.6076 51.8701 55.7048 51.8701C56.8019 51.8701 57.6946 52.7628 57.6946 53.86C57.6946 54.9572 56.8019 55.8499 55.7048 55.8499Z" fill="currentColor"/>
<path d="M74.9168 52.085H73.252C72.2597 52.085 71.4551 52.8894 71.4551 53.8818C71.4551 54.8742 72.2597 55.6787 73.252 55.6787H74.9168C75.909 55.6787 76.7136 54.8742 76.7136 53.8818C76.7136 52.8894 75.909 52.085 74.9168 52.085Z" fill="currentColor"/>
<path d="M38.1568 52.0413H36.4922C35.5 52.0413 34.6953 52.8457 34.6953 53.8381C34.6953 54.8305 35.5 55.635 36.4922 55.635H38.1568C39.149 55.635 39.9537 54.8305 39.9537 53.8381C39.9537 52.8457 39.149 52.0413 38.1568 52.0413Z" fill="currentColor"/>
<path d="M55.7256 38.1092C56.7178 38.1092 57.5225 37.3047 57.5225 36.3123V34.6477C57.5225 33.6553 56.7178 32.8508 55.7256 32.8508C54.7334 32.8508 53.9287 33.6553 53.9287 34.6477V36.3123C53.9287 37.3047 54.7334 38.1092 55.7256 38.1092Z" fill="currentColor"/>
<path d="M55.6826 69.6108C54.6904 69.6108 53.8857 70.4153 53.8857 71.4077V73.0724C53.8857 74.0648 54.6904 74.8692 55.6826 74.8692C56.6749 74.8692 57.4795 74.0648 57.4795 73.0724V71.4077C57.4795 70.4153 56.6749 69.6108 55.6826 69.6108Z" fill="currentColor"/>
</g>
<defs>
<clipPath id="clip0">
<rect width="92" height="92" fill="white"/>
</clipPath>
</defs>
</svg>
