<svg width="27" height="24" viewBox="0 0 27 24" fill="none" xmlns="http://www.w3.org/2000/svg">
<path d="M12.9728 4.50433L13.5 5.47439L14.0272 4.50435C14.4497 3.72682 15.1577 2.67791 16.2044 1.86285L15.8358 1.38945L16.2044 1.86285C17.2858 1.02077 18.5 0.6 19.8281 0.6C23.5367 0.6 26.4 3.64778 26.4 7.8326C26.4 10.0614 25.5195 11.962 23.8856 13.9472C22.2365 15.9509 19.8651 17.9882 16.9401 20.498L17.3308 20.9534L16.9401 20.498L16.9397 20.4984C15.9506 21.3471 14.8271 22.3111 13.6589 23.3398L13.6587 23.34C13.6146 23.3788 13.5584 23.4 13.5 23.4C13.4416 23.4 13.3854 23.3788 13.3414 23.34L13.3411 23.3397C12.1735 22.3117 11.0505 21.348 10.0624 20.5001L10.0606 20.4986L10.0606 20.4986C7.13517 17.9884 4.7637 15.951 3.11447 13.9473C1.48045 11.962 0.6 10.0614 0.6 7.8326C0.6 3.64778 3.46332 0.6 7.17188 0.6C8.5 0.6 9.71422 1.02077 10.7956 1.86285C11.8423 2.67791 12.5503 3.72677 12.9728 4.50433Z" stroke="currentColor" stroke-width="1.2"/>
</svg>
