<svg width="37" height="37" viewBox="0 0 37 37" fill="none" xmlns="http://www.w3.org/2000/svg">
<g clip-path="url(#clip0)">
<path d="M36.2291 15.4164H29.6972L21.4479 3.41727C21.207 3.06649 20.7274 2.9784 20.3759 3.21854C20.0252 3.4602 19.9364 3.93968 20.1772 4.29046L27.8262 15.4163H9.17376L16.8229 4.29053C17.0637 3.93975 16.9749 3.4602 16.6241 3.21861C16.2749 2.97847 15.7946 3.06656 15.5522 3.41734L7.3028 15.4164H0.770857C0.344779 15.4164 0 15.7612 0 16.1873C0 16.6133 0.344779 16.9581 0.770857 16.9581H1.74883L6.46105 31.7681C6.87058 33.053 8.0509 33.9165 9.39908 33.9165H27.601C28.9492 33.9165 30.1296 33.053 30.539 31.7673L35.2512 16.9581H36.2292C36.6553 16.9581 37.0001 16.6133 37.0001 16.1873C37 15.7612 36.6552 15.4164 36.2291 15.4164ZM29.0696 31.2998C28.8648 31.9427 28.2746 32.3748 27.6009 32.3748H9.39908C8.72535 32.3748 8.13516 31.9427 7.93043 31.3005L3.36678 16.958H33.6333L29.0696 31.2998Z" fill="white"/>
</g>
<defs>
<clipPath id="clip0">
<rect width="37" height="37" fill="white"/>
</clipPath>
</defs>
</svg>
