<svg width="90" height="90" viewBox="0 0 90 90" fill="none" xmlns="http://www.w3.org/2000/svg">
<g clip-path="url(#clip0)">
<path d="M22.0957 22.1475C21.1254 22.1475 20.3379 22.935 20.3379 23.9053C20.3379 24.8756 21.1254 25.6631 22.0957 25.6631C23.066 25.6631 23.8535 24.8756 23.8535 23.9053C23.8535 22.935 23.066 22.1475 22.0957 22.1475Z" fill="currentColor"/>
<path d="M37.9151 55.0167H32.642V49.7437C32.642 48.773 31.8549 47.9858 30.8842 47.9858C29.9136 47.9858 29.1266 48.773 29.1266 49.7437V55.0167H23.8535C22.8829 55.0167 22.0957 55.8039 22.0957 56.7744C22.0957 57.7449 22.8829 58.5322 23.8535 58.5322H29.1266V63.8053C29.1266 64.7759 29.9137 65.5631 30.8842 65.5631C31.8547 65.5631 32.642 64.7759 32.642 63.8053V58.5322H37.9151C38.8858 58.5322 39.6729 57.745 39.6729 56.7744C39.6729 55.8037 38.886 55.0167 37.9151 55.0167Z" fill="currentColor"/>
<path d="M85.3553 56.5988C81.4697 49.8688 72.8782 47.5655 66.147 51.452L59.0071 55.5741V40.31C59.0071 38.423 58.3831 36.5504 57.2495 35.0369L48.461 23.3191V18.3294C50.5067 17.6038 51.9764 15.6502 51.9764 13.3585V5.27309C51.976 2.36549 49.6106 0 46.703 0H15.0639C12.1563 0 9.79066 2.36549 9.79066 5.27309V13.3587C9.79066 15.65 11.2604 17.604 13.3061 18.3296V23.3193L4.51687 35.0378C3.38379 36.5505 2.75977 38.423 2.75977 40.31V74.3518C2.75977 79.1979 6.70236 83.1403 11.5483 83.1403H39.7967C43.7379 89.7467 52.2362 91.9577 58.8978 88.1112L80.2088 75.8071C86.8806 71.9543 89.2605 63.3655 85.3553 56.5988ZM13.3061 5.27309C13.3061 4.30383 14.0947 3.51527 15.0637 3.51527H46.7028C47.672 3.51527 48.4606 4.30383 48.4606 5.27309V13.3587C48.4606 14.3279 47.672 15.1163 46.7028 15.1163H15.0639C14.0947 15.1163 13.3063 14.3278 13.3063 13.3587V5.27309H13.3061ZM7.33008 37.1459L16.47 24.9597C16.6982 24.6556 16.8216 24.2854 16.8216 23.905V18.6319H44.9451V22.1474H29.1257C28.1551 22.1474 27.3679 22.9345 27.3679 23.9052C27.3679 24.8759 28.1551 25.663 29.1257 25.663H45.8241L54.4361 37.1454C54.999 37.8969 55.3486 38.796 55.4542 39.7248H6.31266C6.41812 38.7958 6.76775 37.8967 7.33008 37.1459ZM11.5485 79.6249C8.64088 79.6249 6.27539 77.2594 6.27539 74.3518V72.5766H38.2104C37.653 74.8556 37.6567 77.2898 38.295 79.625H11.5485V79.6249ZM39.5891 69.0785H6.27521V43.2399H55.4915V57.6035L44.8358 63.7562C42.6141 65.0396 40.8183 66.8665 39.5891 69.0785ZM57.1403 85.0667C52.0959 87.9796 45.65 86.2569 42.7352 81.209C39.8065 76.1124 41.5814 69.6957 46.594 66.8004L56.1349 61.2918L66.6812 79.5581L57.1403 85.0667ZM78.451 72.7627L69.7257 77.8004L59.1792 59.5338L67.9046 54.4966C72.9524 51.5825 79.396 53.3081 82.3108 58.3562C85.2384 63.4296 83.4581 69.8713 78.451 72.7627Z" fill="currentColor"/>
</g>
<defs>
<clipPath id="clip0">
<rect width="90" height="90" fill="white"/>
</clipPath>
</defs>
</svg>
