<svg width="160" height="160" viewBox="0 0 160 160" fill="none" xmlns="http://www.w3.org/2000/svg">
<path d="M108.638 22.2975C107.501 21.1851 106.06 20.4343 104.497 20.1398C102.934 19.8453 101.319 20.0202 99.855 20.6425C98.4132 21.2256 97.1796 22.2282 96.314 23.5203C95.4485 24.8125 94.9907 26.3347 95 27.89V41.4625L90 36.4625V7.5C90 6.83696 89.7367 6.20107 89.2678 5.73223C88.799 5.26339 88.1631 5 87.5 5C86.837 5 86.2011 5.26339 85.7323 5.73223C85.2634 6.20107 85 6.83696 85 7.5V37.5C85.0002 38.163 85.2637 38.7988 85.7325 39.2675L118.233 71.7675C118.463 72.0063 118.739 72.1967 119.044 72.3278C119.349 72.4588 119.677 72.5277 120.009 72.5306C120.341 72.5335 120.67 72.4703 120.977 72.3446C121.285 72.2189 121.564 72.0332 121.799 71.7985C122.033 71.5638 122.219 71.2846 122.345 70.9774C122.47 70.6701 122.534 70.341 122.531 70.009C122.528 69.677 122.459 69.349 122.328 69.044C122.197 68.739 122.006 68.4631 121.768 68.2325L100 46.4625V27.89C100.001 27.321 100.173 26.7654 100.493 26.2948C100.813 25.8242 101.266 25.4603 101.795 25.25C102.351 25.0058 102.967 24.9343 103.564 25.0449C104.161 25.1555 104.711 25.4429 105.143 25.87C119.349 39.621 130.642 56.0909 138.348 74.2985C146.055 92.5061 150.018 112.079 150 131.85V137.807C150.001 139.687 149.559 141.541 148.711 143.219C147.863 144.896 146.632 146.351 145.118 147.465C143.535 148.656 141.695 149.457 139.745 149.805C137.795 150.152 135.791 150.036 133.895 149.465L109.96 142.438C107.104 141.642 104.586 139.935 102.788 137.578C100.99 135.22 100.012 132.34 100 129.375V73.5325L118.233 91.765C118.704 92.2204 119.336 92.4724 119.991 92.4667C120.647 92.461 121.274 92.1981 121.737 91.7345C122.201 91.271 122.464 90.644 122.469 89.9885C122.475 89.333 122.223 88.7015 121.768 88.23L81.7675 48.23C81.2987 47.7613 80.663 47.498 80 47.498C79.3371 47.498 78.7014 47.7613 78.2325 48.23L38.2326 88.23C37.7772 88.7015 37.5252 89.333 37.5309 89.9885C37.5366 90.644 37.7995 91.271 38.263 91.7345C38.7265 92.1981 39.3536 92.461 40.0091 92.4667C40.6646 92.4724 41.2961 92.2204 41.7676 91.765L60 73.5325V129.375C59.9895 132.341 59.0107 135.222 57.2124 137.581C55.4142 139.94 52.8949 141.647 50.0376 142.443L26.1051 149.47C24.2086 150.04 22.2048 150.155 20.2554 149.808C18.306 149.46 16.4655 148.66 14.8826 147.47C13.3677 146.355 12.1363 144.9 11.2881 143.221C10.44 141.543 9.9987 139.688 10.0001 137.807V131.85C9.98317 112.079 13.946 92.5063 21.6526 74.2988C29.3592 56.0913 40.6518 39.6213 54.8576 25.87C55.1292 25.5935 55.4533 25.3741 55.8109 25.2247C56.1686 25.0753 56.5525 24.9989 56.94 25C57.3739 25.0011 57.8034 25.086 58.2051 25.25C58.734 25.46 59.1878 25.8239 59.5077 26.2945C59.8277 26.7651 59.9992 27.3209 60 27.89V46.4625L38.2326 68.23C37.9938 68.4606 37.8033 68.7365 37.6723 69.0415C37.5413 69.3465 37.4723 69.6746 37.4694 70.0065C37.4665 70.3384 37.5298 70.6676 37.6555 70.9749C37.7812 71.2821 37.9668 71.5613 38.2016 71.796C38.4363 72.0307 38.7154 72.2163 39.0227 72.3421C39.3299 72.4678 39.6591 72.531 39.9911 72.5281C40.323 72.5252 40.6511 72.4563 40.9561 72.3253C41.2611 72.1942 41.5369 72.0038 41.7676 71.765L74.2675 39.265C74.7358 38.7969 74.9992 38.1621 75 37.5V7.5C75 6.83696 74.7367 6.20107 74.2678 5.73223C73.799 5.26339 73.1631 5 72.5 5C71.837 5 71.2011 5.26339 70.7323 5.73223C70.2634 6.20107 70 6.83696 70 7.5V36.4625L65 41.4625V27.89C65.0099 26.3343 64.5524 24.8115 63.6867 23.5189C62.8211 22.2262 61.5873 21.2233 60.1451 20.64C58.6813 20.0177 57.0661 19.8428 55.5031 20.1373C53.9401 20.4318 52.4994 21.1826 51.3626 22.295C36.6778 36.5099 25.005 53.5357 17.0398 72.3575C9.07456 91.1794 4.97999 111.412 5.00007 131.85V137.807C4.99614 140.465 5.61753 143.086 6.81401 145.459C8.0105 147.832 9.74851 149.89 11.8876 151.467C14.9287 153.759 18.6325 154.999 22.4401 155C24.1581 154.998 25.8671 154.751 27.5151 154.265L51.4451 147.25C55.3439 146.155 58.7783 143.816 61.2252 140.589C63.6722 137.363 64.9977 133.425 65 129.375V68.5325L80 53.5325L95 68.5325V129.375C95.0403 133.415 96.3799 137.334 98.8207 140.553C101.261 143.773 104.674 146.121 108.553 147.25L132.5 154.268C134.143 154.751 135.847 154.998 137.56 155C141.368 154.998 145.072 153.757 148.113 151.465C150.251 149.888 151.989 147.83 153.186 145.458C154.382 143.085 155.004 140.465 155 137.807V131.85C155.02 111.413 150.925 91.1803 142.96 72.3589C134.995 53.5375 123.322 36.5121 108.638 22.2975Z" fill="currentColor"/>
<path d="M128.001 102.5C128.001 101.837 127.738 101.201 127.269 100.732C126.8 100.263 126.164 100 125.501 100H122.158C121.571 99.997 121.001 100.202 120.55 100.58C120.099 100.957 119.797 101.482 119.697 102.062C119.597 102.641 119.705 103.237 120.003 103.744C120.301 104.251 120.769 104.636 121.323 104.83V107.863C119.561 108.261 117.96 109.185 116.733 110.513L114.108 109C114.216 108.423 114.116 107.826 113.826 107.315C113.536 106.804 113.074 106.412 112.523 106.209C111.972 106.006 111.366 106.005 110.814 106.205C110.262 106.406 109.798 106.796 109.506 107.305L107.838 110.19C107.555 110.699 107.458 111.291 107.565 111.864C107.671 112.437 107.975 112.954 108.422 113.327C108.87 113.7 109.434 113.905 110.016 113.907C110.599 113.908 111.164 113.706 111.613 113.335L114.203 114.835C113.729 116.58 113.737 118.421 114.226 120.163L111.606 121.663C111.16 121.281 110.592 121.069 110.005 121.066C109.418 121.062 108.848 121.266 108.397 121.642C107.946 122.018 107.642 122.542 107.54 123.12C107.438 123.699 107.543 124.295 107.838 124.803L109.506 127.688C109.796 128.2 110.26 128.593 110.813 128.796C111.367 128.999 111.974 128.999 112.527 128.795C113.08 128.591 113.543 128.198 113.833 127.684C114.122 127.171 114.22 126.571 114.108 125.993L116.723 124.493C117.961 125.773 119.521 126.695 121.238 127.163L121.328 127.18V130.18C120.781 130.379 120.321 130.764 120.029 131.268C119.737 131.772 119.631 132.363 119.73 132.937C119.828 133.511 120.126 134.032 120.57 134.409C121.014 134.786 121.576 134.995 122.158 135H125.501C126.09 135.005 126.662 134.8 127.114 134.422C127.566 134.045 127.869 133.519 127.97 132.938C128.07 132.358 127.961 131.76 127.662 131.253C127.362 130.745 126.892 130.361 126.336 130.168V127.168C127.211 126.942 128.052 126.599 128.836 126.148C129.607 125.687 130.312 125.124 130.931 124.473L133.558 125.988C133.489 126.346 133.501 126.715 133.591 127.069C133.682 127.422 133.849 127.752 134.082 128.033C134.315 128.314 134.607 128.54 134.937 128.696C135.268 128.851 135.628 128.931 135.993 128.93C136.433 128.93 136.864 128.815 137.245 128.596C137.625 128.376 137.941 128.06 138.161 127.68L139.826 124.795C140.123 124.287 140.231 123.69 140.129 123.111C140.028 122.531 139.724 122.006 139.272 121.63C138.82 121.253 138.248 121.049 137.66 121.054C137.072 121.059 136.504 121.273 136.058 121.658L133.458 120.158C133.934 118.413 133.927 116.571 133.438 114.83L136.051 113.33C136.5 113.7 137.065 113.901 137.646 113.899C138.228 113.898 138.792 113.693 139.239 113.321C139.686 112.949 139.989 112.432 140.097 111.86C140.204 111.288 140.108 110.697 139.826 110.188L138.161 107.303C137.997 107.018 137.779 106.769 137.518 106.568C137.258 106.368 136.961 106.222 136.643 106.136C136.326 106.051 135.996 106.029 135.67 106.072C135.344 106.115 135.03 106.221 134.746 106.385C134.302 106.643 133.948 107.033 133.736 107.501C133.523 107.968 133.461 108.491 133.558 108.995L130.938 110.51C129.675 109.215 128.083 108.288 126.333 107.828V104.828C126.818 104.66 127.238 104.346 127.537 103.929C127.836 103.512 127.998 103.013 128.001 102.5ZM128.163 115C128.714 115.953 128.934 117.061 128.791 118.151C128.647 119.242 128.148 120.255 127.371 121.034C126.593 121.812 125.58 122.312 124.49 122.457C123.399 122.601 122.291 122.382 121.338 121.833C120.384 121.283 119.639 120.435 119.216 119.419C118.794 118.403 118.719 117.276 119.002 116.213C119.285 115.15 119.911 114.21 120.783 113.539C121.654 112.867 122.723 112.502 123.823 112.5C124.701 112.5 125.563 112.731 126.323 113.17C127.083 113.609 127.715 114.24 128.153 115H128.163Z" fill="currentColor"/>
<path d="M40.3428 102.5C40.3428 101.837 40.0794 101.201 39.6105 100.732C39.1417 100.263 38.5058 100 37.8428 100H34.5003C33.9124 99.997 33.3425 100.202 32.8919 100.58C32.4412 100.957 32.1389 101.482 32.0388 102.062C31.9387 102.641 32.0471 103.237 32.3449 103.744C32.6427 104.251 33.1105 104.636 33.6653 104.83V107.863C31.9024 108.261 30.3019 109.185 29.0753 110.513L26.4503 109C26.5581 108.423 26.458 107.826 26.1678 107.315C25.8776 106.804 25.4159 106.412 24.8646 106.209C24.3134 106.006 23.708 106.005 23.1558 106.205C22.6036 106.406 22.1403 106.796 21.8478 107.305L20.1803 110.19C19.8967 110.699 19.7999 111.291 19.9065 111.864C20.0131 112.437 20.3164 112.954 20.7641 113.327C21.2117 113.7 21.7756 113.905 22.3583 113.907C22.9409 113.908 23.5058 113.706 23.9553 113.335L26.5453 114.835C26.0709 116.58 26.0787 118.421 26.5678 120.163L23.9478 121.663C23.5013 121.281 22.9342 121.069 22.3469 121.066C21.7596 121.062 21.1899 121.266 20.7387 121.642C20.2875 122.018 19.9839 122.542 19.8817 123.12C19.7795 123.699 19.8853 124.295 20.1803 124.803L21.8478 127.688C22.1382 128.2 22.6015 128.593 23.1549 128.796C23.7083 128.999 24.3159 128.999 24.869 128.795C25.4222 128.591 25.8849 128.198 26.1745 127.684C26.4642 127.171 26.5619 126.571 26.4503 125.993L29.0653 124.493C30.3025 125.773 31.8624 126.695 33.5803 127.163L33.6703 127.18V130.18C33.1229 130.379 32.663 130.764 32.3707 131.268C32.0785 131.772 31.9725 132.363 32.0714 132.937C32.1702 133.511 32.4676 134.032 32.9115 134.409C33.3555 134.786 33.9178 134.995 34.5003 135H37.8328C38.4219 135.005 38.9936 134.8 39.4457 134.422C39.8979 134.045 40.2013 133.519 40.3016 132.938C40.4019 132.358 40.2927 131.76 39.9934 131.253C39.6942 130.745 39.2243 130.361 38.6678 130.168V127.168C39.5432 126.942 40.3841 126.599 41.1678 126.148C41.9393 125.687 42.6441 125.124 43.2628 124.473L45.8903 125.988C45.8213 126.346 45.8325 126.715 45.923 127.069C46.0136 127.422 46.1812 127.752 46.4139 128.033C46.6467 128.314 46.9387 128.54 47.2691 128.696C47.5996 128.851 47.9602 128.931 48.3253 128.93C48.7645 128.93 49.1961 128.815 49.5766 128.596C49.9572 128.376 50.2731 128.06 50.4928 127.68L52.1578 124.795C52.4552 124.287 52.5627 123.69 52.4613 123.111C52.3598 122.531 52.0559 122.006 51.6037 121.63C51.1515 121.253 50.5803 121.049 49.9919 121.054C49.4034 121.059 48.8359 121.273 48.3903 121.658L45.7903 120.158C46.2655 118.413 46.2586 116.571 45.7703 114.83L48.3828 113.33C48.8321 113.7 49.3964 113.901 49.9784 113.899C50.5603 113.898 51.1234 113.693 51.5707 113.321C52.0179 112.949 52.3213 112.432 52.4284 111.86C52.5356 111.288 52.4399 110.697 52.1578 110.188L50.5003 107.305C50.3363 107.021 50.1179 106.771 49.8576 106.571C49.5972 106.371 49.3 106.224 48.9828 106.139C48.6657 106.054 48.3349 106.032 48.0093 106.074C47.6837 106.117 47.3697 106.223 47.0853 106.388C46.6409 106.645 46.2878 107.035 46.075 107.503C45.8622 107.971 45.8003 108.493 45.8978 108.998L43.2778 110.513C42.0141 109.218 40.4224 108.29 38.6728 107.83V104.83C39.1581 104.662 39.5794 104.348 39.8785 103.931C40.1777 103.513 40.3399 103.014 40.3428 102.5ZM40.5053 115C41.0554 115.953 41.2759 117.061 41.1325 118.151C40.9892 119.242 40.49 120.255 39.7124 121.034C38.9348 121.812 37.9222 122.312 36.8314 122.457C35.7407 122.601 34.6328 122.382 33.6794 121.833C32.726 121.283 31.9804 120.435 31.5581 119.419C31.1358 118.403 31.0604 117.276 31.3436 116.213C31.6268 115.15 32.2527 114.21 33.1245 113.539C33.9962 112.867 35.065 112.502 36.1653 112.5C37.0438 112.499 37.907 112.73 38.668 113.169C39.4291 113.608 40.061 114.239 40.5003 115H40.5053Z" fill="currentColor"/>
</svg>
