<svg width="26" height="26" viewBox="0 0 26 26" fill="none" xmlns="http://www.w3.org/2000/svg">
<path d="M13.433 1.75L22.9593 18.25C23.1517 18.5833 22.9112 19 22.5263 19H3.47372C3.08882 19 2.84826 18.5833 3.04071 18.25L12.567 1.75C12.7594 1.41667 13.2406 1.41667 13.433 1.75Z" fill="white" stroke="#C8C8C8"/>
<path d="M13.0311 15.9363C13.6006 15.9363 14.0622 15.4747 14.0622 14.9052C14.0622 14.3357 13.6006 13.8741 13.0311 13.8741C12.4616 13.8741 12 14.3357 12 14.9052C12 15.4747 12.4616 15.9363 13.0311 15.9363Z" fill="#C8C8C8"/>
<path d="M13.0321 13.1867C12.6525 13.1867 12.3447 12.8789 12.3447 12.4992V7.68741C12.3447 7.30779 12.6525 7 13.0321 7C13.4118 7 13.7195 7.30779 13.7195 7.68741V12.4992C13.7195 12.8789 13.4118 13.1867 13.0321 13.1867Z" fill="#C8C8C8"/>
</svg>
