<svg width="20" height="16" viewBox="0 0 20 16" fill="none" xmlns="http://www.w3.org/2000/svg">
<path d="M9.57198 3.07034L9.99999 3.77917L10.428 3.07036C10.7354 2.56131 11.2518 1.87215 12.0172 1.33576L11.7345 0.932443L12.0172 1.33576C12.8089 0.780873 13.7034 0.5 14.6875 0.5C17.4481 0.5 19.5 2.52908 19.5 5.22173C19.5 6.6596 18.871 7.89863 17.6672 9.2149C16.4514 10.5443 14.7009 11.8983 12.532 13.5732L12.8376 13.9689L12.532 13.5732L12.5319 13.5732C11.7993 14.1391 10.9667 14.782 10.1009 15.4682L10.1007 15.4683C10.0794 15.4852 10.044 15.5 10 15.5C9.95596 15.5 9.92065 15.4852 9.89939 15.4684L9.89913 15.4682C9.03394 14.7825 8.20183 14.1399 7.46993 13.5747L7.46847 13.5735L7.46846 13.5735C5.29934 11.8985 3.54869 10.5444 2.33283 9.21494C1.12902 7.89863 0.5 6.6596 0.5 5.22173C0.5 2.52908 2.55189 0.5 5.3125 0.5C6.29657 0.5 7.1911 0.780873 7.98284 1.33576C8.74822 1.87215 9.2646 2.56129 9.57198 3.07034Z" fill="#22AF7A" stroke="#22AF7A"/>
</svg>
