<svg width="25" height="13" viewBox="0 0 25 13" fill="none" xmlns="http://www.w3.org/2000/svg">
<path d="M14.454 6.14047C14.454 4.83818 13.3945 3.77869 12.0923 3.77869C10.79 3.77869 9.73047 4.83818 9.73047 6.14047C9.73047 7.44276 10.79 8.50226 12.0923 8.50226C13.3945 8.50226 14.454 7.44276 14.454 6.14047Z" fill="white"/>
<path d="M0.118325 5.8279C-0.0394418 6.00654 -0.0394418 6.2747 0.118325 6.45334C0.171041 6.513 1.43337 7.93116 3.53635 9.36505C6.05987 11.0857 9.0386 12.2813 12.0923 12.2813C15.1465 12.2813 18.1252 11.0854 20.6483 9.36505C22.7513 7.93121 24.0136 6.51305 24.0663 6.45334C24.2241 6.2747 24.2241 6.00654 24.0663 5.8279C24.0136 5.76824 22.7513 4.35008 20.6483 2.91619C18.1248 1.19563 15.1461 0 12.0923 0C9.03818 0 6.05944 1.19591 3.5364 2.91624C1.43337 4.35008 0.171041 5.76824 0.118325 5.8279ZM6.89641 6.14064C6.89641 3.26252 9.24058 0.944714 12.0923 0.944714C14.9484 0.944714 17.2883 3.26706 17.2883 6.14064C17.2883 9.01876 14.9441 11.3366 12.0923 11.3366C9.23633 11.3366 6.89641 9.01423 6.89641 6.14064ZM20.0952 3.6825C21.5357 4.66198 22.58 5.65232 23.0615 6.14083C22.5834 6.62637 21.5495 7.60717 20.1161 8.58448C19.1349 9.25352 17.8566 9.99097 16.3778 10.534C17.5215 9.41809 18.233 7.86102 18.233 6.14064C18.233 4.42022 17.5215 2.8631 16.3777 1.74715C17.8478 2.28696 19.1188 3.0186 20.0952 3.6825ZM7.80688 1.74725C6.66316 2.86315 5.9517 4.42027 5.9517 6.14064C5.9517 7.86106 6.66316 9.41819 7.80698 10.5341C6.33686 9.99432 5.06589 9.26269 4.08953 8.59879C2.64917 7.6194 1.60479 6.62906 1.12322 6.14045C1.60129 5.65492 2.63519 4.67412 4.06855 3.69681C5.04988 3.02771 6.32817 2.29027 7.80688 1.74725Z" fill="white"/>
</svg>
