<svg width="17" height="23" viewBox="0 0 17 23" fill="none" xmlns="http://www.w3.org/2000/svg">
<path d="M4.55214 8.87063C2.37621 8.87063 0.605469 7.09989 0.605469 4.92396C0.605469 2.74803 2.37621 0.977295 4.55214 0.977295C6.72806 0.977295 8.4988 2.74803 8.4988 4.92396C8.4988 7.09989 6.72806 8.87063 4.55214 8.87063ZM4.55214 3.60841C3.82595 3.60841 3.23658 4.19777 3.23658 4.92396C3.23658 5.65015 3.82595 6.23952 4.55214 6.23952C5.27832 6.23952 5.86769 5.65015 5.86769 4.92396C5.86769 4.19777 5.27832 3.60841 4.55214 3.60841Z" fill="#FAFAFA"/>
<path d="M12.4447 22.0259C10.2688 22.0259 8.49805 20.2552 8.49805 18.0792C8.49805 15.9033 10.2688 14.1326 12.4447 14.1326C14.6206 14.1326 16.3914 15.9033 16.3914 18.0792C16.3914 20.2552 14.6206 22.0259 12.4447 22.0259ZM12.4447 16.7637C11.7212 16.7637 11.1292 17.3557 11.1292 18.0792C11.1292 18.8028 11.7212 19.3948 12.4447 19.3948C13.1683 19.3948 13.7603 18.8028 13.7603 18.0792C13.7603 17.3557 13.1683 16.7637 12.4447 16.7637Z" fill="#FAFAFA"/>
<path d="M1.9218 22.0259C1.65606 22.0259 1.39032 21.947 1.15878 21.7812C0.566783 21.3576 0.429964 20.5367 0.853573 19.9447L14.0091 1.52695C14.4327 0.934947 15.2536 0.798128 15.8456 1.22174C16.4376 1.64272 16.5718 2.46625 16.1509 3.05562L2.9953 21.4734C2.73482 21.8339 2.33226 22.0259 1.9218 22.0259Z" fill="#FAFAFA"/>
</svg>
