<svg width="20" height="16" viewBox="0 0 20 16" fill="none" xmlns="http://www.w3.org/2000/svg">
<path d="M10 16C9.71527 16 9.44077 15.9072 9.22684 15.7388C8.41888 15.1035 7.63992 14.5065 6.95267 13.9799L6.94916 13.9772C4.93423 12.4332 3.19427 11.0998 1.98364 9.7863C0.630341 8.31791 0 6.92567 0 5.40473C0 3.92701 0.563507 2.56372 1.58661 1.56581C2.62192 0.556101 4.04251 0 5.58716 0C6.74164 0 7.79892 0.328199 8.72955 0.975406C9.19922 1.3021 9.62494 1.70192 10 2.16828C10.3752 1.70192 10.8008 1.3021 11.2706 0.975406C12.2012 0.328199 13.2585 0 14.413 0C15.9575 0 17.3782 0.556101 18.4135 1.56581C19.4366 2.56372 20 3.92701 20 5.40473C20 6.92567 19.3698 8.31791 18.0165 9.78616C16.8059 11.0998 15.0661 12.433 13.0515 13.9769C12.363 14.5043 11.5828 15.1023 10.773 15.739C10.5592 15.9072 10.2846 16 10 16ZM5.58716 1.05348C4.37363 1.05348 3.25882 1.48897 2.44781 2.27983C1.62476 3.08263 1.17142 4.19236 1.17142 5.40473C1.17142 6.68391 1.70013 7.82794 2.88559 9.11412C4.03137 10.3574 5.73563 11.6633 7.70889 13.1755L7.71255 13.1782C8.4024 13.7069 9.18442 14.3062 9.99832 14.9461C10.8171 14.3049 11.6003 13.7047 12.2916 13.1752C14.2647 11.663 15.9688 10.3574 17.1146 9.11412C18.2999 7.82794 18.8286 6.68391 18.8286 5.40473C18.8286 4.19236 18.3752 3.08263 17.5522 2.27983C16.7413 1.48897 15.6264 1.05348 14.413 1.05348C13.524 1.05348 12.7078 1.30758 11.9872 1.80866C11.3449 2.25541 10.8975 2.82016 10.6352 3.21531C10.5003 3.41852 10.2629 3.53981 10 3.53981C9.73709 3.53981 9.49966 3.41852 9.36478 3.21531C9.10263 2.82016 8.65524 2.25541 8.01285 1.80866C7.29218 1.30758 6.47598 1.05348 5.58716 1.05348Z" fill="#2FC089"/>
</svg>
