<svg width="160" height="160" viewBox="0 0 160 160" fill="none" xmlns="http://www.w3.org/2000/svg">
<path d="M160.001 74.6653C160.001 15.2801 125.301 10.6654 114.667 10.6654C106.199 10.8361 98.0289 13.8157 91.4395 19.1367C89.9761 14.3764 88.9329 9.71482 88.3823 7.03764C87.7792 4.08389 85.562 1.72296 82.6517 0.936084C77.8067 -0.198914 72.7764 -0.299226 67.8902 0.64171C63.8974 1.47921 61.1605 5.16889 61.5177 9.23294C62.7261 22.496 69.812 37.9101 75.5423 48.5063C77.8611 52.7482 79.7195 57.2257 81.0851 61.8632C82.0939 65.1488 82.6267 68.5619 82.667 71.9985C82.6636 75.4347 82.1839 78.8538 81.2423 82.1584C81.2255 82.2063 81.1892 82.2409 81.1748 82.29C79.7414 87.3066 77.2339 91.9512 73.8264 95.9022C73.683 96.0647 73.5436 96.234 73.3977 96.3922C73.1152 96.7019 72.8236 96.9937 72.533 97.2875C72.1805 97.64 71.8255 97.9862 71.463 98.3137C71.2886 98.4728 71.1142 98.6315 70.9374 98.785C69.163 100.338 67.1667 101.618 65.0149 102.584L64.9824 102.597C64.3508 102.869 63.7042 103.105 63.0461 103.304C62.9458 103.334 62.8452 103.366 62.7442 103.394C62.1889 103.551 61.6258 103.677 61.0567 103.772C60.9217 103.794 60.7864 103.827 60.6514 103.846C59.9946 103.943 59.3311 103.995 58.6671 103.998C55.5874 103.998 52.5514 103.267 49.809 101.866C45.084 99.6215 39.8958 98.525 34.6671 98.665C22.3406 98.5281 10.4903 103.42 1.84935 112.212C0.657478 113.652 0.00404202 115.462 0.000292029 117.332L0.000292029 127.998C-0.0231454 130.679 1.3656 133.174 3.65591 134.568C3.90153 134.723 4.1556 134.864 4.41685 134.99C7.32684 136.341 10.7587 135.858 13.1825 133.756C15.6196 131.774 18.294 130.102 21.144 128.781C25.3502 126.669 29.9634 125.493 34.6668 125.331C43.7774 125.331 46.8349 130.831 51.0652 138.446C56.4024 148.048 63.0442 159.998 85.3333 159.998C86.7826 159.998 88.2114 159.972 89.6198 159.919C130.554 158.489 153.789 136.288 158.907 93.8212C158.944 93.52 158.971 93.2087 159.006 92.9056C159.132 91.7981 159.258 90.6912 159.36 89.5562C159.473 88.3184 159.561 87.0563 159.643 85.7869C159.662 85.4884 159.69 85.1997 159.708 84.8997L159.716 84.7894L159.714 84.7619C159.903 81.5013 159.999 78.1353 160.001 74.6653ZM153.8 91.2556C153.646 92.6944 153.464 94.1019 153.267 95.4919C153.059 96.9462 152.827 98.374 152.571 99.7753C152.392 100.764 152.202 101.741 152 102.705C151.635 104.431 151.231 106.113 150.787 107.75C150.598 108.455 150.413 109.163 150.211 109.852C149.877 110.987 149.528 112.105 149.156 113.197C149.077 113.427 148.988 113.645 148.908 113.873C148.193 115.911 147.413 117.876 146.567 119.766C146.357 120.233 146.134 120.686 145.916 121.143C145.165 122.719 144.367 124.24 143.521 125.708C143.233 126.205 142.938 126.693 142.639 127.178C141.831 128.489 140.981 129.753 140.089 130.97C139.692 131.512 139.292 132.052 138.878 132.577C138.143 133.51 137.382 134.413 136.595 135.285C135.955 135.995 135.305 136.694 134.632 137.365C134.057 137.94 133.472 138.504 132.872 139.05C131.913 139.921 130.924 140.756 129.904 141.557C129.347 141.994 128.771 142.411 128.194 142.826C127.06 143.639 125.907 144.43 124.7 145.16C124.213 145.456 123.703 145.726 123.203 146.008C122.045 146.66 120.861 147.283 119.639 147.861C119.143 148.097 118.645 148.33 118.139 148.553C116.737 149.17 115.294 149.738 113.809 150.259C113.396 150.405 112.992 150.56 112.573 150.699C110.91 151.248 109.19 151.732 107.429 152.166C107.004 152.272 106.579 152.377 106.149 152.476C104.33 152.891 102.462 153.247 100.544 153.545C100.154 153.605 99.7576 153.659 99.3629 153.714C97.3514 153.996 95.2964 154.226 93.1761 154.38C92.8948 154.4 92.6051 154.411 92.322 154.429C90.0489 154.575 87.7298 154.665 85.3336 154.665C66.1827 154.665 60.8674 145.103 55.7283 135.855C51.3949 128.058 46.9158 119.998 34.6671 119.998C27.6809 120.256 20.8849 122.345 14.9606 126.056C13.1318 127.126 11.3887 128.336 9.74652 129.675C9.33278 130.027 8.83028 130.258 8.29403 130.344C7.93871 130.407 7.57465 130.402 7.22153 130.329C7.03122 130.291 6.84528 130.232 6.66715 130.155C5.82122 129.779 5.29216 128.923 5.33372 127.998V117.332C5.33341 116.703 5.55466 116.095 5.95872 115.613C13.5493 107.997 23.9159 103.803 34.6671 103.999C39.1668 103.869 43.6324 104.816 47.6918 106.762C51.1036 108.452 54.8596 109.331 58.6671 109.332C59.5046 109.326 60.3405 109.266 61.1702 109.153C61.4786 109.115 61.7839 109.06 62.0905 109.007C62.5924 108.92 63.0924 108.813 63.5899 108.688C63.9705 108.594 64.3508 108.505 64.7277 108.39C65.0633 108.287 65.3946 108.157 65.728 108.037C66.6655 107.704 67.5817 107.314 68.4714 106.868C68.6264 106.791 68.783 106.719 68.9374 106.637C69.5089 106.337 70.0705 106.013 70.6267 105.667C70.7295 105.603 70.8305 105.536 70.9327 105.471C72.7077 104.328 74.3617 103.008 75.8692 101.53C76.0086 101.395 76.1492 101.262 76.287 101.124C76.7317 100.676 77.1667 100.214 77.5917 99.7378C77.8023 99.5022 78.0067 99.2575 78.2127 99.0147C78.5961 98.5615 78.9808 98.1128 79.3461 97.6365C79.8605 96.9687 80.3567 96.2781 80.8355 95.565C81.0883 95.1872 81.3223 94.7919 81.5642 94.4028C81.8579 93.9312 82.1473 93.4569 82.4242 92.9684C82.653 92.5644 82.8739 92.1559 83.0905 91.7419C83.3586 91.2294 83.6136 90.7062 83.8629 90.1778C84.0554 89.77 84.253 89.3675 84.4336 88.9516C84.7608 88.1956 85.0648 87.4228 85.352 86.6387C85.3936 86.5256 85.4442 86.4178 85.4848 86.3044C87.3736 87.0962 89.1639 88.1056 90.8192 89.3116C93.8014 91.7462 97.4879 93.1559 101.334 93.3325C105.179 93.1562 108.866 91.7453 111.847 89.3091C118.086 84.0069 127.248 84.0069 133.487 89.3091C136.468 91.7453 140.154 93.1562 144 93.3325C147.627 93.2022 151.118 91.9225 153.969 89.6784C153.918 90.2097 153.857 90.7303 153.8 91.2556ZM154.448 83.0556C153.429 83.6534 152.463 84.2681 151.551 84.8788C149.429 86.6928 146.784 87.7853 144.001 87.9984C141.221 87.785 138.581 86.6934 136.463 84.8812C128.418 78.3709 116.917 78.3709 108.872 84.8812C106.753 86.6934 104.114 87.785 101.334 87.9984C98.5535 87.785 95.9129 86.6944 93.7923 84.8838C91.6795 83.3547 89.377 82.1069 86.9426 81.1716C87.6314 78.1622 87.9861 75.0856 88.0008 71.9985C87.9623 68.0622 87.3595 64.1516 86.2104 60.3866C84.7389 55.3813 82.7355 50.5482 80.2339 45.9701C74.7405 35.8138 67.9552 21.1107 66.8302 8.74888C66.7155 7.37607 67.6467 6.13482 68.9967 5.86076C73.0461 5.08326 77.213 5.1567 81.2323 6.07701C82.2067 6.33732 82.9514 7.12389 83.1583 8.11076C84.292 13.7367 85.7989 19.2811 87.6686 24.707C87.9767 25.5626 88.6995 26.2023 89.5861 26.4048C90.4726 26.6073 91.4014 26.3442 92.0501 25.707C98.0676 19.6936 106.163 16.2186 114.667 15.9986C139.714 15.9986 154.667 37.9307 154.667 74.665C154.667 77.5441 154.585 80.3309 154.448 83.0556Z" fill="currentColor"/>
<path d="M85.3345 109.331C86.8072 109.331 88.0011 108.137 88.0011 106.664C88.0011 105.191 86.8072 103.998 85.3345 103.998C83.8618 103.998 82.668 105.191 82.668 106.664C82.668 108.137 83.8618 109.331 85.3345 109.331Z" fill="currentColor"/>
<path d="M130.667 109.331C132.139 109.331 133.333 108.137 133.333 106.664C133.333 105.191 132.139 103.998 130.667 103.998C129.194 103.998 128 105.191 128 106.664C128 108.137 129.194 109.331 130.667 109.331Z" fill="currentColor"/>
<path d="M109.335 117.331C110.807 117.331 112.001 116.137 112.001 114.664C112.001 113.192 110.807 111.998 109.335 111.998C107.862 111.998 106.668 113.192 106.668 114.664C106.668 116.137 107.862 117.331 109.335 117.331Z" fill="currentColor"/>
<path d="M125.335 133.331C126.807 133.331 128.001 132.137 128.001 130.664C128.001 129.191 126.807 127.998 125.335 127.998C123.862 127.998 122.668 129.191 122.668 130.664C122.668 132.137 123.862 133.331 125.335 133.331Z" fill="currentColor"/>
<path d="M88.0005 127.998C89.4732 127.998 90.6671 126.804 90.6671 125.331C90.6671 123.858 89.4732 122.664 88.0005 122.664C86.5278 122.664 85.334 123.858 85.334 125.331C85.334 126.804 86.5278 127.998 88.0005 127.998Z" fill="currentColor"/>
<path d="M104.001 143.998C105.473 143.998 106.667 142.804 106.667 141.331C106.667 139.858 105.473 138.664 104.001 138.664C102.528 138.664 101.334 139.858 101.334 141.331C101.334 142.804 102.528 143.998 104.001 143.998Z" fill="currentColor"/>
<path d="M66.6685 125.331C68.1412 125.331 69.3351 124.137 69.3351 122.664C69.3351 121.192 68.1412 119.998 66.6685 119.998C65.1958 119.998 64.002 121.192 64.002 122.664C64.002 124.137 65.1958 125.331 66.6685 125.331Z" fill="currentColor"/>
<path d="M77.3345 143.998C78.8072 143.998 80.0011 142.804 80.0011 141.331C80.0011 139.858 78.8072 138.664 77.3345 138.664C75.8618 138.664 74.668 139.858 74.668 141.331C74.668 142.804 75.8618 143.998 77.3345 143.998Z" fill="currentColor"/>
</svg>
