<svg width="160" height="160" viewBox="0 0 160 160" fill="none" xmlns="http://www.w3.org/2000/svg">
<path d="M79.6388 51.6206C82.7104 53.0902 86.2354 53.0905 89.3076 51.6206C100.242 46.3905 109.553 36.8839 109.821 24.5997C109.857 22.9729 109.647 21.3609 109.198 19.8076C108.839 18.5643 107.539 17.8472 106.296 18.2068C105.053 18.5662 104.336 19.8654 104.696 21.1091C105.013 22.2058 105.161 23.346 105.136 24.4972C104.841 37.9591 91.398 45.4246 87.285 47.3923C85.4983 48.2472 83.4484 48.2472 81.6611 47.3923C77.548 45.4246 64.1046 37.9591 63.8109 24.4972C63.6756 18.3052 68.5548 13.1129 74.7196 13.0917C77.3599 13.0804 79.9106 14.0253 81.9061 15.7461C83.3697 17.0088 85.577 17.0085 87.04 15.7461C90.2878 12.9448 94.913 12.2917 98.7755 14.1147C99.9451 14.6668 101.342 14.1663 101.895 12.9957C102.448 11.8252 101.946 10.4285 100.776 9.87602C95.4414 7.3575 89.0998 8.11806 84.473 11.7877C81.7155 9.60011 78.2927 8.40397 74.7577 8.40397C74.7395 8.40397 74.7211 8.40397 74.703 8.40397C65.8807 8.43459 58.9329 15.8199 59.125 24.599C59.3941 36.9167 68.747 46.4105 79.6388 51.6206ZM146.084 53.2914C142.727 49.9348 137.296 48.66 131.187 49.7933C125.418 50.8632 119.618 53.9685 115.274 58.3125C106.925 66.6611 106.762 76.4655 114.836 84.5395C122.9 92.6028 132.703 92.4606 141.063 84.1017C145.407 79.7574 148.512 73.9573 149.582 68.1885C150.716 62.0778 149.441 56.648 146.085 53.2914C146.084 53.2914 146.084 53.2914 146.084 53.2914ZM137.749 80.7876C129.469 89.0672 122.521 85.596 118.151 81.2254C113.78 76.8552 110.308 69.9074 118.588 61.6269C125.961 54.2544 137.768 51.6034 142.77 56.6058C147.694 61.5303 145.254 73.2821 137.749 80.7876ZM153.155 46.2211C142.332 35.399 121.747 37.6988 108.204 51.2422C99.5057 59.9405 96.3348 71.0751 101.122 82.0085L88.1568 94.9742C85.4917 93.8677 82.421 94.0155 79.8528 95.44L68.9323 84.5195C74.224 76.2496 73.2641 65.1069 66.0428 57.8857L41.8797 33.7226C38.9672 30.8097 34.0964 30.7841 31.1889 33.9788C28.5316 36.8985 28.6828 41.4188 31.5338 44.2697L46.4278 59.1634C47.552 60.2876 47.552 62.1169 46.4281 63.2411C45.3032 64.3657 43.474 64.3651 42.3503 63.2414L27.4664 48.3575C24.5248 45.4159 19.7396 45.4165 16.798 48.3575C13.857 51.2988 13.857 56.0846 16.798 59.0256L31.6816 73.9092C32.8059 75.0335 32.8059 76.8627 31.6816 77.987C30.5558 79.1134 28.7306 79.114 27.6042 77.987L12.7102 63.093C9.85957 60.242 5.33936 60.0908 2.41931 62.7477C-0.772271 65.6525 -0.752898 70.5226 2.16308 73.4386L26.3259 97.6017C33.534 104.809 44.6639 105.8 52.96 100.491L62.8269 110.358L53.2181 118.96C50.8817 121.051 49.2075 123.746 48.3763 126.752C48.0314 128 48.7629 129.291 50.0106 129.636C51.2598 129.981 52.5491 129.249 52.8941 128.002C53.4856 125.863 54.6789 123.944 56.3444 122.453L81.2368 100.17C83.1625 98.446 86.1023 98.5273 87.9296 100.355L99.0211 111.446C100.849 113.273 100.93 116.213 99.2064 118.139L76.9231 143.032C72.5004 147.972 64.7961 148.259 60.0359 143.498C56.3956 139.749 55.2995 139.054 54.1261 137.103C53.4587 135.994 52.0188 135.636 50.9099 136.303C49.8009 136.97 49.4428 138.41 50.1096 139.519C51.7076 142.176 53.2781 143.236 56.7215 146.813C63.3309 153.422 74.1456 153.162 80.415 146.158L84.1649 141.969L88.0024 146.256C94.1359 153.107 104.761 153.407 111.269 146.899L115.339 142.829C121.824 136.344 121.581 125.726 114.696 119.563L104.861 110.759L117.367 98.2538C128.367 103.071 139.506 99.7993 148.133 91.1723C160.769 78.5357 164.659 57.7254 153.155 46.2211ZM29.6406 94.288L5.47747 70.1249C4.39132 69.0384 4.42257 67.2629 5.57465 66.2146C6.62924 65.2544 8.34471 65.3556 9.39586 66.4077L24.2898 81.3017C27.2483 84.2601 32.0372 84.2608 34.9963 81.3017C37.9476 78.3501 37.9476 73.5471 34.9963 70.5954L20.1127 55.7118C18.9987 54.5982 18.9987 52.7858 20.1127 51.6722C21.226 50.5582 23.039 50.5588 24.152 51.6722L39.0359 66.5558C41.9879 69.5071 46.7902 69.5071 49.7425 66.5558C52.6938 63.6042 52.6938 58.8012 49.7425 55.8496L34.8485 40.9557C33.7886 39.8958 33.7021 38.1815 34.6557 37.1338C35.7206 35.9639 37.4998 35.9705 38.5657 37.037L62.7288 61.2001C69.2363 67.7076 69.2363 78.296 62.7288 84.8035L53.244 94.288C46.7368 100.795 36.1475 100.795 29.6406 94.288ZM66.3247 107.228L56.6287 97.5314L65.9722 88.1882L76.185 98.401L66.3247 107.228ZM104.881 117.066L111.57 123.054C116.404 127.381 116.648 134.891 112.025 139.514L107.954 143.584C103.303 148.236 95.7954 147.934 91.4946 143.129L87.3103 138.455L102.698 121.265C103.804 120.03 104.529 118.581 104.881 117.066ZM101.597 107.394L91.9814 97.7783L103.451 86.309C105.92 90.094 109.278 93.4527 113.067 95.925L101.597 107.394ZM155.06 67.5814C154.114 74.9054 150.381 82.2959 144.819 87.8576C133.913 98.7638 120.751 97.9667 111.08 88.2957C101.383 78.5991 100.637 65.4378 111.518 54.5563C122.624 43.4501 140.513 40.2076 149.84 49.5352C154.154 53.8485 156.007 60.2573 155.06 67.5814Z" fill="currentColor"/>
</svg>
