<svg width="38" height="38" viewBox="0 0 38 38" fill="none" xmlns="http://www.w3.org/2000/svg">
<g clip-path="url(#clip0)">
<path d="M16.6248 38C11.5486 38 6.77806 36.0239 3.1886 32.4345C2.87984 32.1257 2.87984 31.6239 3.1886 31.3151C3.49736 31.0063 3.99921 31.0063 4.30797 31.3151C7.59824 34.6054 11.9731 36.4168 16.6248 36.4168C21.2765 36.4168 25.6499 34.6054 28.9399 31.3151C32.2302 28.0251 34.0416 23.6517 34.0416 19C34.0416 14.3483 32.2302 9.97343 28.9399 6.68317C25.6499 3.39319 21.2765 1.58324 16.6248 1.58324C11.9731 1.58324 7.59969 3.39464 4.30971 6.68491C4.00095 6.99367 3.4991 6.99367 3.19034 6.68491C2.88158 6.37614 2.88158 5.8743 3.19034 5.56554C6.77951 1.97607 11.5501 0 16.6248 0C21.701 0 26.4715 1.97607 30.061 5.56554C33.6505 9.15471 35.6248 13.9253 35.6248 19C35.6248 24.0747 33.6487 28.8453 30.0593 32.4345C26.4701 36.0239 21.6995 38 16.6248 38Z" fill="#22AF7A"/>
<path d="M9.5 7.91676H3.16676C2.72957 7.91676 2.375 7.5619 2.375 7.125V0.791763C2.375 0.354568 2.72957 0 3.16676 0C3.60367 0 3.95824 0.354568 3.95824 0.791763V6.33324H9.5C9.9369 6.33324 10.2918 6.6881 10.2918 7.125C10.2918 7.5619 9.9369 7.91676 9.5 7.91676Z" fill="#22AF7A"/>
</g>
<defs>
<clipPath id="clip0">
<rect width="38" height="38" fill="white"/>
</clipPath>
</defs>
</svg>
