<svg width="32" height="32" viewBox="0 0 32 32" fill="none" xmlns="http://www.w3.org/2000/svg">
<path d="M16 32C7.17725 32 0 24.8228 0 16C0 7.17725 7.17725 0 16 0C24.8228 0 32 7.17725 32 16C32 24.8228 24.8228 32 16 32ZM16 2C8.28003 2 2 8.28003 2 16C2 23.72 8.28003 30 16 30C23.72 30 30 23.72 30 16C30 8.28003 23.72 2 16 2Z" fill="currentColor"/>
<path d="M23 17H9C8.448 17 8 16.552 8 16C8 15.448 8.448 15 9 15H23C23.552 15 24 15.448 24 16C24 16.552 23.552 17 23 17Z" fill="currentColor"/>
<path d="M16 24C15.448 24 15 23.552 15 23V9C15 8.448 15.448 8 16 8C16.552 8 17 8.448 17 9V23C17 23.552 16.552 24 16 24Z" fill="currentColor"/>
</svg>
