<svg width="122" height="150" viewBox="0 0 122 150" fill="none" xmlns="http://www.w3.org/2000/svg">
<path d="M13.4299 35.7079H90.0301C91.2602 35.7079 92.2569 34.7109 92.2569 33.4811V7.29425C92.2569 3.27214 88.9845 0 84.9623 0H31.5408C30.3107 0 29.314 0.996991 29.314 2.22675C29.314 3.45651 30.3107 4.4535 31.5408 4.4535H84.9626C86.5291 4.4535 87.8034 5.7278 87.8034 7.29425V31.2544H15.6566V7.29425C15.6566 5.7278 16.9309 4.4535 18.4971 4.4535H24.1177C25.3477 4.4535 26.3444 3.45651 26.3444 2.22675C26.3444 0.996991 25.3477 0 24.1177 0H18.4971C14.475 0 11.2031 3.27214 11.2031 7.29425V33.4811C11.2031 34.7109 12.1998 35.7079 13.4299 35.7079Z" fill="currentColor"/>
<path d="M73.7013 145.481H13.5401C8.52965 145.481 4.4535 141.405 4.4535 136.394V54.2956C4.4535 49.2851 8.52965 45.209 13.5401 45.209H89.9201C94.9306 45.209 99.0067 49.2851 99.0067 54.2956V67.6249C99.0067 68.8547 100.003 69.8517 101.233 69.8517C102.464 69.8517 103.46 68.8547 103.46 67.6249V54.2956C103.46 46.8294 97.3859 40.7554 89.9201 40.7554H13.5401C6.07428 40.7554 0 46.8294 0 54.2956V136.394C0 143.861 6.07428 149.935 13.5401 149.935H73.7013C74.9314 149.935 75.9281 148.938 75.9281 147.708C75.9281 146.478 74.9311 145.481 73.7013 145.481Z" fill="currentColor"/>
<path d="M101.233 72.821C100.003 72.821 99.0059 73.818 99.0059 75.0478V121.067C99.0059 122.297 100.003 123.294 101.233 123.294C102.463 123.294 103.459 122.297 103.459 121.067V75.0478C103.459 73.8177 102.463 72.821 101.233 72.821Z" fill="currentColor"/>
<path d="M18.625 23.3866C18.625 24.6163 19.6217 25.6133 20.8518 25.6133H82.607C83.8371 25.6133 84.8337 24.6163 84.8337 23.3866C84.8337 22.1568 83.8371 21.1598 82.607 21.1598H20.8518C19.6217 21.1598 18.625 22.1568 18.625 23.3866Z" fill="currentColor"/>
<path d="M34.211 71.9773C45.0978 71.9773 53.9549 80.8344 53.9549 91.7211C53.9549 92.9509 54.9516 93.9479 56.1817 93.9479C57.4117 93.9479 58.4084 92.9509 58.4084 91.7211C58.4084 78.3787 47.5534 67.5238 34.211 67.5238C20.8686 67.5238 10.0137 78.3787 10.0137 91.7211C10.0137 103.814 19.0412 114.126 31.0131 115.709C31.112 115.722 31.2103 115.728 31.3076 115.728C32.4077 115.728 33.3643 114.913 33.5124 113.793C33.6736 112.574 32.8156 111.455 31.5965 111.294C21.8312 110.003 14.4675 101.589 14.4675 91.7211C14.4672 80.8344 23.3243 71.9773 34.211 71.9773Z" fill="currentColor"/>
<path d="M54.3266 134.613C65.0768 134.613 73.8229 125.867 73.8229 115.117C73.8229 104.367 65.0768 95.6208 54.3266 95.6208C43.5762 95.6208 34.8301 104.367 34.8301 115.117C34.8301 125.867 43.5762 134.613 54.3266 134.613ZM54.3266 100.074C62.6214 100.074 69.3694 106.823 69.3694 115.117C69.3694 123.412 62.6211 130.16 54.3266 130.16C46.0321 130.16 39.2836 123.412 39.2836 115.117C39.2836 106.823 46.0318 100.074 54.3266 100.074Z" fill="currentColor"/>
<path d="M75.5852 105.482C75.8153 105.482 76.0496 105.446 76.2806 105.37C85.7701 102.253 92.1457 93.4425 92.1457 83.4474C92.1457 70.7255 81.7958 60.3758 69.0739 60.3758C62.027 60.3758 55.4578 63.5349 51.0506 69.0427C50.2822 70.0028 50.4381 71.4042 51.3982 72.1726C52.3581 72.941 53.7595 72.7854 54.5282 71.8252C58.0853 67.3794 63.3871 64.8296 69.0739 64.8296C79.3401 64.8296 87.6922 73.1817 87.6922 83.4477C87.6922 91.5141 82.5478 98.624 74.8908 101.14C73.7222 101.524 73.0865 102.782 73.4704 103.95C73.778 104.887 74.6494 105.482 75.5852 105.482Z" fill="currentColor"/>
<path d="M109.769 125.845H87.5446C80.9033 125.845 75.5 131.249 75.5 137.89C75.5 144.531 80.9033 149.935 87.5446 149.935H109.769C116.411 149.935 121.814 144.531 121.814 137.89C121.814 131.248 116.411 125.845 109.769 125.845ZM79.9532 137.89C79.9532 133.704 83.3586 130.299 87.5443 130.299H96.4303V145.481H87.5443C83.3586 145.481 79.9532 142.076 79.9532 137.89ZM109.769 145.481H100.884V130.299H109.769C113.955 130.299 117.361 133.704 117.361 137.89C117.361 142.076 113.955 145.481 109.769 145.481Z" fill="currentColor"/>
<path d="M40.0651 96.1728C40.0651 94.5467 39.3172 93.7896 37.7116 93.7896C35.7633 93.7896 35.4602 94.9992 35.4207 95.5092C35.2871 96.9845 34.992 98.2057 32.729 98.2057C30.7249 98.2057 29.8313 97.2476 29.8313 95.0992V86.4167C29.8313 84.268 30.7065 83.3099 32.6693 83.3099C34.4724 83.3099 35.3207 84.0786 35.4186 85.7911C35.4359 86.2029 35.6541 87.547 37.7416 87.547C39.3484 87.547 40.0651 86.8118 40.0651 85.1637C40.0651 81.5469 36.975 79.0212 32.55 79.0212C27.9376 79.0212 25.1836 81.7859 25.1836 86.417V95.0995C25.1836 99.7997 27.8578 102.495 32.52 102.495C36.9625 102.495 40.0651 99.895 40.0651 96.1728Z" fill="currentColor"/>
<path d="M72.8229 71.7653H67.3926C66.1497 71.7653 65.248 72.5167 65.248 73.5517V93.3036C65.248 94.305 66.1699 95.0603 67.3926 95.0603H73.4493C77.757 95.0603 80.1293 92.5714 80.1293 88.0523V87.4855C80.1293 85.0563 79.4001 83.4438 77.7968 82.4168C78.9518 81.3777 79.5922 79.7171 79.5922 77.6691C79.5922 73.7518 77.3147 71.7653 72.8229 71.7653ZM69.8654 76.0546H72.6141C74.68 76.0546 74.9451 77.1887 74.9451 78.1765C74.9451 79.8104 74.2658 80.5075 72.6741 80.5075H69.8657V76.0546H69.8654ZM75.4822 87.8139C75.4822 89.8592 74.6714 90.7713 72.8528 90.7713H69.8654V84.4981H72.8528C75.0354 84.4981 75.4822 85.6329 75.4822 87.3365V87.8139Z" fill="currentColor"/>
<path d="M54.0264 125.573H58.7673C63.0207 125.573 65.4597 123.153 65.4597 118.934V111.301C65.4597 107.082 63.0204 104.662 58.7673 104.662H54.0264C52.9471 104.662 52.1016 105.354 52.1016 106.239V123.996C52.1013 124.88 52.9468 125.573 54.0264 125.573ZM56.273 108.512H58.7673C60.4872 108.512 61.2882 109.398 61.2882 111.3V118.933C61.2882 120.836 60.4872 121.722 58.7673 121.722H56.273V108.512Z" fill="currentColor"/>
</svg>
