<svg width="90" height="90" viewBox="0 0 90 90" fill="none" xmlns="http://www.w3.org/2000/svg">
<path d="M88.5 27H87V10.5C87 9.67163 86.3284 9 85.5 9H60V1.5C60 0.671631 59.3284 0 58.5 0H31.5C30.6716 0 30 0.671631 30 1.5V9H4.5C3.67163 9 3 9.67163 3 10.5V27H1.5C0.671631 27 0 27.6716 0 28.5V34.5C0 35.3284 0.671631 36 1.5 36H3V88.5C3 89.3284 3.67163 90 4.5 90H85.5C86.3284 90 87 89.3284 87 88.5V36H88.5C89.3284 36 90 35.3284 90 34.5V28.5C90 27.6716 89.3284 27 88.5 27ZM60 12H84V27H60V12ZM33 3H57V27H33V3ZM6 12H30V27H6V12ZM73.5 87H54V75H73.5V87ZM73.5 72H54V57H73.5V72ZM73.5 54H54V46.5H73.5V54ZM84 87H76.5V45C76.5 44.1716 75.8284 43.5 75 43.5H52.5C51.6716 43.5 51 44.1716 51 45V87H6V36H84V87ZM87 33H3V30H87V33Z" fill="currentColor"/>
<path d="M15 76.5H42C42.8284 76.5 43.5 75.8284 43.5 75V67.5C43.5 66.6716 42.8284 66 42 66H40.5V45C40.5 44.1716 39.8284 43.5 39 43.5H18C17.1716 43.5 16.5 44.1716 16.5 45V66H15C14.1716 66 13.5 66.6716 13.5 67.5V75C13.5 75.8284 14.1716 76.5 15 76.5ZM19.5 46.5H37.5V66H19.5V46.5ZM16.5 69H40.5V73.5H16.5V69Z" fill="currentColor"/>
<path d="M69 66C69.8284 66 70.5 65.3284 70.5 64.5V63C70.5 62.1716 69.8284 61.5 69 61.5C68.1716 61.5 67.5 62.1716 67.5 63V64.5C67.5 65.3284 68.1716 66 69 66Z" fill="currentColor"/>
<path d="M52.5 10.5H49.5V7.5C49.5 6.67163 48.8284 6 48 6H42C41.1716 6 40.5 6.67163 40.5 7.5V10.5H37.5C36.6716 10.5 36 11.1716 36 12V18C36 18.8284 36.6716 19.5 37.5 19.5H40.5V22.5C40.5 23.3284 41.1716 24 42 24H48C48.8284 24 49.5 23.3284 49.5 22.5V19.5H52.5C53.3284 19.5 54 18.8284 54 18V12C54 11.1716 53.3284 10.5 52.5 10.5ZM51 16.5H48C47.1716 16.5 46.5 17.1716 46.5 18V21H43.5V18C43.5 17.1716 42.8284 16.5 42 16.5H39V13.5H42C42.8284 13.5 43.5 12.8284 43.5 12V9H46.5V12C46.5 12.8284 47.1716 13.5 48 13.5H51V16.5Z" fill="currentColor"/>
</svg>
