<svg width="90" height="90" viewBox="0 0 90 90" fill="none" xmlns="http://www.w3.org/2000/svg">
<g clip-path="url(#clip0)">
<path d="M75.2033 41.6654V34.4705H77.5183C79.36 34.4705 80.8581 32.9723 80.8581 31.1307V17.4026C80.8581 15.5609 79.36 14.0628 77.5183 14.0628H66.5594C68.8312 11.8344 70.2441 8.73352 70.2441 5.30759C70.2441 4.33677 69.4571 3.54981 68.4863 3.54981C67.5155 3.54981 66.7285 4.33677 66.7285 5.30759C66.7285 8.59166 64.9101 11.4576 62.2281 12.9555C62.8988 11.7149 63.2803 10.296 63.2803 8.78941C63.2803 3.9432 59.3376 0.000488281 54.4913 0.000488281C50.5186 0.000488281 47.1547 2.6507 46.0707 6.2756C44.543 4.9933 42.5751 4.21917 40.4291 4.21917C38.283 4.21917 36.3151 4.9933 34.7874 6.2756C33.7034 2.6507 30.3395 0.000488281 26.3668 0.000488281C21.5206 0.000488281 17.5779 3.9432 17.5779 8.78941C17.5779 10.296 17.9593 11.7151 18.6301 12.9555C15.948 11.4576 14.1296 8.59149 14.1296 5.30742C14.1296 4.33659 13.3426 3.54963 12.3718 3.54963C11.401 3.54963 10.614 4.33659 10.614 5.30742C10.614 8.73334 12.0269 11.8342 14.2987 14.0626H3.33979C1.49816 14.0626 0 15.5608 0 17.4024V31.1305C0 32.9721 1.49816 34.4703 3.33979 34.4703H5.65479V77.6944C5.65479 80.6021 8.02042 82.9678 10.9281 82.9678H47.1983C51.7464 87.3207 57.9101 89.9989 64.6879 89.9989C78.6451 89.9989 90 78.644 90 64.6868C90 54.4797 83.926 45.6656 75.2033 41.6654ZM49.218 13.0081V8.78941C49.218 5.88169 51.5836 3.51606 54.4913 3.51606C57.3991 3.51606 59.7647 5.88169 59.7647 8.78941C59.7647 11.6971 57.3991 14.0628 54.4913 14.0628H49.218V13.0081ZM49.218 17.5783H77.3425V30.9549H49.218V17.5783ZM49.218 34.4705H71.6877V40.3601C69.4638 39.7192 67.1154 39.3749 64.6879 39.3749C58.8666 39.3749 53.4989 41.3513 49.218 44.6669V34.4705ZM35.1557 13.0081C35.1557 10.1004 37.5213 7.73474 40.4291 7.73474C43.3368 7.73474 45.7024 10.1004 45.7024 13.0081V14.0628H35.1557V13.0081ZM35.1557 17.5783H45.7024V30.9549H35.1557V17.5783ZM26.3668 3.51606C29.2745 3.51606 31.6401 5.88169 31.6401 8.78941V13.0081V14.0628H26.3668C23.459 14.0628 21.0934 11.6971 21.0934 8.78941C21.0934 5.88169 23.459 3.51606 26.3668 3.51606ZM3.51557 30.9549V17.5783H31.6401V30.9549H7.41258H3.51557ZM35.1557 79.4524V63.0143C35.1557 62.0434 34.3687 61.2565 33.3979 61.2565C32.4271 61.2565 31.6401 62.0434 31.6401 63.0143V79.4524H10.9281C9.95891 79.4524 9.17036 78.6638 9.17036 77.6946V34.4705H31.6401V47.1942C31.6401 48.165 32.4271 48.952 33.3979 48.952C34.3687 48.952 35.1557 48.165 35.1557 47.1942V34.4705H45.7024V47.9659C41.7673 52.4285 39.3758 58.2834 39.3758 64.687C39.3758 70.1932 41.1441 75.2936 44.1411 79.4524H35.1557ZM64.6879 86.4835C52.6692 86.4835 42.8914 76.7057 42.8914 64.687C42.8914 52.6683 52.6692 42.8904 64.6879 42.8904C76.7066 42.8904 86.4844 52.6683 86.4844 64.687C86.4844 76.7057 76.7066 86.4835 64.6879 86.4835Z" fill="currentColor"/>
<path d="M70.4189 53.1187C69.5452 52.6945 68.4939 53.0587 68.0698 53.932L58.3977 73.8488C57.9736 74.722 58.3378 75.7737 59.211 76.1979C59.4584 76.3179 59.7199 76.3749 59.9776 76.3749C60.6296 76.3749 61.2561 76.0105 61.5602 75.3845L71.2322 55.4678C71.6563 54.5945 71.2921 53.5426 70.4189 53.1187Z" fill="currentColor"/>
<path d="M60.2459 52.1317C59.1833 51.0691 57.7704 50.4839 56.2678 50.4839C54.7651 50.4839 53.3523 51.0691 52.2897 52.1317C50.0961 54.3252 50.0961 57.8945 52.2897 60.088C53.3866 61.1849 54.8269 61.7332 56.2678 61.7332C57.7084 61.7332 59.1494 61.1846 60.2461 60.088C62.4393 57.8945 62.4393 54.3252 60.2459 52.1317ZM57.76 57.602C56.9372 58.425 55.5983 58.4248 54.7756 57.602C53.9528 56.7791 53.9528 55.4404 54.7756 54.6174C55.1741 54.2187 55.7041 53.9993 56.2678 53.9993C56.8316 53.9993 57.3614 54.2189 57.76 54.6176C58.5829 55.4404 58.5829 56.7793 57.76 57.602Z" fill="currentColor"/>
<path d="M69.444 69.2862C67.2504 71.4798 67.2504 75.049 69.444 77.2426C70.5066 78.3052 71.9195 78.8904 73.4221 78.8904C74.9249 78.8904 76.3376 78.3052 77.4002 77.2426C79.5938 75.049 79.5938 71.4798 77.4002 69.2862C75.2066 67.0927 71.6376 67.0928 69.444 69.2862ZM74.9143 74.7567C74.5158 75.1554 73.9858 75.3748 73.4221 75.3748C72.8584 75.3748 72.3286 75.1552 71.9299 74.7565C71.1071 73.9337 71.1071 72.595 71.9299 71.7721C72.3414 71.3606 72.8818 71.155 73.4221 71.155C73.9625 71.155 74.503 71.3606 74.9143 71.7721C75.7372 72.595 75.7372 73.9339 74.9143 74.7567Z" fill="currentColor"/>
</g>
<defs>
<clipPath id="clip0">
<rect width="90" height="90" fill="white"/>
</clipPath>
</defs>
</svg>
