<svg width="160" height="160" viewBox="0 0 160 160" fill="none" xmlns="http://www.w3.org/2000/svg">
<path d="M136.067 138.622L102.233 56.1523C100.357 51.5771 99.4047 46.7505 99.4047 41.8054V20.0061C99.4047 17.6587 100.319 15.4517 101.979 13.7915C104.003 11.7676 105.119 9.07593 105.119 6.21338V3.125C105.119 1.39893 103.719 0 101.994 0H58.3622C56.6361 0 55.2372 1.39893 55.2372 3.125V6.21338C55.2372 9.07593 56.3517 11.7676 58.3756 13.7915C60.0358 15.4517 60.9501 17.6587 60.9501 20.0073V41.8054C60.9501 46.7505 59.9992 51.5771 58.1217 56.1523L48.8249 78.8135C48.8212 78.822 48.8175 78.8306 48.8139 78.8391L24.2875 138.622C22.3234 143.411 22.8715 148.837 25.7548 153.135C28.6381 157.434 33.4489 160 38.6247 160H121.73C126.906 160 131.718 157.434 134.601 153.135C137.483 148.835 138.031 143.411 136.067 138.622ZM63.9042 58.5242C66.0917 53.1934 67.2001 47.5684 67.2001 41.8054V20.0061C67.2001 15.99 65.6364 12.2131 62.7958 9.37256C61.9608 8.5376 61.497 7.4292 61.4872 6.25H98.8688C98.859 7.4292 98.3952 8.53638 97.559 9.37256C94.7196 12.2131 93.1547 15.9888 93.1547 20.0061V41.8042C93.1547 47.5671 94.2643 53.1921 96.4506 58.5229L103.996 76.9141H56.359L63.9042 58.5242ZM129.41 149.653C127.664 152.257 124.865 153.75 121.73 153.75H38.6247C35.4911 153.75 32.692 152.257 30.9452 149.653C29.6281 147.689 29.1251 145.411 29.4669 143.165H34.6159C36.3407 143.165 37.7409 141.765 37.7409 140.04C37.7409 138.314 36.3407 136.915 34.6159 136.915H31.7448L35.3336 128.165H40.6046C42.3307 128.165 43.7296 126.765 43.7296 125.04C43.7296 123.314 42.3307 121.915 40.6046 121.915H37.8983L41.4872 113.165H46.9071C48.6332 113.165 50.0321 111.765 50.0321 110.04C50.0321 108.314 48.6332 106.915 46.9071 106.915H44.0519L47.642 98.1653H53.2084C54.9345 98.1653 56.3334 96.7651 56.3334 95.0403C56.3334 93.3142 54.9345 91.9153 53.2084 91.9153H50.2055L53.7956 83.1653H106.559L130.285 140.995C131.474 143.894 131.155 147.051 129.41 149.653Z" fill="currentColor"/>
<path d="M120.634 138.817C119.98 137.219 118.156 136.455 116.558 137.108C114.962 137.762 114.196 139.586 114.849 141.184L114.867 141.223C115.362 142.433 116.528 143.165 117.76 143.165C118.154 143.165 118.554 143.091 118.942 142.932C120.539 142.278 121.305 140.453 120.65 138.856L120.634 138.817Z" fill="currentColor"/>
<path d="M116.218 128.051L105.027 100.773C104.372 99.176 102.547 98.4118 100.949 99.0674C99.3527 99.7217 98.5898 101.548 99.2441 103.145L110.435 130.422C110.931 131.632 112.097 132.362 113.329 132.362C113.723 132.362 114.124 132.288 114.513 132.128C116.109 131.473 116.873 129.647 116.218 128.051Z" fill="currentColor"/>
</svg>
