<svg width="160" height="160" viewBox="0 0 160 160" fill="none" xmlns="http://www.w3.org/2000/svg">
<path d="M2.51532 89.9719C3.79188 90.2319 5.13563 89.6307 5.80282 88.5147C6.46469 87.4075 6.37032 85.9797 5.57157 84.9672C4.74 83.9135 3.28063 83.5122 2.02563 83.9844C0.821879 84.4372 0.00187934 85.6232 4.34014e-06 86.9094C-0.00249566 88.3853 1.07532 89.6797 2.51532 89.9719Z" fill="currentColor"/>
<path d="M121.968 73.231C116.079 52.5984 97.1926 38.3022 75.5648 38.3022L75.3661 38.3034C72.3514 38.3381 69.7508 40.1431 67.822 41.7119C66.9611 42.4122 66.0161 42.9394 65.0279 43.2934V43.2485C65.0354 42.6941 65.0358 42.1216 65.0279 41.5334V31.9325C65.0279 25.5284 70.2379 20.3184 76.642 20.3184C78.3679 20.3184 79.767 18.9194 79.767 17.1934C79.767 15.4675 78.3679 14.0684 76.642 14.0684C70.0911 14.0684 64.3526 17.6128 61.2433 22.8847C59.8973 19.9913 58.1029 17.2534 55.7276 14.8838C43.5751 2.76095 21.4651 5.93438 20.5295 6.07532C19.1745 6.2797 18.1111 7.34251 17.9058 8.6972C17.7654 9.6222 14.6386 31.3063 26.4186 43.4988C24.0351 44.7116 21.7395 46.131 19.5514 47.75C11.3648 53.8075 5.39856 62.0969 2.29763 71.7216C1.76825 73.3644 2.67106 75.125 4.31388 75.6541C5.95544 76.1828 7.71731 75.281 8.24638 73.6378C13.8514 56.2406 29.9167 44.5519 48.2045 44.5519L48.3686 44.5528C48.812 44.5578 49.3376 44.7591 49.8567 45.0369C49.9148 45.0716 49.9742 45.1044 50.0342 45.1347C50.8798 45.616 51.6798 46.2666 52.0404 46.56C57.7554 51.2081 66.0511 51.2085 71.7658 46.5603C72.372 46.0672 74.217 44.5669 75.4204 44.5531L75.5833 44.5522C93.8439 44.5522 109.87 56.276 115.479 73.3866C95.2211 75.5128 79.3748 92.8156 79.3748 113.777C79.3748 125.442 84.2826 135.974 92.1276 143.388C86.0167 147.517 80.0583 148.125 74.9317 148.125L74.6023 148.121C74.5389 148.119 74.3917 148.12 74.167 148.128C69.1636 148.308 65.2536 147.429 62.8551 146.661C62.2354 146.463 61.5701 146.463 60.9504 146.661C58.5523 147.429 54.6433 148.308 49.6383 148.128C49.4139 148.12 49.2661 148.119 49.2051 148.121L48.8742 148.125C42.2108 148.125 28.3458 148.125 16.472 124.169C12.7904 116.741 9.78075 108.26 7.99763 100.289C7.62106 98.605 5.95013 97.5447 4.26575 97.9219C2.58138 98.2988 1.52169 99.9694 1.89825 101.654C3.78763 110.099 6.9745 119.081 10.8717 126.944C22.9226 151.257 37.5111 154.375 48.8742 154.375H49.0792C49.1054 154.375 49.1317 154.375 49.1579 154.374L49.3001 154.37L49.4167 154.374C53.7329 154.528 58.0276 154.02 61.9029 152.903C65.3267 153.89 69.077 154.401 72.8808 154.401C73.3826 154.401 73.8858 154.392 74.3889 154.374L74.5051 154.37L74.6473 154.374C74.6736 154.375 74.7001 154.375 74.7264 154.375H74.9314C81.0992 154.375 89.1095 153.559 97.182 147.454C103.613 151.829 111.359 154.386 119.687 154.386C141.915 154.386 159.999 136.169 159.999 113.776C160 92.155 143.139 74.426 121.968 73.231ZM53.4829 39.9166L38.6389 22.6559C37.5133 21.3472 35.5401 21.1988 34.2317 22.3244C32.9233 23.4497 32.7745 25.4228 33.8998 26.7313L44.0061 38.4828C40.1479 38.815 36.3798 39.6031 32.7589 40.8281C32.1904 40.3763 31.652 39.8978 31.1523 39.3997C23.3067 31.5722 23.4383 17.5881 23.8464 12.0172C29.432 11.6094 43.4611 11.4753 51.3136 19.3088C57.8989 25.8781 58.8545 36.8203 58.7717 43.291C57.7861 42.9366 56.8429 42.4103 55.9842 41.7116C55.2445 41.1103 54.4061 40.4744 53.4829 39.9166ZM49.3451 154.369L49.3654 154.369C49.3595 154.369 49.3526 154.369 49.3451 154.369ZM74.4423 154.369L74.4601 154.369C74.4536 154.369 74.4476 154.369 74.4423 154.369ZM119.687 148.137C100.905 148.137 85.6251 132.723 85.6251 113.777C85.6251 94.8306 100.905 79.4166 119.687 79.4166C138.469 79.4166 153.75 94.8303 153.75 113.777C153.75 132.723 138.469 148.137 119.687 148.137Z" fill="currentColor"/>
<path d="M134.621 103.057H130.343V98.7147C130.343 94.8863 127.242 91.7716 123.43 91.7716H115.944C112.132 91.7716 109.031 94.8863 109.031 98.7147V103.057H104.753C100.941 103.057 97.8398 106.172 97.8398 110.001V117.553C97.8398 121.381 100.941 124.496 104.753 124.496H109.031V128.838C109.031 132.667 112.132 135.782 115.944 135.782H123.43C127.242 135.782 130.343 132.667 130.343 128.838V124.496H134.621C138.433 124.496 141.535 121.382 141.535 117.553V110.001C141.535 106.172 138.433 103.057 134.621 103.057ZM135.285 117.553C135.285 117.935 134.987 118.246 134.621 118.246H127.218C125.492 118.246 124.093 119.645 124.093 121.371V128.838C124.093 129.221 123.796 129.532 123.43 129.532H115.944C115.578 129.532 115.281 129.221 115.281 128.838V121.371C115.281 119.645 113.882 118.246 112.156 118.246H104.753C104.387 118.246 104.09 117.935 104.09 117.553V110C104.09 109.618 104.387 109.307 104.753 109.307H112.156C113.882 109.307 115.281 107.908 115.281 106.182V98.7144C115.281 98.3322 115.578 98.0213 115.944 98.0213H123.43C123.796 98.0213 124.093 98.3322 124.093 98.7144V106.182C124.093 107.908 125.492 109.307 127.218 109.307H134.621C134.987 109.307 135.285 109.618 135.285 110V117.553Z" fill="currentColor"/>
</svg>
