<svg width="160" height="160" viewBox="0 0 160 160" fill="none" xmlns="http://www.w3.org/2000/svg">
<path d="M115 120H123.965C125.414 120.004 126.851 119.72 128.19 119.165C129.529 118.611 130.745 117.796 131.768 116.768C132.237 116.299 132.5 115.663 132.5 115C132.5 114.337 132.237 113.701 131.768 113.232C131.299 112.763 130.663 112.5 130 112.5C129.337 112.5 128.701 112.763 128.232 113.232C127.673 113.794 127.008 114.24 126.275 114.543C125.543 114.847 124.758 115.002 123.965 115H115C114.337 115 113.701 115.263 113.232 115.732C112.763 116.201 112.5 116.837 112.5 117.5C112.5 118.163 112.763 118.799 113.232 119.268C113.701 119.737 114.337 120 115 120Z" fill="currentColor"/>
<path d="M122.5 80C120.522 80 118.589 80.5865 116.944 81.6853C115.3 82.7841 114.018 84.3459 113.261 86.1732C112.504 88.0004 112.306 90.0111 112.692 91.9509C113.078 93.8907 114.03 95.6725 115.429 97.0711C116.827 98.4696 118.609 99.422 120.549 99.8079C122.489 100.194 124.5 99.9957 126.327 99.2388C128.154 98.4819 129.716 97.2002 130.815 95.5557C131.914 93.9112 132.5 91.9778 132.5 90C132.497 87.3487 131.443 84.8069 129.568 82.9322C127.693 81.0575 125.151 80.003 122.5 80ZM122.5 95C121.511 95 120.544 94.7068 119.722 94.1574C118.9 93.6079 118.259 92.827 117.881 91.9134C117.502 90.9998 117.403 89.9944 117.596 89.0245C117.789 88.0546 118.265 87.1637 118.964 86.4645C119.664 85.7652 120.555 85.289 121.525 85.0961C122.494 84.9031 123.5 85.0022 124.413 85.3806C125.327 85.759 126.108 86.3999 126.657 87.2221C127.207 88.0444 127.5 89.0111 127.5 90C127.498 91.3256 126.971 92.5965 126.034 93.5338C125.096 94.4711 123.826 94.9984 122.5 95Z" fill="currentColor"/>
<path d="M147.5 67.5C146.017 67.5 144.567 67.9399 143.333 68.764C142.1 69.5881 141.139 70.7594 140.571 72.1299C140.003 73.5003 139.855 75.0083 140.144 76.4632C140.434 77.918 141.148 79.2544 142.197 80.3033C143.246 81.3522 144.582 82.0665 146.037 82.3559C147.492 82.6453 149 82.4967 150.37 81.9291C151.741 81.3614 152.912 80.4001 153.736 79.1668C154.56 77.9334 155 76.4834 155 75C154.998 73.0116 154.207 71.1052 152.801 69.6992C151.395 68.2931 149.488 67.5022 147.5 67.5ZM147.5 77.5C147.006 77.5 146.522 77.3534 146.111 77.0787C145.7 76.804 145.38 76.4135 145.19 75.9567C145.001 75.4999 144.952 74.9972 145.048 74.5123C145.145 74.0273 145.383 73.5819 145.732 73.2322C146.082 72.8826 146.527 72.6445 147.012 72.548C147.497 72.4516 148 72.5011 148.457 72.6903C148.914 72.8795 149.304 73.1999 149.579 73.6111C149.853 74.0222 150 74.5055 150 75C149.999 75.6628 149.736 76.2983 149.267 76.7669C148.798 77.2356 148.163 77.4992 147.5 77.5Z" fill="currentColor"/>
<path d="M122.5 45C120.522 45 118.589 45.5865 116.944 46.6853C115.3 47.7841 114.018 49.3459 113.261 51.1732C112.504 53.0004 112.306 55.0111 112.692 56.9509C113.078 58.8907 114.03 60.6725 115.429 62.0711C116.827 63.4696 118.609 64.422 120.549 64.8079C122.489 65.1937 124.5 64.9957 126.327 64.2388C128.154 63.4819 129.716 62.2002 130.815 60.5557C131.914 58.9112 132.5 56.9778 132.5 55C132.497 52.3487 131.443 49.8069 129.568 47.9322C127.693 46.0575 125.151 45.003 122.5 45ZM122.5 60C121.511 60 120.544 59.7068 119.722 59.1573C118.9 58.6079 118.259 57.8271 117.881 56.9134C117.502 55.9998 117.403 54.9945 117.596 54.0245C117.789 53.0546 118.265 52.1637 118.964 51.4645C119.664 50.7652 120.555 50.289 121.525 50.0961C122.494 49.9031 123.5 50.0022 124.413 50.3806C125.327 50.759 126.108 51.3999 126.657 52.2221C127.207 53.0444 127.5 54.0111 127.5 55C127.498 56.3256 126.971 57.5965 126.034 58.5338C125.096 59.4711 123.826 59.9984 122.5 60Z" fill="currentColor"/>
<path d="M21.875 155H48.125C49.7967 155.001 51.4495 154.647 52.9741 153.961C53.205 154.282 53.5092 154.544 53.8615 154.725C54.2138 154.906 54.604 155 55 155H142.5C143.058 155 143.599 154.814 144.039 154.47C144.478 154.127 144.79 153.647 144.925 153.106L146.952 145H150C150.663 145 151.299 144.737 151.768 144.268C152.237 143.799 152.5 143.163 152.5 142.5V132.5C152.5 131.837 152.237 131.201 151.768 130.732C151.299 130.263 150.663 130 150 130H143.668C145.603 127.844 146.871 125.174 147.319 122.312C147.768 119.451 147.378 116.521 146.196 113.876C145.015 111.231 143.093 108.986 140.662 107.411C138.231 105.835 135.396 104.998 132.5 105H107.5V57.1875C107.494 53.01 105.969 48.9773 103.209 45.8413C100.449 42.7054 96.6429 40.6804 92.5 40.1441V32.5C92.5 31.837 92.2366 31.2011 91.7678 30.7322C91.2989 30.2634 90.663 30 90 30V10C90 9.33696 89.7366 8.70107 89.2678 8.23223C88.7989 7.76339 88.163 7.5 87.5 7.5H63.125C61.6337 7.50174 60.204 8.09493 59.1494 9.14944C58.0949 10.204 57.5017 11.6337 57.5 13.125V17.5C57.5 18.163 57.7634 18.7989 58.2322 19.2678C58.7011 19.7366 59.337 20 60 20H70V30C69.337 30 68.7011 30.2634 68.2322 30.7322C67.7634 31.2011 67.5 31.837 67.5 32.5V40.1441C63.3571 40.6804 59.5507 42.7054 56.7908 45.8413C54.0309 48.9773 52.5058 53.01 52.5 57.1875V83.3387C51.1081 82.7841 49.6233 82.4995 48.125 82.5C47.2965 82.4991 46.5021 82.1696 45.9163 81.5837C45.3304 80.9978 45.0009 80.2035 45 79.375V77.5C45.663 77.5 46.2989 77.2366 46.7678 76.7678C47.2366 76.2989 47.5 75.663 47.5 75V65C47.5 64.337 47.2366 63.7011 46.7678 63.2322C46.2989 62.7634 45.663 62.5 45 62.5H25C24.337 62.5 23.7011 62.7634 23.2322 63.2322C22.7634 63.7011 22.5 64.337 22.5 65V75C22.5 75.663 22.7634 76.2989 23.2322 76.7678C23.7011 77.2366 24.337 77.5 25 77.5V79.375C24.9991 80.2035 24.6696 80.9978 24.0837 81.5837C23.4979 82.1696 22.7035 82.4991 21.875 82.5C18.7266 82.5036 15.7083 83.7558 13.482 85.982C11.2558 88.2083 10.0036 91.2266 10 94.375V143.125C10.0036 146.273 11.2558 149.292 13.482 151.518C15.7083 153.744 18.7266 154.996 21.875 155ZM57.5 87.0994V80H82.5V115H60V94.375C60.0019 91.7388 59.1218 89.1777 57.5 87.0994ZM140.548 150H107.5V145H141.798L140.548 150ZM147.5 140H107.5V135H147.5V140ZM132.5 110C135.152 110 137.696 111.054 139.571 112.929C141.446 114.804 142.5 117.348 142.5 120C142.5 122.652 141.446 125.196 139.571 127.071C137.696 128.946 135.152 130 132.5 130H107.5V110H132.5ZM72.5 35H87.5V40H72.5V35ZM62.5 15V13.125C62.5 12.9592 62.5658 12.8003 62.6831 12.6831C62.8003 12.5658 62.9592 12.5 63.125 12.5H70V15H62.5ZM75 12.5H85V30H75V12.5ZM69.6875 45H90.3125C93.5437 45.0036 96.6415 46.2888 98.9263 48.5737C101.211 50.8585 102.496 53.9563 102.5 57.1875V150H57.7981C59.232 147.994 60.002 145.59 60 143.125V120H85C85.663 120 86.2989 119.737 86.7678 119.268C87.2366 118.799 87.5 118.163 87.5 117.5V77.5C87.5 76.837 87.2366 76.2011 86.7678 75.7322C86.2989 75.2634 85.663 75 85 75H57.5V57.1875C57.5036 53.9563 58.7888 50.8585 61.0737 48.5737C63.3585 46.2888 66.4563 45.0036 69.6875 45ZM27.5 67.5H42.5V72.5H27.5V67.5ZM21.875 87.5C24.0291 87.4976 26.0944 86.6408 27.6176 85.1176C29.1408 83.5944 29.9976 81.5291 30 79.375V77.5H40V79.375C40.0024 81.5291 40.8592 83.5944 42.3824 85.1176C43.9056 86.6408 45.9709 87.4976 48.125 87.5C49.9477 87.5021 51.6952 88.2271 52.9841 89.5159C54.2729 90.8048 54.9979 92.5523 55 94.375V143.125C54.9979 144.948 54.2729 146.695 52.9841 147.984C51.6952 149.273 49.9477 149.998 48.125 150H21.875C20.0523 149.998 18.3048 149.273 17.0159 147.984C15.7271 146.695 15.0021 144.948 15 143.125V137.5H37.5C38.163 137.5 38.7989 137.237 39.2678 136.768C39.7366 136.299 40 135.663 40 135V100C40 99.337 39.7366 98.7011 39.2678 98.2322C38.7989 97.7634 38.163 97.5 37.5 97.5H15V94.375C15.0021 92.5523 15.7271 90.8048 17.0159 89.5159C18.3048 88.2271 20.0523 87.5021 21.875 87.5ZM15 102.5H35V132.5H15V102.5Z" fill="currentColor"/>
<path d="M95 122.5C95.663 122.5 96.2989 122.237 96.7678 121.768C97.2366 121.299 97.5 120.663 97.5 120V117.5C97.5 116.837 97.2366 116.201 96.7678 115.732C96.2989 115.263 95.663 115 95 115C94.337 115 93.7011 115.263 93.2322 115.732C92.7634 116.201 92.5 116.837 92.5 117.5V120C92.5 120.663 92.7634 121.299 93.2322 121.768C93.7011 122.237 94.337 122.5 95 122.5Z" fill="currentColor"/>
<path d="M95 140C95.663 140 96.2989 139.737 96.7678 139.268C97.2366 138.799 97.5 138.163 97.5 137.5V130C97.5 129.337 97.2366 128.701 96.7678 128.232C96.2989 127.763 95.663 127.5 95 127.5C94.337 127.5 93.7011 127.763 93.2322 128.232C92.7634 128.701 92.5 129.337 92.5 130V137.5C92.5 138.163 92.7634 138.799 93.2322 139.268C93.7011 139.737 94.337 140 95 140Z" fill="currentColor"/>
</svg>
